<svg 
 xmlns="http://www.w3.org/2000/svg"
 xmlns:xlink="http://www.w3.org/1999/xlink"
 width="20px" height="23px">
<path fill-rule="evenodd"  fill="rgb(83, 126, 166)"
 d="M10.054,1.006 C10.714,0.991 11.662,0.958 11.835,1.421 C11.970,1.781 11.750,2.159 11.664,2.434 C11.536,2.935 11.409,3.437 11.281,3.939 C11.229,4.143 11.230,4.341 11.123,4.484 C11.014,4.629 10.839,4.677 10.621,4.718 C10.621,5.073 10.621,5.427 10.621,5.782 C10.856,5.824 11.018,5.973 11.175,6.094 C12.195,6.877 12.011,8.848 10.740,9.221 C10.740,9.299 10.740,9.377 10.740,9.455 C12.983,10.368 15.227,11.281 17.470,12.193 C18.006,12.410 18.543,12.626 19.080,12.843 C19.377,12.957 19.689,13.009 19.845,13.258 C20.064,13.608 19.937,14.293 19.937,14.789 C19.937,16.001 19.937,17.212 19.937,18.423 C19.937,19.422 19.937,20.423 19.937,21.421 C19.937,21.891 20.011,22.447 19.792,22.732 C19.572,23.019 19.025,22.979 18.512,22.979 C17.461,22.979 16.410,22.979 15.359,22.979 C11.739,22.979 8.118,22.979 4.499,22.979 C3.535,22.979 2.572,22.979 1.609,22.979 C1.186,22.979 0.633,23.059 0.342,22.888 C0.054,22.719 -0.057,22.129 0.025,21.616 C0.030,20.323 0.034,19.029 0.039,17.736 C0.039,16.684 0.039,15.633 0.039,14.582 C0.038,14.142 -0.071,13.541 0.131,13.232 C0.295,12.981 0.646,12.947 0.949,12.830 C1.494,12.613 2.040,12.397 2.585,12.181 C4.877,11.272 7.169,10.363 9.460,9.455 C9.456,9.399 9.451,9.343 9.447,9.286 C8.812,9.215 8.328,8.589 8.167,8.040 C8.060,7.673 8.108,7.179 8.352,7.002 C8.467,6.919 8.654,6.877 8.814,6.911 C9.046,6.961 9.199,7.051 9.302,7.223 C9.385,7.362 9.337,7.566 9.394,7.742 C9.469,7.971 9.832,8.244 10.186,8.105 C10.300,8.060 10.384,7.979 10.450,7.884 C10.531,7.768 10.600,7.595 10.555,7.392 C10.399,6.684 9.565,7.087 9.381,6.522 C9.253,6.127 9.321,5.564 9.328,5.094 C9.328,4.964 9.328,4.835 9.328,4.705 C9.105,4.694 8.924,4.606 8.827,4.471 C8.620,3.714 8.413,2.957 8.207,2.200 C8.131,1.950 8.053,1.539 8.193,1.305 C8.439,0.894 9.094,1.109 9.671,1.019 C9.799,1.015 9.926,1.010 10.054,1.006 ZM9.539,2.278 C9.641,2.671 9.742,3.065 9.843,3.459 C9.940,3.455 10.036,3.450 10.133,3.446 C10.225,3.056 10.318,2.667 10.410,2.278 C10.120,2.278 9.830,2.278 9.539,2.278 ZM10.028,10.571 C8.004,11.372 5.981,12.172 3.958,12.973 C3.958,12.977 3.958,12.981 3.958,12.985 C6.786,12.985 9.614,12.985 12.442,12.985 C13.634,12.977 14.826,12.968 16.018,12.959 C14.022,12.163 12.024,11.367 10.028,10.571 ZM1.305,14.244 C1.305,16.736 1.305,19.228 1.305,21.720 C7.089,21.720 12.874,21.720 18.657,21.720 C18.657,19.228 18.657,16.736 18.657,14.244 C12.874,14.244 7.089,14.244 1.305,14.244 ZM3.258,14.867 C4.040,14.869 3.984,15.551 3.984,16.321 C3.984,17.398 3.984,18.475 3.984,19.553 C3.984,20.295 4.040,20.925 3.403,21.045 C2.756,21.167 2.593,20.370 2.691,19.760 C2.695,18.696 2.700,17.631 2.704,16.567 C2.704,16.158 2.623,15.628 2.757,15.309 C2.854,15.076 3.041,14.984 3.258,14.867 ZM6.610,14.867 C7.391,14.869 7.336,15.552 7.336,16.321 C7.336,17.398 7.336,18.475 7.336,19.553 C7.336,20.295 7.391,20.926 6.755,21.045 C6.112,21.166 5.945,20.380 6.042,19.773 C6.047,18.705 6.051,17.636 6.056,16.567 C6.056,16.157 5.975,15.628 6.109,15.309 C6.206,15.076 6.392,14.984 6.610,14.867 ZM9.896,14.867 C10.217,14.867 10.447,14.998 10.542,15.217 C10.698,15.576 10.621,16.157 10.621,16.645 C10.626,17.709 10.630,18.774 10.635,19.838 C10.736,20.465 10.513,20.958 10.041,21.045 C9.223,21.197 9.341,20.132 9.341,19.475 C9.341,18.523 9.341,17.571 9.341,16.619 C9.341,16.168 9.262,15.620 9.407,15.282 C9.498,15.073 9.697,14.974 9.896,14.867 ZM13.194,14.867 C13.815,14.869 14.018,15.431 13.907,16.126 C13.907,17.290 13.907,18.454 13.907,19.617 C14.022,20.326 13.865,20.946 13.326,21.045 C12.685,21.163 12.530,20.358 12.627,19.747 C12.631,18.683 12.636,17.619 12.640,16.555 C12.640,16.146 12.558,15.616 12.693,15.295 C12.786,15.074 12.986,14.979 13.194,14.867 ZM16.546,14.867 C17.170,14.869 17.371,15.440 17.259,16.139 C17.259,17.294 17.259,18.450 17.259,19.604 C17.374,20.318 17.220,20.945 16.678,21.045 C16.036,21.163 15.881,20.358 15.979,19.747 C15.983,18.679 15.988,17.610 15.992,16.542 C15.992,16.127 15.897,15.636 16.031,15.309 C16.126,15.080 16.332,14.982 16.546,14.867 Z"/>
</svg>