<svg 
 xmlns="http://www.w3.org/2000/svg"
 xmlns:xlink="http://www.w3.org/1999/xlink"
 width="17px" height="20px">
<path fill-rule="evenodd"  fill="rgb(83, 126, 166)"
 d="M11.218,0.000 C12.054,-0.021 12.524,0.280 12.976,0.640 C13.136,0.768 13.418,0.965 13.363,1.293 C13.293,1.706 12.840,2.389 12.636,2.741 C12.179,3.603 11.722,4.466 11.265,5.328 C11.272,5.340 11.280,5.351 11.288,5.363 C11.480,5.449 11.632,5.641 11.792,5.767 C12.258,6.135 12.678,6.546 13.081,6.977 C14.722,8.728 15.970,10.668 16.704,13.361 C17.106,14.839 17.163,16.910 16.469,18.060 C15.934,18.949 15.122,19.596 13.996,19.887 C13.334,20.058 12.393,19.982 11.593,19.982 C10.128,19.982 8.662,19.982 7.197,19.982 C6.400,19.982 5.602,19.982 4.805,19.982 C4.083,19.982 3.369,19.999 2.824,19.828 C1.073,19.276 -0.362,17.536 0.081,14.939 C0.147,14.504 0.214,14.069 0.280,13.634 C0.903,11.003 2.093,9.069 3.598,7.345 C4.016,6.866 4.498,6.368 4.993,5.968 C5.239,5.767 5.485,5.565 5.731,5.363 C5.196,4.541 4.661,3.718 4.125,2.895 C3.924,2.589 3.507,2.143 3.457,1.733 C3.410,1.346 3.957,0.969 4.172,0.807 C4.519,0.546 4.892,0.324 5.368,0.190 C6.252,-0.059 7.302,0.216 8.006,0.463 C8.252,0.550 8.498,0.637 8.744,0.724 C9.111,0.792 9.972,0.331 10.268,0.214 C10.483,0.154 10.698,0.095 10.913,0.035 C11.014,0.024 11.116,0.012 11.218,0.000 ZM11.206,1.199 C11.022,1.246 10.839,1.293 10.655,1.341 C10.115,1.553 9.644,1.794 8.990,1.910 C8.600,1.980 8.262,1.829 8.017,1.733 C7.515,1.533 6.580,1.168 5.860,1.305 C5.347,1.403 5.193,1.620 4.829,1.792 C5.509,2.832 6.189,3.872 6.868,4.912 C7.959,4.912 9.049,4.912 10.139,4.912 C10.760,3.742 11.382,2.571 12.003,1.400 C11.839,1.228 11.545,1.195 11.206,1.199 ZM6.716,6.123 C6.560,6.241 6.404,6.360 6.247,6.479 C5.931,6.755 5.614,7.032 5.298,7.309 C3.751,8.768 2.450,10.570 1.722,12.851 C1.557,13.368 1.437,13.935 1.324,14.523 C1.296,14.844 1.269,15.164 1.242,15.485 C1.189,15.820 1.196,16.269 1.265,16.576 C1.499,17.623 2.167,18.344 3.117,18.665 C3.737,18.874 4.716,18.784 5.509,18.784 C7.060,18.784 8.611,18.784 10.163,18.784 C11.693,18.784 13.608,18.970 14.559,18.368 C15.135,18.003 15.565,17.417 15.754,16.660 C15.836,16.333 15.850,15.806 15.789,15.437 C15.766,15.153 15.743,14.868 15.719,14.583 C15.567,13.791 15.429,13.053 15.168,12.376 C14.540,10.745 13.737,9.646 12.753,8.401 C12.489,8.067 12.195,7.740 11.874,7.463 C11.471,7.116 11.105,6.739 10.678,6.407 C10.557,6.313 10.436,6.218 10.315,6.123 C9.115,6.123 7.916,6.123 6.716,6.123 ZM9.213,9.932 C9.523,9.928 9.998,9.868 10.245,9.967 C10.619,10.119 10.760,10.737 10.397,11.011 C9.773,11.484 7.134,10.532 7.443,11.901 C7.619,12.680 8.561,12.274 9.377,12.412 C9.676,12.462 9.935,12.548 10.151,12.685 C11.552,13.571 11.094,16.088 9.213,16.078 C9.226,16.679 9.207,17.416 8.533,17.277 C8.019,17.170 8.016,16.720 8.029,16.078 C7.710,16.083 7.204,16.148 6.951,16.042 C6.552,15.876 6.464,15.229 6.845,14.975 C7.003,14.869 7.247,14.880 7.513,14.880 C8.283,14.880 9.455,15.060 9.729,14.535 C9.783,14.433 9.833,14.279 9.799,14.121 C9.627,13.319 8.749,13.741 7.947,13.610 C7.642,13.560 7.382,13.505 7.162,13.373 C5.675,12.483 6.103,9.945 8.029,9.932 C8.017,9.374 8.006,8.996 8.369,8.816 C8.447,8.778 8.591,8.724 8.732,8.757 C9.218,8.870 9.226,9.312 9.213,9.932 Z"/>
</svg>