<svg 
 xmlns="http://www.w3.org/2000/svg"
 xmlns:xlink="http://www.w3.org/1999/xlink"
 width="76px" height="75px">
<path fill-rule="evenodd"  fill="rgb(201, 225, 247)"
 d="M53.407,14.811 C57.855,15.088 57.827,23.799 52.863,23.861 C52.525,30.671 52.186,37.484 51.847,44.294 C58.026,44.282 64.206,44.270 70.385,44.258 C71.819,44.045 75.489,44.146 75.826,45.012 C76.000,45.460 75.888,45.965 75.971,46.521 C75.959,48.352 75.947,50.184 75.935,52.015 C75.935,57.365 75.935,62.717 75.935,68.067 C75.935,69.539 75.935,71.012 75.935,72.485 C75.947,73.018 76.047,73.727 75.862,74.172 C75.731,74.491 75.317,74.876 74.956,74.962 C59.395,74.974 43.829,74.986 28.268,74.998 C24.375,74.998 20.480,74.998 16.587,74.998 C13.929,74.998 11.205,75.074 9.332,74.280 C5.798,72.782 2.387,67.852 4.398,62.752 C5.547,59.839 7.861,57.803 11.182,57.043 C10.625,45.983 10.069,34.920 9.513,23.861 C9.501,23.861 9.489,23.861 9.477,23.861 C8.969,23.885 8.461,23.909 7.953,23.932 C5.655,24.278 5.300,21.940 4.688,20.521 C1.478,20.545 -0.999,17.189 0.408,13.949 C1.166,12.202 2.750,11.217 5.269,11.184 C5.990,9.784 7.318,8.731 8.533,7.808 C10.539,6.286 12.600,4.879 15.317,4.038 C16.955,3.531 18.887,3.571 20.722,3.212 C25.813,2.494 30.904,1.775 35.995,1.057 C37.373,0.866 38.752,0.674 40.130,0.482 C43.501,-0.149 47.198,-0.375 49.743,1.201 C51.730,2.430 54.432,6.053 53.843,9.748 C53.698,11.435 53.552,13.124 53.407,14.811 ZM50.650,14.739 C50.740,9.909 52.091,6.147 48.619,3.715 C46.597,2.298 43.382,2.577 40.602,3.104 C39.393,3.260 38.183,3.415 36.974,3.571 C31.884,4.313 26.792,5.055 21.702,5.798 C19.764,6.176 17.689,6.126 15.970,6.659 C14.176,7.216 12.599,8.095 11.218,9.065 C10.159,9.809 8.376,11.145 7.844,12.333 C8.602,12.690 9.101,13.866 9.332,14.739 C23.103,14.739 36.879,14.739 50.650,14.739 ZM4.543,13.877 C3.853,14.332 3.153,14.375 2.838,15.206 C2.325,16.563 3.480,18.150 4.978,17.864 C7.355,17.408 7.353,13.838 4.543,13.877 ZM51.340,17.433 C37.290,17.445 23.236,17.457 9.186,17.469 C8.979,18.636 7.959,19.015 7.336,19.767 C7.578,20.233 7.820,20.700 8.062,21.168 C18.666,21.168 29.273,21.168 39.876,21.168 C42.959,21.168 46.044,21.168 49.127,21.168 C50.241,21.168 52.368,21.396 53.226,21.060 C54.166,20.691 54.155,18.532 53.553,17.756 C53.219,17.326 52.105,17.418 51.340,17.433 ZM12.234,23.861 C12.790,34.873 13.346,45.888 13.902,56.899 C18.784,57.313 23.710,62.333 21.919,68.247 C21.400,69.962 20.455,70.976 19.525,72.233 C19.525,72.245 19.525,72.257 19.525,72.269 C27.989,72.269 36.455,72.269 44.919,72.269 C44.919,65.554 44.919,58.837 44.919,52.123 C44.919,50.423 44.919,48.723 44.919,47.023 C44.919,46.179 44.838,45.210 45.209,44.725 C45.856,43.879 47.900,44.440 49.127,44.294 C49.453,37.484 49.780,30.671 50.106,23.861 C37.483,23.861 24.857,23.861 12.234,23.861 ZM30.553,30.289 C34.150,30.263 34.852,32.331 36.176,34.526 C36.853,35.663 37.530,36.801 38.208,37.938 C38.232,37.926 38.256,37.914 38.280,37.902 C38.592,37.232 40.049,37.163 40.493,37.758 C41.122,38.601 39.947,42.087 39.477,42.427 C38.543,43.102 35.217,41.943 34.834,41.457 C34.665,41.243 34.572,40.676 34.689,40.308 C34.897,39.656 35.391,39.697 35.886,39.339 C35.100,38.022 34.314,36.704 33.528,35.388 C33.150,34.749 32.961,33.944 32.440,33.449 C32.133,33.158 31.297,32.785 30.626,33.018 C29.158,33.527 28.456,37.996 26.345,37.112 C25.263,36.659 25.692,35.254 26.127,34.454 C26.814,33.195 27.626,31.596 28.848,30.863 C29.416,30.672 29.985,30.480 30.553,30.289 ZM24.640,38.297 C26.351,38.266 26.316,39.702 26.635,41.026 C26.746,41.483 27.047,42.452 26.744,42.929 C26.238,43.728 24.972,43.691 24.386,43.038 C24.362,43.050 24.338,43.061 24.314,43.073 C23.923,44.280 21.337,46.854 21.811,48.388 C22.203,49.660 23.756,49.573 25.438,49.573 C25.947,49.573 26.479,49.575 26.780,49.789 C27.524,50.316 27.347,51.877 26.527,52.194 C25.704,52.218 24.882,52.243 24.060,52.267 C23.437,52.267 22.820,52.298 22.319,52.159 C20.757,51.724 18.580,49.897 18.981,47.598 C19.423,45.068 20.933,43.327 22.101,41.457 C20.887,41.195 20.209,39.658 21.448,38.944 C22.269,38.470 23.795,38.776 24.640,38.297 ZM40.348,43.288 C42.522,43.379 43.993,48.040 42.778,50.076 C41.346,52.477 37.220,52.638 33.274,52.267 C33.669,53.345 32.826,54.719 31.605,54.134 C30.948,53.819 28.949,51.904 28.776,51.189 C28.541,50.223 30.963,47.772 31.605,47.562 C32.955,47.121 33.459,48.603 33.056,49.609 C35.407,49.631 39.961,50.179 40.566,48.388 C41.154,46.645 38.355,45.507 39.441,43.971 C39.653,43.671 40.021,43.481 40.348,43.288 ZM47.639,46.987 C47.639,55.414 47.639,63.843 47.639,72.269 C56.151,72.269 64.666,72.269 73.178,72.269 C73.178,63.843 73.178,55.414 73.178,46.987 C70.663,46.987 68.147,46.987 65.633,46.987 C65.633,49.286 65.633,51.584 65.633,53.882 C65.633,54.897 65.731,56.124 65.125,56.540 C64.145,57.212 61.090,56.827 59.538,56.827 C58.292,56.827 56.540,57.150 55.729,56.540 C55.148,56.103 55.257,54.891 55.257,53.882 C55.257,51.584 55.257,49.286 55.257,46.987 C52.718,46.987 50.178,46.987 47.639,46.987 ZM57.978,46.987 C57.978,49.358 57.978,51.728 57.978,54.098 C59.598,54.098 61.219,54.098 62.839,54.098 C62.839,51.728 62.839,49.358 62.839,46.987 C61.219,46.987 59.598,46.987 57.978,46.987 ZM12.596,59.556 C11.931,59.700 11.266,59.843 10.601,59.987 C8.857,60.721 7.588,62.047 6.901,63.830 C5.383,67.766 9.153,72.975 13.177,72.341 C15.882,71.914 17.928,70.823 18.872,68.678 C20.978,63.896 17.473,59.542 12.596,59.556 ZM12.850,62.393 C15.391,62.464 17.378,64.763 16.224,67.385 C15.709,68.555 14.567,69.226 13.104,69.468 C10.879,69.835 8.920,67.018 9.622,64.835 C9.961,63.781 10.847,62.953 11.871,62.573 C12.197,62.513 12.524,62.453 12.850,62.393 ZM12.850,65.122 C12.479,65.442 12.191,65.773 12.342,66.415 C12.463,66.543 12.517,66.634 12.705,66.703 C13.820,67.220 14.350,65.111 12.850,65.122 Z"/>
</svg>