<svg 
 xmlns="http://www.w3.org/2000/svg"
 xmlns:xlink="http://www.w3.org/1999/xlink"
 width="80px" height="80px">
<path fill-rule="evenodd"  fill="rgb(201, 225, 247)"
 d="M41.992,54.541 C42.004,55.796 42.240,58.698 41.613,59.266 C41.015,59.808 39.586,59.648 38.461,59.647 C35.841,59.647 33.221,59.647 30.601,59.647 C30.601,60.435 30.601,61.223 30.601,62.010 C32.828,62.010 35.057,62.010 37.284,62.010 C38.656,62.010 40.149,61.918 41.271,62.201 C42.930,62.619 44.190,63.338 45.334,64.259 C47.384,65.908 49.127,69.760 47.992,73.481 C47.208,76.050 45.455,78.137 43.132,79.159 C40.551,80.293 36.162,79.959 32.462,79.959 C26.551,79.959 20.639,79.959 14.729,79.959 C8.739,79.959 4.902,80.264 2.198,76.834 C1.456,75.893 0.805,74.803 0.414,73.519 C-1.378,67.643 2.955,63.174 7.287,62.163 C8.372,61.909 9.792,62.010 11.084,62.010 C13.324,62.010 15.564,62.010 17.805,62.010 C17.805,61.223 17.805,60.435 17.805,59.647 C15.375,59.647 12.944,59.647 10.514,59.647 C9.313,59.648 7.809,59.810 6.793,59.533 C5.983,59.313 5.202,58.822 4.742,58.238 C3.794,57.030 3.869,55.162 3.869,52.941 C3.869,49.033 3.222,45.076 5.692,43.528 C7.266,42.541 12.627,42.944 15.261,42.956 C15.223,35.521 14.407,30.139 20.918,29.009 C24.323,28.983 27.728,28.958 31.133,28.932 C36.524,21.744 41.917,14.552 47.308,7.364 C48.843,5.267 51.371,0.310 55.320,1.076 C58.203,1.635 58.668,3.234 59.915,5.382 C60.725,6.919 61.535,8.456 62.345,9.993 C67.078,18.935 71.813,27.879 76.546,36.821 C77.217,38.129 77.888,39.438 78.559,40.746 C79.037,41.569 79.634,42.447 79.888,43.452 C80.438,45.626 78.927,47.543 77.420,47.948 C77.430,51.699 77.979,57.622 76.433,59.800 C75.327,61.357 73.152,61.884 71.268,62.658 C69.714,63.297 67.607,64.165 65.269,63.649 C61.079,62.724 58.072,59.006 55.092,56.675 C54.335,56.082 52.216,54.709 51.941,53.817 C51.624,52.790 52.598,51.840 53.574,52.102 C54.451,52.338 56.012,54.032 56.801,54.617 C61.281,52.814 65.763,51.010 70.243,49.206 C71.342,48.741 74.092,47.184 74.686,48.901 C74.698,48.901 74.711,48.901 74.724,48.901 C74.711,48.571 74.698,48.241 74.686,47.910 C73.497,47.630 72.926,46.521 72.332,45.624 C71.180,43.909 70.028,42.194 68.876,40.479 C63.801,32.935 58.725,25.388 53.650,17.843 C53.637,17.869 53.624,17.894 53.612,17.919 C49.334,25.121 45.055,32.325 40.777,39.527 C42.499,42.284 44.536,44.437 44.536,48.977 C44.537,50.764 45.010,53.944 43.701,54.465 C43.284,54.631 42.533,54.542 41.992,54.541 ZM54.219,3.743 C53.239,4.162 52.552,4.424 52.207,5.458 C51.591,7.303 53.293,9.092 55.130,8.621 C57.874,7.919 57.622,3.666 54.219,3.743 ZM49.890,8.354 C44.512,15.569 39.131,22.785 33.753,29.999 C35.352,30.608 36.795,33.568 37.740,34.992 C38.195,35.678 38.651,36.364 39.107,37.050 C39.119,37.024 39.132,36.999 39.145,36.973 C44.207,28.451 49.271,19.926 54.333,11.403 C53.751,11.263 53.169,11.123 52.586,10.984 C51.222,10.414 50.719,9.455 49.890,8.354 ZM58.814,9.078 C57.599,11.123 56.383,13.169 55.168,15.214 C55.123,15.439 56.153,16.736 56.308,16.967 C57.434,18.643 58.561,20.320 59.687,21.997 C64.129,28.627 68.573,35.259 73.015,41.889 C73.218,41.686 73.420,41.483 73.623,41.280 C74.217,41.021 74.645,40.664 75.407,40.479 C69.877,30.013 64.344,19.545 58.814,9.078 ZM23.007,31.676 C23.007,35.957 23.007,40.238 23.007,44.519 C23.007,45.594 22.741,48.751 23.159,49.397 C23.518,49.952 25.825,50.734 26.652,50.882 C26.652,46.564 26.652,42.245 26.652,37.926 C26.652,36.298 26.267,33.661 28.247,34.077 C29.743,34.392 29.348,36.648 29.348,38.421 C29.348,42.791 29.348,47.161 29.348,51.531 C30.259,51.632 31.171,51.734 32.082,51.836 C35.334,51.836 38.588,51.836 41.840,51.836 C41.867,50.145 42.004,48.140 41.651,46.729 C41.156,44.750 40.122,43.434 39.145,41.966 C38.056,40.327 36.967,38.688 35.879,37.050 C34.835,35.479 33.547,32.678 31.778,31.943 C30.932,31.592 29.626,31.676 28.437,31.676 C26.627,31.676 24.816,31.676 23.007,31.676 ZM17.956,56.942 C25.069,56.942 32.184,56.942 39.296,56.942 C39.296,56.142 39.296,55.341 39.296,54.541 C33.730,54.589 28.863,54.540 24.867,53.131 C23.262,52.565 21.658,52.122 20.842,50.768 C20.071,49.489 20.311,46.966 20.311,44.938 C20.311,40.607 20.311,36.274 20.311,31.943 C17.525,33.076 17.956,35.755 17.956,39.564 C17.956,45.357 17.956,51.150 17.956,56.942 ZM75.939,43.109 C75.555,43.276 75.222,43.373 75.028,43.718 C74.549,44.569 75.313,45.683 76.243,45.509 C77.640,45.248 77.570,43.083 75.939,43.109 ZM15.261,56.942 C15.261,53.182 15.261,49.422 15.261,45.662 C13.235,45.662 11.210,45.662 9.185,45.662 C8.150,45.662 7.187,45.557 6.755,46.157 C6.413,46.632 6.565,47.856 6.565,48.634 C6.565,50.565 6.565,52.496 6.565,54.427 C6.565,55.490 6.475,56.393 7.135,56.790 C7.631,57.087 8.784,56.942 9.527,56.942 C11.438,56.942 13.349,56.942 15.261,56.942 ZM10.172,48.024 C10.744,48.004 11.545,47.936 11.995,48.101 C12.792,48.393 13.192,49.555 12.565,50.311 C12.206,50.743 10.543,50.976 9.755,50.654 C8.909,50.309 8.618,48.876 9.451,48.291 C9.691,48.202 9.932,48.114 10.172,48.024 ZM72.635,51.150 C68.168,52.966 63.699,54.782 59.231,56.599 C59.738,57.018 60.244,57.437 60.750,57.856 C62.172,58.976 63.311,60.355 65.307,60.905 C67.734,61.573 69.793,60.359 71.420,59.686 C72.192,59.366 73.140,59.173 73.775,58.695 C75.704,57.241 74.097,54.635 73.433,53.017 C73.231,52.526 73.054,51.425 72.635,51.150 ZM10.172,51.836 C10.744,51.815 11.545,51.746 11.995,51.912 C12.792,52.205 13.193,53.366 12.565,54.122 C12.206,54.553 10.543,54.787 9.755,54.465 C8.909,54.119 8.618,52.688 9.451,52.102 C9.691,52.013 9.932,51.924 10.172,51.836 ZM20.501,59.647 C20.501,60.435 20.501,61.223 20.501,62.010 C22.968,62.010 25.437,62.010 27.905,62.010 C27.905,61.223 27.905,60.435 27.905,59.647 C25.437,59.647 22.968,59.647 20.501,59.647 ZM8.540,64.716 C8.109,64.792 7.679,64.868 7.249,64.945 C5.826,65.380 4.641,66.286 3.869,67.383 C1.605,70.605 3.131,74.756 5.768,76.377 C8.020,77.762 13.156,77.253 16.741,77.253 C22.133,77.253 27.526,77.253 32.917,77.253 C35.372,77.241 37.828,77.228 40.284,77.215 C42.969,76.715 44.847,74.996 45.486,72.452 C46.308,69.178 44.371,66.632 42.486,65.516 C40.271,64.204 35.572,64.716 32.158,64.716 C24.286,64.716 16.411,64.716 8.540,64.716 ZM8.843,67.079 C11.470,67.072 13.777,69.636 12.640,72.414 C12.072,73.802 10.959,74.621 9.261,74.891 C6.554,75.320 4.384,72.113 5.388,69.556 C5.780,68.556 6.600,67.746 7.590,67.345 C8.008,67.256 8.426,67.168 8.843,67.079 ZM18.982,67.079 C21.684,67.090 23.931,69.714 22.703,72.566 C22.146,73.860 21.002,74.629 19.399,74.891 C16.694,75.331 14.476,72.095 15.526,69.517 C15.970,68.429 16.896,67.587 18.070,67.231 C18.374,67.180 18.678,67.129 18.982,67.079 ZM29.082,67.079 C31.793,67.071 34.053,69.704 32.841,72.528 C32.271,73.857 31.149,74.628 29.500,74.891 C26.798,75.321 24.593,72.079 25.665,69.479 C26.082,68.466 26.980,67.616 28.057,67.269 C28.399,67.206 28.740,67.142 29.082,67.079 ZM39.220,67.079 C41.727,67.072 44.123,69.489 43.056,72.299 C42.502,73.757 41.383,74.612 39.638,74.891 C37.058,75.302 34.810,72.281 35.689,69.746 C36.069,68.651 36.911,67.761 37.967,67.345 C38.385,67.256 38.803,67.168 39.220,67.079 ZM8.881,69.784 C8.606,69.903 8.298,69.952 8.122,70.165 C7.510,70.907 7.970,72.428 9.185,72.185 C10.572,71.908 10.478,69.797 8.881,69.784 ZM19.020,69.784 C18.676,69.922 18.383,69.970 18.184,70.241 C17.616,71.019 18.193,72.392 19.285,72.185 C20.677,71.921 20.614,69.791 19.020,69.784 ZM29.158,69.784 C28.788,69.932 28.497,69.987 28.285,70.280 C27.706,71.080 28.393,72.386 29.424,72.185 C30.803,71.916 30.746,69.792 29.158,69.784 ZM39.258,69.784 C38.882,69.947 38.550,70.030 38.347,70.356 C37.836,71.176 38.565,72.385 39.562,72.185 C40.930,71.910 40.838,69.791 39.258,69.784 Z"/>
</svg>