<svg 
 xmlns="http://www.w3.org/2000/svg"
 xmlns:xlink="http://www.w3.org/1999/xlink"
 width="94px" height="75px">
<path fill-rule="evenodd"  fill="rgb(201, 225, 247)"
 d="M43.458,0.059 C44.849,0.063 45.524,1.295 46.249,1.979 C48.229,3.836 50.209,5.693 52.189,7.549 C54.435,7.549 56.681,7.549 58.927,7.549 C59.886,7.549 61.162,7.416 61.718,7.813 C62.496,8.369 62.196,11.364 62.196,12.706 C62.196,16.771 62.196,20.837 62.196,24.901 C62.196,26.030 62.455,28.852 61.957,29.493 C61.490,30.094 60.518,30.021 59.405,30.021 C57.399,30.021 55.392,30.021 53.385,30.021 C44.323,30.008 35.257,29.995 26.195,29.983 C24.698,29.607 25.198,26.754 25.198,25.014 C25.198,21.100 25.198,17.185 25.198,13.271 C25.198,12.177 24.943,9.074 25.277,8.302 C25.653,7.437 26.772,7.549 28.068,7.549 C30.460,7.549 32.853,7.549 35.245,7.549 C36.813,6.069 38.381,4.588 39.949,3.108 C41.047,2.071 42.043,0.781 43.458,0.059 ZM82.131,25.014 C82.131,39.140 82.131,53.270 82.131,67.396 C83.603,67.380 87.526,67.102 88.310,67.698 C88.443,67.911 88.576,68.124 88.709,68.337 C88.709,70.207 88.709,72.077 88.709,73.945 C88.631,74.222 88.376,74.556 88.151,74.698 C87.518,75.101 85.820,74.887 84.842,74.887 C82.064,74.887 79.286,74.887 76.509,74.887 C75.225,74.887 73.606,75.091 73.080,74.360 C72.704,73.837 72.881,72.516 72.881,71.688 C72.881,70.637 72.579,68.616 73.080,67.923 C73.701,67.065 77.820,67.379 79.459,67.396 C79.459,53.270 79.459,39.140 79.459,25.014 C76.616,25.014 73.771,25.014 70.927,25.014 C69.695,25.014 68.278,25.187 67.778,24.487 C67.326,23.856 67.877,20.425 68.057,19.443 C68.615,14.814 69.173,10.184 69.731,5.555 C70.019,3.975 69.740,0.486 71.167,0.097 C76.216,0.085 81.267,0.072 86.317,0.059 C87.846,0.059 90.477,-0.279 91.141,0.586 C91.688,1.299 91.478,2.899 91.659,3.899 C92.005,6.834 92.350,9.770 92.696,12.706 C93.055,15.642 93.414,18.578 93.772,21.514 C93.968,22.587 94.277,24.246 93.493,24.788 C92.886,25.209 91.260,25.014 90.264,25.014 C87.553,25.014 84.841,25.014 82.131,25.014 ZM70.409,22.493 C77.332,22.493 84.258,22.493 91.181,22.493 C90.410,15.856 89.639,9.218 88.868,2.581 C84.882,2.581 80.894,2.581 76.908,2.581 C76.249,2.581 73.041,2.428 72.761,2.657 C71.977,9.268 71.193,15.881 70.409,22.493 ZM43.657,3.108 C42.102,4.588 40.547,6.069 38.992,7.549 C42.128,7.549 45.266,7.549 48.402,7.549 C46.847,6.069 45.292,4.588 43.737,3.108 C43.710,3.108 43.684,3.108 43.657,3.108 ZM27.869,10.072 C27.869,15.880 27.869,21.690 27.869,27.498 C38.420,27.498 48.974,27.498 59.525,27.498 C59.525,21.690 59.525,15.880 59.525,10.072 C48.974,10.072 38.420,10.072 27.869,10.072 ZM56.894,12.518 C56.894,16.683 56.894,20.849 56.894,25.014 C48.083,25.014 39.271,25.014 30.461,25.014 C30.474,20.849 30.487,16.683 30.500,12.518 C39.297,12.518 48.097,12.518 56.894,12.518 ZM33.132,15.039 C33.132,17.524 33.132,20.008 33.132,22.493 C40.174,22.493 47.219,22.493 54.262,22.493 C54.262,20.008 54.262,17.524 54.262,15.039 C47.219,15.039 40.174,15.039 33.132,15.039 ZM66.143,49.932 C67.486,49.921 70.557,49.675 71.127,50.346 C71.794,51.132 71.446,53.585 71.446,54.900 C71.446,58.927 71.446,62.955 71.446,66.982 C71.446,68.157 71.721,71.207 71.207,71.875 C70.529,72.755 67.704,72.415 66.143,72.403 C66.143,73.230 66.143,74.059 66.143,74.887 C65.266,74.887 64.389,74.887 63.512,74.887 C63.512,74.059 63.512,73.230 63.512,72.403 C50.396,72.403 37.277,72.403 24.161,72.403 C24.161,73.268 24.161,74.134 24.161,74.999 C16.108,74.999 8.053,74.999 0.001,74.999 C0.001,68.915 0.001,62.829 0.001,56.745 C1.462,56.745 2.925,56.745 4.386,56.745 C4.386,53.696 4.386,50.646 4.386,47.598 C9.409,47.598 14.434,47.598 19.457,47.598 C19.457,48.376 19.457,49.154 19.457,49.932 C20.041,49.932 20.626,49.932 21.211,49.932 C21.211,46.318 21.211,42.705 21.211,39.091 C21.211,37.849 20.930,35.815 21.689,35.252 C22.212,34.866 23.400,34.989 24.321,34.989 C26.460,34.989 28.600,34.989 30.740,34.989 C39.124,34.989 47.512,34.989 55.897,34.989 C58.236,34.989 60.575,34.989 62.914,34.989 C63.914,34.989 65.195,34.854 65.744,35.290 C66.437,35.839 66.143,37.937 66.143,39.091 C66.143,42.705 66.143,46.318 66.143,49.932 ZM23.882,37.473 C23.882,41.625 23.882,45.779 23.882,49.932 C25.537,49.919 30.923,49.606 31.537,50.384 C32.072,51.061 31.828,56.015 31.816,57.422 C39.736,57.422 47.658,57.422 55.578,57.422 C55.578,55.791 55.578,54.160 55.578,52.529 C55.578,51.782 55.477,50.855 55.817,50.421 C56.471,49.586 61.779,49.919 63.512,49.932 C63.512,45.779 63.512,41.625 63.512,37.473 C50.303,37.473 37.091,37.473 23.882,37.473 ZM6.778,49.856 C6.778,52.140 6.778,54.424 6.778,56.707 C10.207,56.707 13.636,56.707 17.065,56.707 C17.065,54.424 17.065,52.140 17.065,49.856 C15.749,49.856 14.433,49.856 13.118,49.856 C13.118,50.572 13.118,51.287 13.118,52.002 C12.320,52.002 11.523,52.002 10.725,52.002 C10.725,51.287 10.725,50.572 10.725,49.856 C9.410,49.856 8.094,49.856 6.778,49.856 ZM19.457,52.454 C19.457,53.884 19.457,55.314 19.457,56.745 C21.025,56.745 22.593,56.745 24.161,56.745 C24.161,61.123 24.161,65.503 24.161,69.881 C25.822,69.881 27.484,69.881 29.145,69.881 C29.145,64.072 29.145,58.262 29.145,52.454 C25.916,52.454 22.686,52.454 19.457,52.454 ZM58.249,52.454 C58.249,58.262 58.249,64.072 58.249,69.881 C61.757,69.881 65.266,69.881 68.775,69.881 C68.775,64.072 68.775,58.262 68.775,52.454 C65.266,52.454 61.757,52.454 58.249,52.454 ZM2.393,59.003 C2.393,63.582 2.393,68.162 2.393,72.741 C8.824,72.741 15.258,72.741 21.689,72.741 C21.689,72.716 21.689,72.691 21.689,72.666 C22.015,72.086 21.769,69.643 21.769,68.789 C21.769,65.528 21.769,62.265 21.769,59.003 C18.939,59.003 16.107,59.003 13.277,59.003 C13.277,60.596 13.277,62.190 13.277,63.783 C12.480,63.783 11.682,63.783 10.885,63.783 C10.885,62.190 10.885,60.596 10.885,59.003 C8.054,59.003 5.223,59.003 2.393,59.003 ZM31.816,59.944 C31.816,63.256 31.816,66.569 31.816,69.881 C39.736,69.881 47.658,69.881 55.578,69.881 C55.578,66.569 55.578,63.256 55.578,59.944 C47.658,59.944 39.736,59.944 31.816,59.944 ZM75.512,69.918 C75.512,70.734 75.512,71.549 75.512,72.365 C79.034,72.365 82.556,72.365 86.078,72.365 C86.078,71.549 86.078,70.734 86.078,69.918 C82.556,69.918 79.034,69.918 75.512,69.918 Z"/>
</svg>