<svg 
 xmlns="http://www.w3.org/2000/svg"
 xmlns:xlink="http://www.w3.org/1999/xlink"
 width="84px" height="68px">
<path fill-rule="evenodd"  fill="rgb(201, 225, 247)"
 d="M75.765,44.444 C76.411,44.440 76.879,44.636 77.119,44.997 C77.537,45.626 77.308,49.839 77.297,51.005 C78.319,50.994 79.827,50.841 80.289,51.362 C80.690,51.813 80.610,52.683 80.610,53.506 C80.610,55.097 80.610,56.689 80.610,58.280 C81.904,58.265 83.390,58.108 83.816,58.897 C84.100,59.422 83.959,60.472 83.959,61.203 C83.959,62.600 83.959,63.996 83.959,65.393 C83.959,66.034 84.042,66.819 83.816,67.276 C83.662,67.589 83.271,67.818 82.854,67.893 C63.714,67.915 44.567,67.937 25.427,67.958 C19.632,67.958 13.836,67.958 8.042,67.958 C6.379,67.958 4.716,67.958 3.054,67.958 C2.398,67.958 1.365,68.093 0.845,67.893 C-0.059,67.546 -0.212,65.980 0.632,65.458 C1.081,65.179 1.966,65.404 2.591,65.263 C2.591,65.252 2.591,65.241 2.591,65.230 C2.579,61.821 2.567,58.410 2.555,55.000 C2.555,54.521 2.589,51.774 2.484,51.719 C1.972,52.570 0.582,52.760 0.133,51.719 C-0.108,51.161 0.062,50.100 0.062,49.414 C0.062,47.541 0.062,45.668 0.062,43.795 C0.280,42.939 2.900,41.019 3.660,40.352 C7.020,37.397 10.381,34.441 13.742,31.486 C14.669,30.641 16.577,28.341 18.515,28.628 C20.693,28.950 21.558,30.641 22.969,31.681 C25.842,34.181 28.716,36.683 31.590,39.183 C31.578,34.929 31.566,30.674 31.554,26.419 C31.495,26.473 31.436,26.528 31.376,26.582 C30.721,26.877 30.213,27.616 29.239,26.939 C28.661,26.538 28.740,25.666 28.740,24.731 C28.740,22.674 28.740,20.616 28.740,18.560 C28.906,17.851 29.698,17.452 30.236,17.066 C31.637,15.984 33.039,14.901 34.440,13.818 C34.440,13.082 34.440,12.346 34.440,11.610 C34.440,9.834 34.440,8.058 34.440,6.283 C34.440,5.361 34.354,4.392 34.796,3.880 C35.349,3.241 37.394,3.490 38.608,3.490 C41.819,3.490 42.883,2.858 42.883,5.991 C42.871,6.402 42.859,6.814 42.847,7.225 C43.504,7.036 44.425,6.004 44.985,5.601 C46.576,4.389 48.168,3.176 49.759,1.964 C50.870,1.162 51.693,0.217 53.393,0.015 C55.767,-0.268 58.479,2.697 59.841,3.685 C64.317,7.149 68.795,10.614 73.271,14.078 C74.530,15.052 75.789,16.027 77.048,17.001 C77.515,17.338 78.259,17.717 78.508,18.235 C78.880,19.007 78.651,21.016 78.651,22.067 C78.651,23.767 79.238,27.998 76.834,27.134 C76.489,26.895 76.145,26.657 75.801,26.419 C75.789,26.419 75.777,26.419 75.765,26.419 C75.765,32.427 75.765,38.437 75.765,44.444 ZM53.428,2.678 C51.732,3.492 50.531,4.814 49.082,5.861 C45.864,8.351 42.645,10.841 39.427,13.331 C36.756,15.398 34.083,17.467 31.412,19.534 C31.424,20.725 31.436,21.916 31.447,23.107 C36.743,19.026 42.040,14.943 47.336,10.862 C48.749,9.769 50.163,8.676 51.576,7.582 C52.149,7.169 52.673,6.428 53.499,6.283 C54.426,6.120 54.963,6.959 55.423,7.290 C56.765,8.329 58.107,9.368 59.449,10.408 C64.934,14.641 70.422,18.874 75.908,23.107 C75.919,23.107 75.931,23.107 75.943,23.107 C75.943,21.894 75.943,20.681 75.943,19.469 C70.564,15.323 65.184,11.176 59.805,7.030 C58.475,6.002 57.145,4.973 55.815,3.945 C55.106,3.431 54.708,2.672 53.428,2.678 ZM37.147,6.121 C37.147,7.972 37.147,9.824 37.147,11.675 C38.157,10.895 39.166,10.115 40.175,9.336 C40.175,8.264 40.175,7.193 40.175,6.121 C39.166,6.121 38.157,6.121 37.147,6.121 ZM34.297,65.295 C36.257,65.295 38.216,65.295 40.175,65.295 C40.175,60.695 40.175,56.092 40.175,51.492 C40.175,50.348 39.948,46.824 40.389,46.199 C40.552,45.968 40.888,45.728 41.209,45.646 C43.536,45.635 45.864,45.624 48.191,45.614 C48.901,45.614 49.966,45.476 50.542,45.679 C51.909,46.161 51.433,48.936 51.433,50.615 C51.445,55.508 51.457,60.402 51.469,65.295 C54.793,65.295 58.119,65.295 61.444,65.295 C61.428,63.904 61.188,59.333 61.764,58.670 C62.243,58.119 63.719,58.270 64.793,58.280 C64.793,56.678 64.793,55.075 64.793,53.473 C64.793,52.660 64.716,51.807 65.113,51.362 C65.579,50.841 67.081,50.996 68.106,51.005 C68.091,49.585 67.782,45.246 68.569,44.704 C69.255,44.232 71.875,44.434 73.093,44.444 C73.093,37.733 73.093,31.020 73.093,24.308 C66.622,19.307 60.149,14.304 53.677,9.304 C47.218,14.294 40.757,19.285 34.297,24.276 C34.297,37.948 34.297,51.624 34.297,65.295 ZM41.280,25.965 C43.619,25.965 45.959,25.965 48.298,25.965 C49.341,25.965 50.561,25.838 51.077,26.322 C51.644,26.854 51.433,28.389 51.433,29.407 C51.433,31.886 51.433,34.366 51.433,36.845 C51.433,38.063 51.597,39.248 50.756,39.703 C50.245,39.979 49.017,39.833 48.262,39.833 C45.923,39.833 43.583,39.833 41.244,39.833 C40.876,39.754 40.525,39.480 40.354,39.216 C40.073,38.784 40.175,37.901 40.175,37.234 C40.175,35.741 40.175,34.247 40.175,32.752 C40.175,31.324 40.175,29.894 40.175,28.466 C40.175,27.892 40.087,27.137 40.282,26.712 C40.479,26.285 40.840,26.177 41.280,25.965 ZM57.026,25.965 C59.401,25.965 61.776,25.965 64.151,25.965 C65.296,25.965 66.458,25.839 66.930,26.452 C67.381,27.038 67.179,28.523 67.179,29.472 C67.179,31.929 67.179,34.387 67.179,36.845 C67.179,38.066 67.338,39.242 66.503,39.703 C66.008,39.975 64.815,39.833 64.080,39.833 C61.717,39.833 59.354,39.833 56.991,39.833 C56.658,39.762 56.296,39.517 56.136,39.281 C55.831,38.831 55.922,37.954 55.922,37.234 C55.922,35.730 55.922,34.225 55.922,32.720 C55.922,31.291 55.922,29.862 55.922,28.433 C55.922,27.916 55.819,27.183 55.993,26.777 C56.194,26.307 56.552,26.193 57.026,25.965 ZM42.883,28.595 C42.883,29.126 42.883,29.656 42.883,30.187 C44.842,30.176 46.802,30.165 48.761,30.154 C48.749,29.635 48.737,29.115 48.726,28.595 C46.778,28.595 44.830,28.595 42.883,28.595 ZM58.629,28.595 C58.629,29.126 58.629,29.656 58.629,30.187 C60.589,30.176 62.548,30.165 64.507,30.154 C64.496,29.635 64.484,29.115 64.472,28.595 C62.525,28.595 60.577,28.595 58.629,28.595 ZM18.017,31.291 C16.604,32.013 15.665,33.264 14.490,34.214 C12.186,36.238 9.882,38.263 7.578,40.288 C5.869,41.770 4.158,43.254 2.448,44.737 C2.448,45.960 2.448,47.184 2.448,48.407 C2.674,48.201 2.900,47.995 3.125,47.790 C6.842,44.542 10.560,41.294 14.276,38.046 C15.202,37.234 16.129,36.422 17.055,35.611 C17.355,35.340 17.715,34.772 18.409,34.896 C19.184,35.035 21.580,37.486 22.256,38.079 C25.355,40.785 28.455,43.492 31.554,46.199 C31.566,46.199 31.578,46.199 31.590,46.199 C31.590,44.986 31.590,43.773 31.590,42.561 C28.348,39.736 25.106,36.910 21.864,34.084 C20.911,33.383 19.481,31.296 18.017,31.291 ZM42.883,32.817 C42.883,34.279 42.883,35.741 42.883,37.202 C44.842,37.202 46.802,37.202 48.761,37.202 C48.761,35.741 48.761,34.279 48.761,32.817 C46.802,32.817 44.842,32.817 42.883,32.817 ZM64.507,37.202 C64.496,35.741 64.484,34.279 64.472,32.817 C62.513,32.828 60.553,32.839 58.594,32.850 C58.606,34.300 58.617,35.752 58.629,37.202 C60.589,37.202 62.548,37.202 64.507,37.202 ZM4.942,65.295 C6.676,65.295 8.410,65.295 10.144,65.295 C10.144,61.128 10.144,56.959 10.144,52.791 C10.143,51.352 9.787,49.069 10.820,48.537 C11.206,48.338 12.076,48.439 12.637,48.439 C14.086,48.439 15.535,48.439 16.984,48.439 C19.097,48.439 21.211,48.439 23.325,48.439 C24.188,48.439 25.396,48.311 25.890,48.666 C26.732,49.272 26.389,51.663 26.389,52.986 C26.389,57.089 26.389,61.193 26.389,65.295 C28.122,65.295 29.856,65.295 31.590,65.295 C31.590,61.572 31.590,57.847 31.590,54.123 C31.590,53.183 31.824,50.133 31.519,49.511 C27.102,45.646 22.683,41.781 18.266,37.917 C13.825,41.814 9.383,45.711 4.942,49.608 C4.942,54.837 4.942,60.067 4.942,65.295 ZM70.635,46.815 C70.635,48.212 70.635,49.608 70.635,51.005 C72.012,51.005 73.390,51.005 74.768,51.005 C74.768,49.608 74.768,48.212 74.768,46.815 C74.471,46.815 74.174,46.815 73.877,46.815 C73.809,47.763 71.553,47.698 71.454,46.783 C71.181,46.794 70.908,46.805 70.635,46.815 ZM42.883,48.277 C42.883,53.949 42.883,59.623 42.883,65.295 C44.842,65.295 46.802,65.295 48.761,65.295 C48.761,62.903 48.761,60.510 48.761,58.117 C46.902,58.117 46.906,55.457 48.761,55.455 C48.761,53.062 48.761,50.669 48.761,48.277 C46.802,48.277 44.842,48.277 42.883,48.277 ZM12.495,54.058 C16.330,54.058 20.166,54.058 24.002,54.058 C23.990,53.062 23.978,52.066 23.966,51.070 C20.143,51.081 16.318,51.092 12.495,51.102 C12.495,52.087 12.495,53.073 12.495,54.058 ZM67.322,53.344 C67.322,54.989 67.322,56.635 67.322,58.280 C68.036,58.288 71.079,58.459 71.454,58.215 C71.443,56.591 71.431,54.967 71.419,53.344 C71.146,53.354 70.873,53.365 70.599,53.376 C70.640,54.234 70.334,54.578 69.317,54.577 C69.012,54.577 68.697,54.589 68.498,54.480 C68.078,54.252 68.115,53.796 68.034,53.344 C67.797,53.344 67.559,53.344 67.322,53.344 ZM78.081,58.280 C78.081,56.635 78.081,54.989 78.081,53.344 C77.831,53.344 77.582,53.344 77.333,53.344 C77.373,54.358 76.378,55.035 75.266,54.480 C74.797,54.246 74.878,53.891 74.732,53.344 C74.483,53.344 74.233,53.344 73.984,53.344 C73.972,54.967 73.960,56.591 73.948,58.215 C73.960,58.237 73.972,58.258 73.984,58.280 C75.349,58.280 76.715,58.280 78.081,58.280 ZM12.495,59.677 C16.330,59.677 20.166,59.677 24.002,59.677 C23.990,58.680 23.978,57.685 23.966,56.689 C20.143,56.699 16.318,56.710 12.495,56.721 C12.495,57.706 12.495,58.692 12.495,59.677 ZM63.973,65.555 C65.350,65.555 66.728,65.555 68.106,65.555 C68.094,63.910 68.082,62.264 68.070,60.618 C67.821,60.618 67.571,60.618 67.322,60.618 C67.405,62.418 64.674,62.418 64.757,60.618 C64.496,60.629 64.234,60.640 63.973,60.651 C63.973,62.286 63.973,63.921 63.973,65.555 ZM70.635,60.618 C70.635,62.264 70.635,63.910 70.635,65.555 C72.012,65.555 73.390,65.555 74.768,65.555 C74.756,63.910 74.744,62.264 74.732,60.618 C74.471,60.618 74.209,60.618 73.948,60.618 C74.032,62.439 71.306,62.381 71.383,60.618 C71.134,60.618 70.884,60.618 70.635,60.618 ZM77.297,65.555 C78.674,65.555 80.052,65.555 81.429,65.555 C81.418,63.910 81.406,62.264 81.394,60.618 C81.144,60.618 80.895,60.618 80.646,60.618 C80.729,62.418 77.998,62.418 78.081,60.618 C77.819,60.629 77.558,60.640 77.297,60.651 C77.297,62.286 77.297,63.921 77.297,65.555 ZM12.495,62.340 C12.495,63.325 12.495,64.310 12.495,65.295 C16.330,65.295 20.166,65.295 24.002,65.295 C23.990,64.299 23.978,63.304 23.966,62.307 C20.143,62.318 16.318,62.329 12.495,62.340 Z"/>
</svg>