<svg 
 xmlns="http://www.w3.org/2000/svg"
 xmlns:xlink="http://www.w3.org/1999/xlink"
 width="69px" height="80px">
<path fill-rule="evenodd"  fill="rgb(201, 225, 247)"
 d="M52.411,32.353 C52.401,33.151 52.225,35.024 52.487,35.604 C54.816,37.152 57.146,38.701 59.475,40.249 C59.361,40.688 58.384,42.138 58.055,42.416 C56.174,41.165 54.292,39.913 52.411,38.662 C52.401,39.201 52.288,41.764 52.487,41.990 C54.816,43.577 57.146,45.164 59.475,46.751 C59.450,46.777 59.424,46.802 59.399,46.828 C58.951,47.512 58.503,48.196 58.055,48.880 C56.174,47.616 54.292,46.351 52.411,45.087 C52.411,46.196 52.411,47.306 52.411,48.415 C54.765,50.002 57.121,51.589 59.475,53.175 C59.002,53.885 58.528,54.595 58.055,55.304 C56.186,54.053 54.317,52.802 52.449,51.550 C52.436,51.550 52.423,51.550 52.411,51.550 C52.401,52.089 52.288,54.652 52.487,54.878 C54.816,56.465 57.146,58.052 59.475,59.639 C59.450,59.665 59.424,59.691 59.399,59.717 C58.951,60.387 58.503,61.058 58.055,61.729 C56.174,60.478 54.292,59.226 52.411,57.975 C52.411,59.342 52.411,60.710 52.411,62.077 C53.946,62.157 55.386,62.943 56.365,63.664 C56.685,63.948 57.005,64.232 57.325,64.515 C57.773,64.541 58.221,64.568 58.669,64.593 C59.518,64.750 60.335,64.940 61.050,65.251 C63.878,66.482 65.736,68.891 66.387,72.334 C66.671,73.841 66.469,75.764 66.463,77.404 C67.308,77.404 68.153,77.404 68.998,77.404 C68.998,78.268 68.998,79.133 68.998,79.997 C46.001,79.997 22.997,79.997 0.000,79.997 C0.000,79.133 0.000,78.268 0.000,77.404 C0.845,77.404 1.690,77.404 2.534,77.404 C2.516,75.682 2.331,73.638 2.650,72.102 C3.329,68.829 5.110,66.651 7.756,65.367 C7.986,64.606 8.217,63.845 8.447,63.084 C9.045,61.179 9.712,59.192 10.213,57.356 C10.213,55.782 10.213,54.208 10.213,52.634 C10.213,48.648 10.213,44.660 10.213,40.675 C10.213,38.598 10.003,36.086 10.597,34.560 C11.131,33.187 12.071,32.036 13.247,31.309 C13.938,30.947 14.629,30.586 15.320,30.225 C15.320,29.219 15.320,28.212 15.320,27.206 C14.476,27.206 13.631,27.206 12.786,27.206 C12.770,25.221 12.531,22.616 13.285,21.362 C13.776,20.545 14.592,19.885 15.589,19.581 C16.337,19.354 17.469,19.465 18.392,19.465 C20.350,19.465 22.308,19.465 24.266,19.465 C25.636,12.977 27.005,6.486 28.375,-0.003 C35.183,0.978 41.993,1.959 48.801,2.939 C48.251,5.583 47.701,8.229 47.150,10.873 C48.926,9.518 51.159,8.273 53.831,9.867 C56.192,11.275 57.491,15.356 58.784,17.917 C59.565,19.491 60.346,21.065 61.126,22.639 C61.577,23.532 62.123,24.407 62.432,25.425 C63.364,28.500 61.324,31.076 59.360,31.928 C57.705,32.645 54.704,32.365 52.411,32.353 ZM30.371,2.900 C29.463,7.248 28.554,11.596 27.645,15.944 C27.446,16.765 26.537,20.006 26.839,20.510 C28.490,21.326 28.120,24.720 28.106,27.206 C27.261,27.206 26.416,27.206 25.572,27.206 C25.572,28.225 25.572,29.244 25.572,30.264 C26.706,30.808 28.117,31.378 28.874,32.315 C29.219,32.792 29.565,33.269 29.911,33.747 C31.966,33.615 33.153,33.753 34.595,34.482 C35.893,33.642 37.804,33.582 39.625,33.863 C39.906,32.509 40.188,31.154 40.469,29.799 C40.329,29.567 40.188,29.334 40.047,29.102 C39.658,28.193 39.422,26.748 39.740,25.581 C40.375,23.252 42.038,21.482 42.735,19.272 C43.733,14.550 44.732,9.827 45.730,5.106 C40.611,4.371 35.490,3.636 30.371,2.900 ZM42.159,6.577 C42.159,7.442 42.159,8.306 42.159,9.170 C41.301,9.170 40.444,9.170 39.586,9.170 C39.599,8.306 39.612,7.442 39.625,6.577 C40.469,6.577 41.314,6.577 42.159,6.577 ZM31.946,7.855 C32.803,7.867 33.661,7.880 34.518,7.893 C34.518,8.744 34.518,9.596 34.518,10.447 C33.661,10.447 32.803,10.447 31.946,10.447 C31.946,9.583 31.946,8.719 31.946,7.855 ZM49.838,16.911 C49.838,15.311 49.838,13.712 49.838,12.112 C48.559,12.479 48.059,14.402 47.496,15.518 C45.768,18.988 44.040,22.459 42.312,25.929 C41.704,27.690 42.878,29.219 44.117,29.644 C45.118,29.987 46.824,29.760 48.033,29.760 C50.286,29.760 52.539,29.760 54.791,29.760 C55.842,29.760 57.234,29.921 58.093,29.644 C58.737,29.436 59.344,28.908 59.667,28.367 C60.517,26.946 59.647,25.365 59.091,24.264 C57.671,21.427 56.250,18.588 54.830,15.750 C54.174,14.452 53.720,12.794 52.449,12.112 C52.436,12.112 52.423,12.112 52.411,12.112 C52.398,13.712 52.385,15.311 52.372,16.911 C51.528,16.911 50.683,16.911 49.838,16.911 ZM37.052,15.595 C37.052,16.459 37.052,17.324 37.052,18.188 C36.195,18.188 35.337,18.188 34.480,18.188 C34.492,17.324 34.505,16.459 34.518,15.595 C35.363,15.595 36.208,15.595 37.052,15.595 ZM15.359,24.613 C18.750,24.613 22.142,24.613 25.533,24.613 C25.548,23.726 25.625,22.765 25.150,22.368 C24.344,21.696 19.572,22.058 18.008,22.058 C17.139,22.058 16.212,21.972 15.742,22.368 C15.270,22.766 15.344,23.726 15.359,24.613 ZM35.785,24.613 C36.643,24.626 37.500,24.639 38.358,24.652 C38.358,25.503 38.358,26.355 38.358,27.206 C37.500,27.206 36.643,27.206 35.785,27.206 C35.785,26.342 35.785,25.477 35.785,24.613 ZM53.447,24.613 C55.250,24.542 55.368,26.891 53.870,27.206 C52.733,27.445 51.999,26.070 52.564,25.193 C52.768,24.877 53.091,24.784 53.447,24.613 ZM17.893,27.206 C17.893,28.767 17.893,30.328 17.893,31.889 C17.278,32.198 16.664,32.508 16.050,32.818 C14.121,33.809 12.748,34.497 12.786,37.501 C16.165,37.501 19.544,37.501 22.923,37.501 C23.857,36.856 24.791,36.211 25.725,35.566 C26.276,35.243 26.826,34.921 27.376,34.598 C26.682,33.527 24.315,32.328 22.999,31.889 C22.999,30.328 22.999,28.767 22.999,27.206 C21.297,27.206 19.595,27.206 17.893,27.206 ZM30.640,28.483 C31.510,28.483 32.381,28.483 33.251,28.483 C33.238,29.347 33.225,30.212 33.213,31.076 C32.355,31.063 31.498,31.050 30.640,31.038 C30.640,30.186 30.640,29.334 30.640,28.483 ZM49.838,32.353 C47.970,32.341 46.101,32.328 44.232,32.315 C43.708,32.147 43.183,31.979 42.658,31.811 C42.615,32.370 41.940,34.629 42.121,34.869 C43.234,35.617 44.348,36.366 45.461,37.114 C45.716,37.284 46.373,37.785 46.613,37.656 C47.688,36.933 48.763,36.211 49.838,35.488 C49.838,34.444 49.838,33.398 49.838,32.353 ZM25.572,47.796 C23.794,47.826 22.545,47.318 21.463,46.635 C20.845,46.244 20.249,45.588 19.390,45.473 C18.981,47.538 18.571,49.602 18.161,51.666 C22.756,51.666 27.351,51.666 31.946,51.666 C31.946,52.530 31.946,53.395 31.946,54.259 C28.388,54.259 24.829,54.259 21.271,54.259 C19.010,54.259 16.839,54.168 15.435,54.995 C12.868,56.507 12.515,58.555 11.557,61.652 C11.263,62.632 10.969,63.613 10.674,64.593 C11.634,64.568 12.594,64.541 13.554,64.515 C15.678,64.515 17.803,64.515 19.928,64.515 C21.387,64.529 22.846,64.541 24.305,64.554 C24.292,65.418 24.279,66.283 24.266,67.148 C21.144,67.148 18.020,67.148 14.898,67.148 C13.364,67.148 11.434,66.932 10.098,67.263 C8.725,67.604 7.447,68.348 6.681,69.315 C5.037,71.392 5.094,73.644 5.107,77.404 C24.700,77.404 44.298,77.404 63.891,77.404 C63.934,73.110 63.944,70.536 61.549,68.657 C60.944,68.182 60.259,67.620 59.360,67.457 C59.360,67.470 59.360,67.483 59.360,67.496 C60.111,69.391 60.049,72.094 60.051,74.850 C56.254,74.911 53.786,73.908 52.142,71.831 C51.808,71.409 51.337,71.033 51.144,70.476 C51.105,70.502 51.067,70.528 51.028,70.553 C50.851,71.046 50.442,71.376 50.145,71.753 C48.451,73.907 46.042,74.851 42.159,74.850 C42.143,73.014 41.952,70.787 42.312,69.199 C43.082,65.813 46.008,62.271 49.838,62.077 C49.825,60.710 49.812,59.342 49.800,57.975 C47.906,59.226 46.011,60.478 44.117,61.729 C43.656,61.032 43.195,60.336 42.735,59.639 C42.760,59.601 42.786,59.562 42.812,59.523 C45.154,57.949 47.496,56.375 49.838,54.802 C49.838,53.705 49.838,52.608 49.838,51.511 C47.931,52.776 46.024,54.040 44.117,55.304 C43.656,54.582 43.195,53.859 42.735,53.137 C45.102,51.551 47.471,49.963 49.838,48.376 C49.825,47.280 49.812,46.183 49.800,45.087 C49.774,45.113 49.748,45.138 49.723,45.164 C47.854,46.403 45.985,47.641 44.117,48.880 C43.656,48.170 43.195,47.461 42.735,46.751 C45.102,45.151 47.471,43.552 49.838,41.952 C49.825,40.855 49.812,39.758 49.800,38.662 C47.906,39.913 46.011,41.165 44.117,42.416 C43.656,41.720 43.195,41.023 42.735,40.326 C42.760,40.287 42.786,40.249 42.812,40.210 C43.247,39.913 43.682,39.617 44.117,39.320 C44.117,39.307 44.117,39.294 44.117,39.281 C42.381,38.557 40.152,35.745 37.398,36.224 C36.169,36.437 35.400,37.254 34.365,37.501 C30.798,34.120 26.557,38.325 23.998,39.901 C22.480,40.834 21.086,41.396 20.273,43.036 C21.466,43.236 22.352,44.159 23.268,44.700 C23.937,45.094 24.672,44.992 25.572,45.241 C25.572,46.093 25.572,46.945 25.572,47.796 ZM38.358,42.649 C36.477,42.641 35.623,43.531 34.480,44.235 C33.787,44.662 33.062,44.879 32.138,45.087 C31.743,45.176 31.087,45.324 30.640,45.203 C30.640,44.351 30.640,43.500 30.640,42.649 C32.473,42.674 33.303,41.820 34.403,41.139 C35.147,40.678 35.901,40.435 36.899,40.210 C37.279,40.125 37.942,39.983 38.358,40.094 C38.358,40.946 38.358,41.797 38.358,42.649 ZM12.786,40.094 C12.786,44.635 12.786,49.177 12.786,53.717 C13.657,53.165 14.467,52.660 15.474,52.169 C15.704,51.009 15.935,49.847 16.165,48.686 C16.610,46.797 16.732,44.726 17.394,43.036 C17.838,41.899 18.524,41.024 19.198,40.133 C19.198,40.120 19.198,40.107 19.198,40.094 C17.061,40.094 14.923,40.094 12.786,40.094 ZM39.625,56.814 C36.411,56.816 35.717,59.392 31.946,59.407 C31.946,58.542 31.946,57.678 31.946,56.814 C33.787,56.836 34.633,55.953 35.747,55.266 C36.465,54.823 37.206,54.592 38.166,54.375 C38.543,54.291 39.216,54.151 39.625,54.259 C39.625,55.110 39.625,55.963 39.625,56.814 ZM21.732,58.091 C25.358,58.032 26.089,60.616 29.411,60.684 C29.399,61.548 29.386,62.413 29.373,63.277 C25.650,63.297 24.958,60.705 21.732,60.684 C21.732,59.820 21.732,58.955 21.732,58.091 ZM49.838,64.709 C49.068,64.746 48.436,65.128 47.918,65.445 C45.754,66.768 44.704,68.561 44.731,72.140 C48.062,71.112 49.865,69.140 49.838,64.709 ZM52.411,64.709 C52.365,69.237 54.159,71.029 57.479,72.140 C57.521,68.623 56.490,66.776 54.369,65.483 C53.833,65.156 53.188,64.767 52.411,64.709 ZM30.640,65.831 C33.493,65.783 34.502,67.229 36.361,68.038 C36.950,68.294 37.628,68.224 38.358,68.425 C38.358,69.276 38.358,70.128 38.358,70.979 C35.496,71.028 34.498,69.582 32.637,68.773 C32.044,68.516 31.371,68.587 30.640,68.386 C30.640,67.535 30.640,66.683 30.640,65.831 ZM22.999,69.702 C26.742,69.636 27.361,72.249 30.679,72.256 C30.679,73.120 30.679,73.985 30.679,74.850 C26.944,74.902 26.338,72.342 22.999,72.295 C22.999,71.431 22.999,70.566 22.999,69.702 Z"/>
</svg>