<svg 
 xmlns="http://www.w3.org/2000/svg"
 xmlns:xlink="http://www.w3.org/1999/xlink"
 width="20px" height="20px">
<path fill-rule="evenodd"  fill="rgb(83, 126, 166)"
 d="M15.613,19.999 C15.617,19.607 15.621,19.214 15.625,18.822 C16.411,18.822 17.197,18.822 17.983,18.822 L13.305,14.127 L14.142,13.287 L18.834,17.996 C18.834,17.197 18.834,16.399 18.834,15.601 C19.222,15.601 19.611,15.601 20.000,15.601 C20.000,17.067 20.000,18.533 20.000,19.999 C18.538,19.999 17.075,19.999 15.613,19.999 ZM18.831,1.963 L14.108,6.702 L13.271,5.862 L17.943,1.174 C17.162,1.171 16.381,1.168 15.601,1.165 C15.601,0.777 15.601,0.388 15.601,-0.000 C17.067,-0.000 18.534,-0.000 20.000,-0.000 C20.000,1.461 20.000,2.924 20.000,4.387 C19.607,4.383 19.214,4.379 18.822,4.375 C18.825,3.571 18.828,2.767 18.831,1.963 ZM4.387,18.834 C4.387,19.222 4.387,19.611 4.387,19.999 C2.925,19.999 1.462,19.999 0.000,19.999 C0.000,18.533 0.000,17.067 0.000,15.601 C0.393,15.605 0.785,15.608 1.178,15.612 C1.175,16.433 1.172,17.254 1.169,18.074 L5.906,13.320 L6.743,14.160 L2.094,18.825 C2.859,18.828 3.623,18.831 4.387,18.834 ZM5.874,6.735 L1.166,2.011 C1.166,2.803 1.166,3.595 1.166,4.387 C0.777,4.387 0.389,4.387 0.000,4.387 C0.000,2.924 0.000,1.461 0.000,-0.000 C1.466,-0.000 2.933,-0.000 4.399,-0.000 C4.395,0.392 4.391,0.785 4.387,1.177 C3.595,1.177 2.802,1.177 2.010,1.177 L6.711,5.895 L5.874,6.735 ZM1.166,1.177 C1.166,1.182 1.166,1.186 1.166,1.190 L1.179,1.177 C1.174,1.177 1.170,1.177 1.166,1.177 Z"/>
</svg>