<svg 
 xmlns="http://www.w3.org/2000/svg"
 xmlns:xlink="http://www.w3.org/1999/xlink"
 width="25px" height="17px">
<path fill-rule="evenodd"  fill="rgb(83, 126, 166)"
 d="M14.218,8.512 C16.399,8.491 17.216,9.654 18.045,10.997 C18.228,11.275 18.411,11.553 18.594,11.830 C18.605,11.830 18.615,11.830 18.626,11.830 C18.764,10.877 19.500,9.100 20.790,9.869 C21.177,10.100 21.479,10.518 21.791,10.833 C22.480,11.531 23.169,12.228 23.858,12.926 C24.295,13.367 25.248,13.943 24.940,14.936 C24.576,16.109 21.647,16.655 20.273,16.064 C19.923,15.913 19.588,15.682 19.336,15.426 C19.240,15.306 19.143,15.186 19.046,15.067 C18.864,14.981 18.211,15.010 17.980,14.952 C17.438,14.815 17.024,14.527 16.559,14.364 C16.497,16.009 14.591,17.457 12.716,16.865 C11.682,16.538 10.918,15.712 10.681,14.576 C9.842,14.576 9.002,14.576 8.162,14.576 C8.004,16.086 6.153,17.439 4.335,16.865 C3.303,16.538 2.540,15.707 2.300,14.576 C1.718,14.572 1.315,14.270 1.138,13.857 C0.978,13.484 1.041,12.823 1.041,12.304 C1.041,11.237 1.041,10.169 1.041,9.101 C1.041,8.493 0.922,7.418 1.089,6.927 C1.391,6.042 2.240,6.084 3.431,6.094 C3.436,5.282 3.441,4.470 3.447,3.658 C3.845,3.664 4.244,3.669 4.642,3.675 C4.642,4.481 4.642,5.287 4.642,6.094 C5.040,6.088 5.438,6.083 5.837,6.077 C5.831,4.465 5.826,2.852 5.821,1.239 C5.571,1.244 5.189,1.288 4.997,1.207 C4.623,1.048 4.508,0.411 4.868,0.144 C5.181,-0.088 6.499,0.030 7.048,0.030 C8.894,0.035 10.741,0.041 12.587,0.046 C12.966,0.159 13.154,0.688 12.877,1.043 C12.700,1.271 12.303,1.247 11.892,1.239 C12.474,3.021 13.055,4.803 13.636,6.584 C13.844,7.184 14.171,7.812 14.218,8.512 ZM7.032,1.239 C7.032,3.664 7.032,6.088 7.032,8.512 C9.023,8.512 11.015,8.512 13.007,8.512 C12.210,6.088 11.413,3.664 10.617,1.239 C9.422,1.239 8.227,1.239 7.032,1.239 ZM2.236,7.303 C2.236,9.319 2.236,11.335 2.236,13.350 C2.257,13.350 2.279,13.350 2.300,13.350 C2.580,12.068 3.463,11.224 4.755,10.964 C5.111,10.893 5.545,11.000 5.837,10.981 C5.831,9.755 5.826,8.529 5.821,7.303 C4.626,7.303 3.431,7.303 2.236,7.303 ZM7.032,9.722 C7.028,10.000 6.968,11.458 7.064,11.569 C7.520,12.147 8.008,12.412 8.162,13.350 C9.002,13.350 9.842,13.350 10.681,13.350 C10.681,13.340 10.681,13.329 10.681,13.318 C10.746,13.116 10.810,12.914 10.875,12.713 C11.242,11.861 12.007,11.211 13.007,10.997 C13.007,10.572 13.007,10.147 13.007,9.722 C11.015,9.722 9.023,9.722 7.032,9.722 ZM14.218,9.722 C14.218,10.147 14.218,10.572 14.218,10.997 C14.228,10.997 14.239,10.997 14.250,10.997 C14.422,11.051 14.594,11.106 14.767,11.160 C15.089,11.298 15.367,11.508 15.622,11.716 C15.879,11.925 16.018,12.234 16.220,12.500 C16.684,13.112 17.562,13.715 18.529,13.792 C18.529,13.786 18.529,13.781 18.529,13.775 C18.395,13.292 17.755,12.740 17.463,12.321 C16.621,11.110 16.227,9.720 14.218,9.722 ZM20.192,10.948 C19.778,11.871 19.359,13.500 20.063,14.429 C20.704,15.275 22.245,15.189 23.277,14.772 C23.438,14.713 23.600,14.652 23.761,14.593 C23.745,14.560 23.729,14.527 23.713,14.494 C23.460,14.238 23.207,13.982 22.954,13.726 C22.033,12.800 21.113,11.874 20.192,10.948 ZM5.142,12.141 C4.992,12.168 4.841,12.195 4.690,12.223 C4.227,12.372 3.798,12.743 3.608,13.170 C2.966,14.620 4.093,15.753 5.336,15.786 C6.346,15.812 7.313,14.611 6.967,13.465 C6.739,12.709 6.123,12.133 5.142,12.141 ZM13.523,12.141 C13.356,12.174 13.190,12.207 13.023,12.239 C12.499,12.441 12.107,12.836 11.908,13.367 C11.442,14.611 12.599,15.941 13.717,15.786 C14.480,15.680 15.008,15.300 15.267,14.691 C15.828,13.371 14.796,12.131 13.523,12.141 Z"/>
</svg>