<svg 
 xmlns="http://www.w3.org/2000/svg"
 xmlns:xlink="http://www.w3.org/1999/xlink"
 width="17px" height="20px">
<path fill-rule="evenodd"  fill="rgb(83, 126, 166)"
 d="M6.746,1.656 C6.954,1.648 7.266,1.618 7.342,1.748 C7.464,1.873 7.432,2.627 7.302,2.700 C7.209,2.785 6.922,2.756 6.746,2.752 C6.746,2.839 6.746,2.926 6.746,3.013 C6.978,3.060 7.188,3.216 7.368,3.325 C8.279,3.877 8.990,4.640 9.394,5.686 C9.479,5.904 9.875,7.120 9.566,7.251 C9.566,7.255 9.566,7.259 9.566,7.264 C10.519,7.036 11.440,7.371 11.659,8.111 C11.755,8.439 11.690,8.959 11.685,9.337 C12.133,9.545 12.617,9.737 12.864,10.146 C13.081,10.504 13.010,11.215 13.010,11.775 C13.010,11.967 13.010,12.158 13.010,12.349 C12.921,12.540 12.833,12.732 12.745,12.923 C12.824,13.079 12.904,13.236 12.983,13.393 C13.176,13.944 12.900,14.571 12.745,14.879 C12.824,15.035 12.904,15.192 12.983,15.348 C13.166,15.912 12.906,16.502 12.745,16.822 C12.833,17.013 12.921,17.205 13.010,17.396 C13.010,17.852 13.010,18.309 13.010,18.765 C13.316,18.559 13.812,18.409 14.268,18.595 C14.419,18.657 14.539,18.835 14.678,18.882 C14.977,18.983 15.667,18.853 15.764,18.726 C15.950,18.482 15.860,17.770 15.857,17.369 C15.256,17.369 14.656,17.369 14.056,17.369 C13.773,17.369 13.430,17.401 13.261,17.291 C13.193,17.062 13.200,16.592 13.248,16.378 C13.529,16.178 15.302,16.272 15.857,16.274 C15.857,15.739 15.857,15.312 15.857,14.775 C15.217,14.775 14.576,14.775 13.937,14.775 C13.713,14.775 13.361,14.825 13.274,14.683 C13.146,14.551 13.201,13.859 13.301,13.718 C13.527,13.655 13.887,13.679 14.175,13.679 C14.731,13.679 15.287,13.679 15.843,13.679 C15.703,13.230 15.422,12.707 15.526,12.088 C15.561,11.901 15.596,11.715 15.632,11.528 C14.903,11.528 14.175,11.528 13.447,11.528 C13.371,11.504 13.285,11.483 13.248,11.423 C13.136,11.243 13.216,10.592 13.301,10.471 C13.527,10.408 13.887,10.432 14.175,10.432 C14.735,10.432 15.296,10.432 15.857,10.432 C15.858,9.914 15.855,9.424 15.830,8.920 C15.221,8.920 14.612,8.920 14.003,8.920 C13.805,8.920 13.426,8.971 13.301,8.881 C13.192,8.802 13.153,8.065 13.261,7.942 C13.342,7.787 13.622,7.824 13.857,7.824 C14.404,7.824 14.952,7.824 15.499,7.824 C15.499,7.820 15.499,7.816 15.499,7.811 C15.270,7.345 14.935,6.946 14.638,6.533 C14.502,6.342 14.365,6.151 14.228,5.960 C14.113,5.636 14.204,5.073 14.201,4.695 C13.914,4.695 13.628,4.695 13.341,4.695 C13.348,5.084 13.423,5.684 13.301,5.999 C13.160,6.190 13.018,6.381 12.877,6.572 C12.614,6.938 12.396,7.342 12.109,7.694 C11.949,7.890 11.203,7.494 11.142,7.342 C11.056,7.126 11.288,6.924 11.367,6.807 C11.654,6.407 11.941,6.007 12.228,5.607 C12.228,5.477 12.228,5.347 12.228,5.216 C12.228,4.594 12.103,3.809 12.573,3.638 C12.764,3.569 13.103,3.613 13.341,3.613 C14.037,3.613 15.082,3.449 15.287,3.951 C15.396,4.217 15.314,4.940 15.314,5.282 C15.314,5.390 15.314,5.499 15.314,5.607 C15.508,5.868 15.702,6.129 15.896,6.390 C16.280,6.923 16.609,7.453 16.823,8.164 C16.989,8.714 16.969,9.420 16.969,10.132 C16.969,10.468 16.992,10.825 16.929,11.110 C16.832,11.454 16.735,11.797 16.638,12.140 C16.552,12.652 16.838,13.034 16.929,13.432 C17.054,13.975 16.969,14.724 16.969,15.335 C16.969,16.061 16.969,16.787 16.969,17.513 C16.969,19.062 16.847,19.754 15.473,19.965 C15.155,19.965 14.837,19.965 14.519,19.965 C14.198,19.899 14.006,19.750 13.791,19.586 C13.725,19.617 13.658,19.647 13.592,19.677 C13.364,19.722 13.069,19.288 12.930,19.182 C12.704,20.203 11.113,19.978 9.858,19.978 C9.584,19.978 9.310,19.978 9.037,19.978 C7.214,19.978 7.269,19.307 7.276,17.565 C7.277,17.243 7.415,17.043 7.540,16.835 C7.419,16.472 7.141,16.089 7.276,15.453 C7.364,15.253 7.452,15.053 7.540,14.853 C7.335,14.593 7.135,13.917 7.302,13.405 C7.381,13.240 7.461,13.075 7.540,12.910 C7.433,12.773 7.313,12.536 7.276,12.349 C7.276,12.162 7.276,11.975 7.276,11.788 C7.276,11.329 7.213,10.742 7.329,10.367 C7.379,10.204 7.482,10.047 7.580,9.924 C7.823,9.619 8.320,9.591 8.600,9.324 C8.586,8.207 8.606,7.518 9.500,7.290 C9.500,7.285 9.500,7.281 9.500,7.277 C9.260,7.286 8.743,7.413 8.640,7.237 C8.515,7.096 8.548,6.689 8.494,6.494 C8.389,6.118 8.235,5.753 8.044,5.451 C7.719,4.939 7.251,4.508 6.719,4.199 C6.399,4.013 5.795,3.950 5.660,3.586 C5.583,3.379 5.632,3.007 5.633,2.752 C5.121,2.752 4.609,2.752 4.097,2.752 C4.098,3.046 4.148,3.472 4.031,3.665 C3.896,3.888 3.611,3.922 3.356,4.030 C3.080,4.146 2.804,4.315 2.574,4.486 C1.745,5.102 1.135,6.075 1.131,7.498 C2.866,7.498 4.601,7.498 6.335,7.498 C6.843,7.498 8.041,7.390 8.348,7.590 C8.401,7.765 8.464,8.421 8.322,8.541 C8.144,8.692 6.811,8.607 6.441,8.607 C4.671,8.607 2.901,8.607 1.131,8.607 C1.131,10.623 1.131,12.640 1.131,14.657 C2.561,14.657 3.992,14.657 5.422,14.657 C5.708,14.657 6.812,14.585 6.958,14.697 C7.137,14.781 7.148,15.602 6.971,15.700 C6.834,15.821 5.742,15.752 5.448,15.752 C4.009,15.752 2.570,15.752 1.131,15.752 C1.125,16.362 1.027,17.212 1.197,17.709 C1.430,18.385 2.270,19.161 3.290,18.817 C3.798,18.645 4.065,18.311 4.680,18.204 C5.474,18.066 5.849,18.587 6.335,18.778 C6.571,18.870 6.893,18.849 7.064,18.999 C7.093,19.265 7.131,19.863 6.931,19.951 C6.829,19.997 6.637,19.956 6.547,19.938 C6.156,19.863 5.843,19.794 5.554,19.625 C5.371,19.519 5.219,19.335 4.971,19.300 C4.535,19.236 4.089,19.688 3.740,19.821 C2.788,20.184 1.675,19.834 1.078,19.391 C0.572,19.015 0.221,18.435 0.058,17.722 C-0.028,17.343 0.019,16.841 0.019,16.405 C0.019,15.535 0.019,14.666 0.019,13.797 C0.019,12.228 0.019,10.658 0.019,9.089 C0.019,8.234 -0.062,7.245 0.098,6.507 C0.346,5.364 0.898,4.422 1.687,3.808 C2.045,3.529 2.478,3.121 2.985,3.013 C2.985,2.926 2.985,2.839 2.985,2.752 C2.777,2.760 2.465,2.790 2.389,2.661 C2.266,2.536 2.299,1.781 2.429,1.709 C2.522,1.623 2.809,1.652 2.985,1.656 C2.979,1.206 2.901,0.501 3.104,0.235 C3.370,-0.113 5.027,0.026 5.686,0.026 C6.017,0.026 6.347,0.006 6.534,0.144 C6.842,0.372 6.752,1.131 6.746,1.656 ZM4.097,1.122 C4.097,1.300 4.097,1.478 4.097,1.656 C4.609,1.656 5.121,1.656 5.633,1.656 C5.633,1.478 5.633,1.300 5.633,1.122 C5.121,1.122 4.609,1.122 4.097,1.122 ZM9.513,7.264 C9.522,7.268 9.531,7.272 9.540,7.277 C9.531,7.272 9.522,7.268 9.513,7.264 ZM9.977,8.281 C9.898,8.311 9.818,8.341 9.739,8.372 C9.739,8.376 9.739,8.381 9.739,8.385 C9.748,8.385 9.756,8.385 9.765,8.385 C9.939,8.523 10.385,8.501 10.546,8.372 C10.383,8.310 10.231,8.279 9.977,8.281 ZM10.573,9.532 C10.306,9.555 9.960,9.602 9.712,9.520 C9.713,10.213 9.121,10.308 8.666,10.537 C8.573,10.584 8.451,10.603 8.401,10.693 C8.397,11.180 8.392,11.667 8.388,12.153 C8.463,12.406 8.798,12.646 8.719,13.014 C8.648,13.347 8.240,13.610 8.388,14.110 C8.462,14.360 8.794,14.596 8.719,14.957 C8.649,15.294 8.242,15.561 8.388,16.053 C8.458,16.290 8.664,16.477 8.719,16.743 C8.794,17.106 8.462,17.340 8.388,17.591 C8.392,18.004 8.397,18.417 8.401,18.830 C8.423,18.847 8.445,18.865 8.467,18.882 C9.593,18.878 10.719,18.874 11.844,18.869 C11.862,18.847 11.880,18.826 11.897,18.804 C11.904,18.366 11.994,17.597 11.765,17.369 C11.072,17.369 10.379,17.369 9.686,17.369 C9.457,17.369 9.073,17.424 8.984,17.278 C8.894,17.185 8.878,16.503 8.971,16.391 C9.060,16.221 9.429,16.274 9.686,16.274 C10.383,16.274 11.081,16.274 11.778,16.274 C11.895,16.052 11.974,15.628 11.765,15.427 C11.103,15.427 10.440,15.427 9.778,15.427 C9.550,15.427 9.150,15.478 9.010,15.375 C8.871,15.271 8.875,14.468 9.024,14.384 C9.144,14.278 9.552,14.331 9.765,14.331 C10.436,14.331 11.107,14.331 11.778,14.331 C11.896,14.108 11.975,13.674 11.765,13.471 C11.072,13.471 10.379,13.471 9.686,13.471 C9.457,13.471 9.073,13.524 8.984,13.379 C8.894,13.286 8.878,12.604 8.971,12.493 C9.061,12.322 9.428,12.375 9.686,12.375 C10.383,12.375 11.081,12.375 11.778,12.375 C11.818,12.301 11.857,12.228 11.897,12.153 C11.943,11.993 11.901,10.720 11.857,10.641 C11.625,10.571 10.832,10.204 10.705,10.041 C10.609,9.917 10.569,9.757 10.573,9.532 Z"/>
</svg>