<svg 
 xmlns="http://www.w3.org/2000/svg"
 xmlns:xlink="http://www.w3.org/1999/xlink"
 width="19px" height="20px">
<path fill-rule="evenodd"  fill="rgb(83, 126, 166)"
 d="M9.966,-0.000 C10.251,0.001 10.465,0.134 10.555,0.328 C10.692,0.625 10.612,1.849 10.607,2.298 C11.044,1.869 11.480,1.440 11.917,1.011 C12.220,0.841 12.586,1.029 12.716,1.235 C12.966,1.631 12.608,1.959 12.414,2.154 C11.812,2.762 11.209,3.371 10.607,3.979 C10.607,4.597 10.607,5.214 10.607,5.832 C11.275,5.267 11.943,4.702 12.611,4.137 C12.832,3.962 13.147,3.599 13.554,3.848 C13.893,4.056 13.843,4.497 13.750,4.938 C13.602,5.766 13.453,6.593 13.305,7.421 C13.846,7.101 14.387,6.782 14.928,6.462 C15.142,5.687 15.356,4.912 15.570,4.137 C15.693,3.725 15.710,3.379 16.159,3.297 C16.337,3.264 16.476,3.341 16.565,3.402 C16.696,3.491 16.791,3.600 16.827,3.782 C16.873,4.014 16.758,4.225 16.709,4.387 C16.600,4.802 16.491,5.219 16.382,5.635 C16.386,5.635 16.391,5.635 16.395,5.635 C16.863,5.400 18.210,4.261 18.661,5.004 C18.756,5.161 18.761,5.465 18.661,5.621 C18.524,5.835 17.277,6.546 16.984,6.659 C16.984,6.668 16.984,6.677 16.984,6.685 C17.320,6.731 18.731,7.111 18.870,7.289 C19.069,7.546 19.013,7.981 18.778,8.156 C18.499,8.365 18.094,8.211 17.796,8.117 C17.050,7.916 16.303,7.714 15.557,7.513 C15.406,7.496 15.181,7.711 15.073,7.775 C14.693,7.990 14.313,8.204 13.933,8.419 C13.938,8.428 13.942,8.436 13.946,8.445 C14.776,8.743 15.605,9.041 16.434,9.338 C16.740,9.458 17.173,9.562 17.089,10.048 C17.011,10.497 16.668,10.531 16.290,10.678 C15.500,10.967 14.710,11.256 13.920,11.545 C13.920,11.549 13.920,11.554 13.920,11.558 C13.929,11.558 13.938,11.558 13.946,11.558 C14.466,11.860 14.985,12.162 15.505,12.465 C15.719,12.408 15.932,12.351 16.146,12.294 C16.753,12.127 17.360,11.961 17.967,11.795 C18.181,11.730 18.503,11.644 18.713,11.768 C18.998,11.938 19.108,12.388 18.870,12.688 C18.739,12.853 17.292,13.255 16.971,13.292 C16.980,13.296 16.989,13.301 16.998,13.305 C17.408,13.546 17.818,13.786 18.228,14.027 C18.357,14.103 18.519,14.150 18.608,14.264 C18.737,14.427 18.803,14.746 18.674,14.960 C18.582,15.112 18.359,15.304 18.071,15.249 C17.815,15.200 17.615,15.026 17.417,14.907 C17.076,14.715 16.736,14.522 16.395,14.330 C16.395,14.343 16.395,14.356 16.395,14.369 C16.496,14.641 16.900,15.918 16.840,16.208 C16.789,16.457 16.529,16.750 16.173,16.681 C15.713,16.590 15.696,16.214 15.570,15.788 C15.361,15.021 15.151,14.255 14.942,13.489 C14.400,13.182 13.859,12.876 13.318,12.569 C13.471,13.401 13.623,14.233 13.776,15.065 C13.865,15.499 13.904,15.923 13.580,16.129 C13.187,16.379 12.863,16.022 12.650,15.853 C11.969,15.284 11.288,14.715 10.607,14.146 C10.607,14.772 10.607,15.398 10.607,16.024 C11.297,16.711 11.987,17.399 12.676,18.086 C12.792,18.242 12.836,18.566 12.716,18.756 C12.586,18.959 12.218,19.150 11.917,18.979 C11.480,18.550 11.044,18.121 10.607,17.692 C10.618,18.474 10.842,20.134 9.966,19.991 C9.750,19.955 9.560,19.834 9.481,19.662 C9.344,19.364 9.423,18.141 9.429,17.692 C8.992,18.121 8.556,18.550 8.119,18.979 C7.814,19.150 7.450,18.961 7.320,18.756 C7.071,18.360 7.428,18.030 7.622,17.837 C8.224,17.228 8.826,16.619 9.429,16.011 C9.429,15.393 9.429,14.776 9.429,14.159 C8.757,14.728 8.084,15.297 7.412,15.866 C7.192,16.040 6.883,16.385 6.482,16.142 C6.154,15.944 6.192,15.495 6.286,15.065 C6.434,14.238 6.583,13.410 6.731,12.582 C6.727,12.582 6.722,12.582 6.718,12.582 C6.312,12.819 5.906,13.055 5.500,13.292 C5.377,13.366 5.188,13.414 5.107,13.528 C4.894,14.303 4.680,15.078 4.466,15.853 C4.343,16.265 4.326,16.612 3.876,16.694 C3.500,16.762 3.258,16.467 3.209,16.195 C3.157,15.908 3.553,14.651 3.654,14.369 C3.650,14.365 3.645,14.360 3.641,14.356 C3.130,14.649 2.619,14.942 2.109,15.236 C1.777,15.368 1.424,15.147 1.336,14.907 C1.025,14.061 2.676,13.706 3.065,13.305 C2.759,13.277 1.302,12.867 1.179,12.714 C0.974,12.459 1.011,12.018 1.257,11.834 C1.528,11.632 1.898,11.773 2.187,11.860 C2.968,12.066 3.750,12.272 4.531,12.478 C5.055,12.176 5.579,11.873 6.103,11.571 C6.098,11.562 6.094,11.554 6.090,11.545 C5.422,11.304 4.754,11.063 4.086,10.823 C3.784,10.712 3.393,10.653 3.156,10.468 C3.001,10.346 2.878,10.035 2.986,9.772 C3.119,9.448 3.521,9.402 3.850,9.273 C4.605,8.993 5.361,8.712 6.116,8.432 C5.588,8.130 5.059,7.828 4.531,7.526 C3.724,7.745 2.916,7.964 2.109,8.182 C1.693,8.301 1.257,8.336 1.074,7.959 C0.598,6.977 2.546,6.949 3.065,6.685 C2.810,6.601 1.514,5.851 1.388,5.674 C1.276,5.515 1.255,5.208 1.362,5.030 C1.454,4.877 1.677,4.686 1.965,4.742 C2.223,4.791 2.420,4.965 2.619,5.083 C2.960,5.275 3.300,5.468 3.641,5.661 C3.641,5.648 3.641,5.635 3.641,5.621 C3.541,5.324 3.132,4.091 3.196,3.782 C3.247,3.533 3.506,3.240 3.863,3.310 C4.326,3.401 4.339,3.774 4.466,4.203 C4.675,4.969 4.885,5.735 5.094,6.501 C5.635,6.808 6.177,7.115 6.718,7.421 C6.565,6.589 6.412,5.757 6.260,4.925 C6.171,4.491 6.132,4.068 6.456,3.861 C6.843,3.615 7.162,3.957 7.373,4.124 C8.058,4.697 8.743,5.271 9.429,5.845 C9.429,5.219 9.429,4.593 9.429,3.966 C8.774,3.314 8.119,2.662 7.464,2.009 C7.304,1.848 7.145,1.509 7.320,1.235 C7.450,1.032 7.818,0.841 8.119,1.011 C8.556,1.440 8.992,1.869 9.429,2.298 C9.423,1.743 9.321,0.517 9.560,0.210 C9.660,0.081 9.801,0.072 9.966,-0.000 ZM7.635,5.884 C7.774,6.655 7.914,7.425 8.054,8.196 C8.512,8.454 8.970,8.712 9.429,8.971 C9.429,8.445 9.429,7.920 9.429,7.394 C8.831,6.891 8.233,6.388 7.635,5.884 ZM12.362,5.884 C11.777,6.388 11.192,6.891 10.607,7.394 C10.607,7.920 10.607,8.445 10.607,8.971 C11.061,8.712 11.515,8.454 11.969,8.196 C12.100,7.425 12.231,6.655 12.362,5.884 ZM12.558,9.207 C12.109,9.465 11.659,9.724 11.210,9.982 C11.214,9.991 11.218,10.000 11.223,10.008 C11.663,10.262 12.104,10.516 12.545,10.770 C13.278,10.512 14.012,10.254 14.745,9.995 C14.016,9.732 13.287,9.470 12.558,9.207 ZM7.425,9.220 C6.714,9.478 6.002,9.737 5.291,9.995 C5.299,10.000 5.308,10.004 5.317,10.008 C6.037,10.267 6.757,10.525 7.478,10.783 C7.927,10.525 8.377,10.267 8.826,10.008 C8.712,9.892 7.591,9.244 7.425,9.220 ZM9.416,11.020 C8.966,11.278 8.516,11.536 8.067,11.795 C7.932,12.565 7.796,13.336 7.661,14.106 C8.250,13.603 8.839,13.099 9.429,12.596 C9.424,12.070 9.420,11.545 9.416,11.020 ZM10.607,11.020 C10.607,11.545 10.607,12.070 10.607,12.596 C11.205,13.099 11.803,13.603 12.401,14.106 C12.296,13.546 12.192,12.985 12.087,12.425 C12.050,12.257 12.064,11.904 11.956,11.795 C11.506,11.536 11.057,11.278 10.607,11.020 Z"/>
</svg>