<svg 
 xmlns="http://www.w3.org/2000/svg"
 xmlns:xlink="http://www.w3.org/1999/xlink"
 width="20px" height="20px">
<path fill-rule="evenodd"  fill="rgb(83, 126, 166)"
 d="M-0.001,-0.002 C1.465,-0.002 2.932,-0.002 4.398,-0.002 C4.394,0.391 4.390,0.784 4.386,1.176 C3.312,1.176 2.239,1.176 1.165,1.176 C1.165,2.246 1.165,3.316 1.165,4.385 C0.776,4.385 0.388,4.385 -0.001,4.385 C-0.001,2.923 -0.001,1.460 -0.001,-0.002 ZM15.600,-0.002 C17.067,-0.002 18.533,-0.002 19.999,-0.002 C19.999,1.460 19.999,2.923 19.999,4.385 C19.607,4.382 19.214,4.378 18.822,4.373 C18.826,3.308 18.830,2.242 18.834,1.176 C17.756,1.173 16.678,1.168 15.600,1.164 C15.600,0.776 15.600,0.387 15.600,-0.002 ZM9.987,2.210 C12.223,3.496 14.459,4.782 16.694,6.068 C16.694,8.693 16.694,11.317 16.694,13.941 C14.467,15.224 12.239,16.506 10.011,17.788 C7.776,16.502 5.540,15.215 3.304,13.929 C3.304,11.305 3.304,8.681 3.304,6.056 C5.532,4.774 7.760,3.492 9.987,2.210 ZM9.987,3.568 C8.353,4.510 6.718,5.452 5.083,6.393 C5.087,6.401 5.091,6.409 5.095,6.417 C6.325,7.118 7.555,7.819 8.785,8.520 C9.041,8.672 9.758,9.179 10.023,9.217 C11.654,8.276 13.285,7.335 14.915,6.393 C13.273,5.452 11.630,4.510 9.987,3.568 ZM4.482,7.415 C4.482,9.366 4.482,11.317 4.482,13.268 C6.125,14.210 7.768,15.152 9.410,16.093 C9.410,14.142 9.410,12.190 9.410,10.239 C7.768,9.298 6.125,8.356 4.482,7.415 ZM15.504,7.415 C13.866,8.360 12.227,9.306 10.588,10.251 C10.588,12.198 10.588,14.146 10.588,16.093 C12.231,15.152 13.874,14.210 15.516,13.268 C15.512,11.317 15.508,9.366 15.504,7.415 ZM-0.001,15.600 C0.392,15.604 0.784,15.608 1.177,15.612 C1.173,16.682 1.169,17.752 1.165,18.821 C2.239,18.826 3.312,18.830 4.386,18.833 C4.386,19.222 4.386,19.611 4.386,20.000 C2.924,20.000 1.461,20.000 -0.001,20.000 C-0.001,18.533 -0.001,17.066 -0.001,15.600 ZM19.999,15.600 C19.999,17.066 19.999,18.533 19.999,20.000 C18.537,20.000 17.075,20.000 15.612,20.000 C15.616,19.607 15.620,19.214 15.624,18.821 C16.694,18.821 17.764,18.821 18.834,18.821 C18.834,17.748 18.834,16.674 18.834,15.600 C19.222,15.600 19.611,15.600 19.999,15.600 Z"/>
</svg>