<svg 
 xmlns="http://www.w3.org/2000/svg"
 xmlns:xlink="http://www.w3.org/1999/xlink"
 width="70px" height="71px">
<path fill-rule="evenodd"  fill="rgb(201, 225, 247)"
 d="M13.802,0.104 C14.955,0.095 18.344,-0.144 19.145,0.190 C19.757,0.773 20.370,1.355 20.982,1.938 C21.524,1.398 22.065,0.858 22.607,0.317 C24.055,-0.233 26.758,0.104 28.591,0.104 C29.265,0.104 30.292,-0.036 30.813,0.190 C31.426,0.773 32.039,1.355 32.651,1.938 C33.193,1.398 33.734,0.858 34.275,0.317 C35.319,-0.084 40.133,-0.140 40.644,0.616 C40.958,1.080 40.815,2.226 40.815,2.962 C40.801,5.236 40.786,7.511 40.772,9.786 C40.564,10.435 36.917,12.976 36.156,13.497 C36.156,15.174 36.156,16.852 36.156,18.530 C38.620,19.286 41.858,22.129 43.550,23.818 C44.120,24.444 44.690,25.069 45.260,25.695 C51.372,25.695 57.485,25.695 63.597,25.695 C65.091,25.695 69.171,25.369 69.752,26.164 C70.119,26.668 69.965,27.932 69.965,28.766 C69.965,30.913 69.965,33.060 69.965,35.206 C69.965,43.466 69.965,51.728 69.965,59.987 C69.965,62.347 69.965,64.707 69.965,67.067 C69.965,68.150 70.107,69.321 69.452,69.754 C68.830,70.166 63.514,69.925 62.229,69.925 C55.761,69.925 49.292,69.925 42.824,69.925 C40.473,69.911 38.122,69.897 35.771,69.882 C35.448,69.780 35.204,69.517 35.087,69.200 C34.161,69.342 33.235,69.484 32.309,69.626 C31.326,69.712 30.343,69.797 29.360,69.882 C28.035,69.882 26.710,69.882 25.385,69.882 C23.653,69.597 21.963,69.798 20.427,69.498 C18.788,69.179 17.290,69.087 15.811,68.645 C9.636,66.800 5.346,64.003 2.389,58.963 C1.335,57.167 0.737,55.049 0.252,52.651 C0.181,51.741 0.110,50.831 0.039,49.921 C0.024,49.196 0.010,48.471 -0.004,47.746 C0.283,46.002 0.168,44.280 0.509,42.670 C1.139,39.692 1.866,36.988 2.945,34.481 C5.128,29.413 8.482,24.761 12.605,21.601 C13.673,20.862 14.742,20.122 15.811,19.383 C16.366,19.084 16.922,18.786 17.478,18.487 C17.487,17.740 17.653,13.750 17.392,13.454 C16.281,12.601 15.169,11.748 14.058,10.895 C13.695,10.629 13.172,10.396 12.947,9.999 C12.640,9.459 12.819,8.166 12.819,7.398 C12.819,5.791 12.819,4.184 12.819,2.578 C12.819,2.014 12.719,1.212 12.904,0.786 C13.074,0.397 13.430,0.302 13.802,0.104 ZM15.169,2.450 C15.169,4.028 15.169,5.607 15.169,7.184 C15.169,7.726 15.076,8.538 15.255,8.933 C16.509,9.871 17.763,10.810 19.016,11.748 C24.216,11.748 29.417,11.748 34.617,11.748 C35.899,10.781 37.182,9.814 38.464,8.848 C38.464,6.715 38.464,4.583 38.464,2.450 C37.453,2.450 36.441,2.450 35.429,2.450 C35.030,2.989 33.225,5.094 32.224,4.711 C31.279,4.349 30.615,3.056 29.830,2.450 C27.807,2.450 25.784,2.450 23.761,2.450 C23.362,2.989 21.556,5.094 20.555,4.711 C19.611,4.349 18.946,3.056 18.161,2.450 C17.164,2.450 16.167,2.450 15.169,2.450 ZM19.828,14.094 C19.828,15.245 19.828,16.397 19.828,17.549 C24.487,17.549 29.147,17.549 33.805,17.549 C33.805,16.397 33.805,15.245 33.805,14.094 C29.147,14.094 24.487,14.094 19.828,14.094 ZM20.170,19.895 C19.615,20.122 19.059,20.350 18.503,20.577 C17.035,21.281 15.649,22.152 14.400,23.093 C8.908,27.233 5.205,33.750 3.244,41.391 C2.840,42.965 2.724,44.621 2.432,46.338 C1.881,49.586 2.568,53.343 3.458,55.594 C6.347,62.902 11.984,65.429 20.512,67.110 C24.264,67.850 31.598,67.887 35.002,66.811 C35.002,66.797 35.002,66.783 35.002,66.769 C35.002,63.542 35.002,60.314 35.002,57.087 C34.204,57.499 33.406,57.912 32.608,58.324 C31.204,58.916 29.666,59.160 27.907,59.433 C25.266,59.843 22.710,58.993 21.025,58.281 C15.065,55.764 9.526,48.663 12.306,39.770 C14.083,34.084 20.801,27.704 29.232,29.363 C30.665,29.645 31.969,30.034 33.164,30.558 C33.777,30.885 34.389,31.211 35.002,31.538 C34.988,30.856 34.973,30.174 34.959,29.491 C34.959,28.449 34.743,26.751 35.216,26.121 C35.765,25.390 40.577,25.679 42.054,25.695 C41.969,25.610 41.883,25.524 41.798,25.439 C41.473,24.771 40.535,24.183 39.960,23.733 C38.153,22.319 35.969,20.570 33.506,19.895 C29.061,19.895 24.615,19.895 20.170,19.895 ZM37.310,28.041 C37.310,30.358 37.310,32.676 37.310,34.993 C47.411,34.993 57.514,34.993 67.615,34.993 C67.615,32.676 67.615,30.358 67.615,28.041 C57.514,28.041 47.411,28.041 37.310,28.041 ZM53.638,30.344 C54.421,30.359 55.205,30.373 55.989,30.387 C55.989,31.154 55.989,31.923 55.989,32.690 C55.205,32.690 54.421,32.690 53.638,32.690 C53.638,31.908 53.638,31.126 53.638,30.344 ZM58.297,30.344 C59.080,30.344 59.864,30.344 60.647,30.344 C60.647,31.126 60.647,31.908 60.647,32.690 C59.864,32.690 59.080,32.690 58.297,32.690 C58.297,31.908 58.297,31.126 58.297,30.344 ZM62.956,30.344 C63.739,30.344 64.523,30.344 65.306,30.344 C65.306,31.126 65.306,31.908 65.306,32.690 C64.523,32.690 63.739,32.690 62.956,32.690 C62.956,31.908 62.956,31.126 62.956,30.344 ZM25.941,31.538 C25.049,31.880 23.822,31.819 22.949,32.093 C20.812,32.762 18.615,34.061 17.349,35.633 C16.033,37.268 14.956,38.965 14.315,41.306 C12.908,46.438 15.583,51.766 18.290,53.930 C21.781,56.723 27.332,58.384 32.395,55.807 C33.279,55.357 34.379,54.898 34.959,54.144 C34.959,49.467 34.959,44.788 34.959,40.111 C34.959,38.927 35.226,35.139 34.874,34.353 C34.261,33.941 33.648,33.529 33.036,33.117 C31.137,32.009 28.954,31.567 25.941,31.538 ZM25.641,33.842 C26.425,33.842 27.209,33.842 27.992,33.842 C27.992,34.681 27.992,35.519 27.992,36.358 C29.957,36.659 31.474,38.580 31.497,40.836 C30.714,40.836 29.930,40.836 29.146,40.836 C29.155,37.492 23.907,38.078 24.487,41.092 C24.854,42.997 26.965,43.014 28.591,43.651 C30.403,44.363 32.205,46.546 31.283,49.239 C31.052,49.916 30.655,50.405 30.258,50.902 C29.726,51.567 28.942,52.071 27.992,52.310 C27.992,53.134 27.992,53.959 27.992,54.783 C27.209,54.783 26.425,54.783 25.641,54.783 C25.627,53.945 25.613,53.106 25.599,52.267 C23.561,52.024 22.309,50.001 22.136,47.831 C22.151,47.817 22.165,47.803 22.179,47.789 C22.949,47.789 23.718,47.789 24.487,47.789 C24.512,51.166 29.730,50.558 29.146,47.533 C28.729,45.370 25.981,45.632 24.359,44.675 C21.104,42.754 21.643,36.961 25.641,36.358 C25.641,35.519 25.641,34.681 25.641,33.842 ZM37.310,37.339 C37.310,47.418 37.310,57.500 37.310,67.579 C47.411,67.579 57.514,67.579 67.615,67.579 C67.615,57.500 67.615,47.418 67.615,37.339 C57.514,37.339 47.411,37.339 37.310,37.339 ZM40.516,39.685 C41.687,39.666 45.489,39.400 46.158,39.855 C46.878,40.346 46.881,45.979 46.158,46.466 C45.899,46.641 41.168,46.802 40.516,46.637 C40.176,46.551 39.822,46.222 39.704,45.912 C39.503,45.388 39.538,40.694 39.746,40.282 C39.901,39.976 40.223,39.861 40.516,39.685 ZM49.834,39.685 C50.818,39.669 54.945,39.504 55.433,39.813 C55.633,39.939 55.876,40.246 55.946,40.495 C56.217,41.468 56.064,45.926 55.647,46.338 C55.189,46.791 53.930,46.637 53.039,46.637 C51.799,46.637 49.665,46.930 49.150,46.168 C48.915,45.821 48.784,41.020 49.022,40.410 C49.173,40.021 49.498,39.894 49.834,39.685 ZM59.151,39.685 C60.366,39.666 64.227,39.407 64.879,39.898 C65.494,40.362 65.550,45.881 64.922,46.381 C64.498,46.719 60.144,46.851 59.194,46.637 C58.893,46.569 58.561,46.320 58.425,46.083 C58.180,45.656 58.146,40.854 58.382,40.324 C58.532,39.989 58.849,39.874 59.151,39.685 ZM44.320,44.334 C44.306,43.552 44.291,42.770 44.277,41.988 C43.508,42.002 42.738,42.017 41.969,42.031 C41.983,42.798 41.997,43.566 42.012,44.334 C42.781,44.334 43.551,44.334 44.320,44.334 ZM51.330,41.988 C51.330,42.770 51.330,43.552 51.330,44.334 C52.099,44.334 52.868,44.334 53.638,44.334 C53.638,43.552 53.638,42.770 53.638,41.988 C52.868,41.988 52.099,41.988 51.330,41.988 ZM60.647,41.988 C60.647,42.770 60.647,43.552 60.647,44.334 C61.417,44.334 62.186,44.334 62.956,44.334 C62.956,43.552 62.956,42.770 62.956,41.988 C62.186,41.988 61.417,41.988 60.647,41.988 ZM40.516,48.983 C41.942,48.960 45.937,48.684 46.457,49.452 C46.890,50.092 46.628,51.942 46.628,52.907 C46.628,53.818 46.796,55.167 46.329,55.637 C45.857,56.110 44.656,55.978 43.721,55.978 C42.385,55.978 40.316,56.262 39.789,55.423 C39.578,55.087 39.494,50.248 39.704,49.708 C39.855,49.319 40.180,49.193 40.516,48.983 ZM49.834,48.983 C51.006,48.965 54.805,48.698 55.476,49.153 C56.146,49.610 56.305,55.118 55.604,55.679 C54.860,56.276 49.598,56.130 49.150,55.466 C48.918,55.123 48.783,50.311 49.022,49.708 C49.172,49.328 49.504,49.190 49.834,48.983 ZM59.194,48.983 C60.879,48.965 64.867,48.560 65.264,49.751 C65.278,53.703 65.292,57.656 65.306,61.608 C65.306,63.038 65.607,64.886 64.494,65.233 C63.754,65.247 63.012,65.262 62.272,65.275 C60.988,65.275 58.997,65.549 58.468,64.764 C58.141,64.279 58.297,63.054 58.297,62.290 C58.297,60.243 58.297,58.195 58.297,56.148 C58.297,54.542 58.297,52.935 58.297,51.329 C58.297,50.799 58.195,50.010 58.382,49.623 C58.552,49.271 58.865,49.182 59.194,48.983 ZM41.969,51.329 C41.969,52.096 41.969,52.864 41.969,53.632 C42.753,53.632 43.536,53.632 44.320,53.632 C44.320,52.864 44.320,52.096 44.320,51.329 C43.536,51.329 42.753,51.329 41.969,51.329 ZM51.330,51.329 C51.330,52.096 51.330,52.864 51.330,53.632 C52.099,53.632 52.868,53.632 53.638,53.632 C53.638,52.864 53.638,52.096 53.638,51.329 C52.868,51.329 52.099,51.329 51.330,51.329 ZM60.647,51.329 C60.647,55.196 60.647,59.063 60.647,62.930 C61.417,62.930 62.186,62.930 62.956,62.930 C62.956,59.063 62.956,55.196 62.956,51.329 C62.186,51.329 61.417,51.329 60.647,51.329 ZM40.559,58.281 C41.775,58.261 45.535,58.004 46.201,58.494 C46.816,58.948 46.874,64.537 46.243,65.020 C45.831,65.335 41.242,65.508 40.430,65.233 C40.145,65.136 39.811,64.828 39.704,64.551 C39.704,62.703 39.704,60.854 39.704,59.006 C39.863,58.597 40.198,58.494 40.559,58.281 ZM49.876,58.281 C51.097,58.262 54.848,58.003 55.518,58.494 C56.193,58.989 56.256,64.498 55.561,65.020 C55.141,65.335 50.563,65.511 49.748,65.233 C49.447,65.130 49.133,64.803 49.022,64.508 C48.870,64.110 48.924,59.235 49.064,58.921 C49.221,58.570 49.556,58.473 49.876,58.281 ZM41.969,60.627 C41.969,61.395 41.969,62.162 41.969,62.930 C42.753,62.930 43.536,62.930 44.320,62.930 C44.320,62.162 44.320,61.395 44.320,60.627 C43.536,60.627 42.753,60.627 41.969,60.627 ZM51.330,60.627 C51.330,61.395 51.330,62.162 51.330,62.930 C52.099,62.930 52.868,62.930 53.638,62.930 C53.638,62.162 53.638,61.395 53.638,60.627 C52.868,60.627 52.099,60.627 51.330,60.627 Z"/>
</svg>