<svg 
 xmlns="http://www.w3.org/2000/svg"
 xmlns:xlink="http://www.w3.org/1999/xlink"
 width="58px" height="70px">
<path fill-rule="evenodd"  fill="rgb(201, 225, 247)"
 d="M28.165,-0.001 C31.056,-0.059 32.742,0.720 34.419,1.839 C37.289,3.754 39.322,6.579 42.302,8.385 C47.307,11.417 54.909,10.888 56.867,17.069 C57.918,20.387 56.698,24.405 56.053,27.294 C55.896,28.549 55.739,29.804 55.582,31.059 C55.639,31.758 55.696,32.456 55.753,33.155 C56.193,35.608 56.570,37.681 57.039,40.000 C58.282,46.149 54.833,50.194 50.399,51.338 C52.397,53.918 54.397,56.500 56.396,59.081 C56.825,59.648 58.502,61.089 57.853,62.161 C57.440,62.842 56.333,62.766 55.368,62.589 C52.912,62.275 50.455,61.962 47.999,61.648 C47.999,61.677 47.999,61.705 47.999,61.734 C47.443,63.630 46.886,65.527 46.329,67.423 C46.076,68.245 46.016,69.416 45.343,69.819 C44.000,70.625 43.063,68.590 42.602,67.979 C40.417,65.185 38.232,62.389 36.047,59.595 C35.904,59.737 35.762,59.880 35.619,60.022 C35.205,60.336 34.790,60.650 34.376,60.963 C33.494,61.526 32.460,61.992 31.378,62.332 C27.957,63.409 23.495,61.603 21.996,59.595 C21.953,59.623 21.910,59.652 21.867,59.680 C19.725,62.432 17.583,65.185 15.441,67.937 C14.983,68.548 14.174,70.435 12.828,69.905 C12.051,69.598 12.011,68.557 11.757,67.723 C11.172,65.698 10.586,63.673 10.001,61.648 C7.645,61.947 5.288,62.247 2.932,62.546 C1.923,62.735 0.596,62.910 0.148,62.161 C-0.501,61.081 1.172,59.652 1.604,59.081 C3.603,56.500 5.603,53.918 7.602,51.338 C3.147,50.227 -0.253,46.125 0.961,40.000 C1.421,37.682 1.826,35.613 2.247,33.155 C2.304,32.456 2.361,31.758 2.418,31.059 C2.275,29.875 2.132,28.691 1.990,27.508 C1.299,24.343 -0.058,19.740 1.390,16.385 C3.502,11.490 10.148,10.868 15.013,8.727 C18.042,7.394 19.956,4.550 22.467,2.652 C23.644,1.763 24.910,0.947 26.408,0.385 C26.994,0.256 27.579,0.128 28.165,-0.001 ZM28.507,2.395 C27.473,2.802 26.570,2.837 25.723,3.336 C23.648,4.561 22.221,6.374 20.411,7.829 C18.566,9.311 16.801,10.656 14.413,11.636 C10.590,13.205 5.127,13.643 3.575,17.455 C2.522,20.039 3.597,23.803 4.174,26.096 C4.360,27.251 4.546,28.407 4.731,29.561 C5.374,33.305 3.977,37.266 3.360,40.343 C2.878,42.752 3.281,45.192 4.389,46.589 C6.887,49.742 14.186,50.270 17.712,52.749 C20.410,54.646 22.445,57.169 25.209,58.995 C26.129,59.604 27.638,60.600 29.321,60.322 C33.405,59.647 35.066,56.899 37.675,54.803 C39.394,53.422 41.046,52.143 43.244,51.209 C47.187,49.536 52.887,49.146 54.468,45.134 C55.286,43.058 54.631,39.869 54.168,37.904 C53.618,35.567 52.764,32.529 53.269,29.561 C53.454,28.407 53.640,27.251 53.826,26.096 C54.708,22.572 55.632,18.544 53.354,15.829 C51.618,13.759 48.032,13.222 45.215,12.235 C43.410,11.603 41.564,10.856 40.117,9.839 C36.901,7.578 33.525,2.377 28.507,2.395 ZM28.122,9.625 C39.059,9.432 46.068,15.729 49.199,23.359 C51.158,28.130 51.174,34.863 49.156,39.615 C46.500,45.870 41.662,50.255 34.805,52.321 C33.204,52.804 31.495,52.772 29.621,53.092 C28.907,53.063 28.193,53.034 27.479,53.006 C26.680,52.920 25.880,52.835 25.080,52.749 C23.186,52.330 21.500,51.768 19.939,51.081 C14.053,48.490 10.050,43.734 8.073,37.220 C7.404,35.017 6.853,31.537 7.387,28.663 C7.652,27.244 7.844,25.858 8.287,24.599 C10.661,17.852 15.211,13.388 21.782,10.823 C23.099,10.309 24.592,10.087 26.108,9.797 C26.780,9.740 27.451,9.682 28.122,9.625 ZM27.822,12.064 C27.265,12.121 26.708,12.178 26.151,12.235 C24.743,12.512 23.390,12.781 22.167,13.262 C16.497,15.491 12.364,19.757 10.472,25.754 C7.037,36.641 14.013,45.897 21.182,48.984 C23.054,49.791 26.948,51.158 29.964,50.653 C31.601,50.378 33.100,50.323 34.505,49.883 C40.128,48.123 44.421,44.355 46.671,39.230 C47.270,37.867 47.684,36.386 48.042,34.781 C48.905,30.914 47.946,26.540 46.757,23.786 C43.791,16.916 37.744,12.035 27.822,12.064 ZM28.550,16.642 C29.488,16.641 30.050,16.758 30.564,17.155 C31.685,18.021 32.927,23.586 33.605,25.326 C35.547,25.326 37.490,25.326 39.432,25.326 C40.230,25.326 41.271,25.214 41.873,25.454 C42.690,25.780 43.236,26.497 43.416,27.466 C43.680,28.890 42.546,29.566 41.831,30.075 C40.031,31.401 38.232,32.728 36.433,34.054 C37.147,36.221 37.861,38.389 38.575,40.557 C38.894,41.480 38.891,42.587 38.361,43.294 C37.823,44.011 36.492,44.539 35.362,44.022 C33.263,42.496 31.163,40.970 29.064,39.444 C27.365,40.642 25.666,41.840 23.966,43.038 C23.250,43.545 22.453,44.500 21.096,44.193 C20.079,43.963 19.360,43.198 19.168,42.140 C18.996,41.187 19.518,40.446 19.725,39.786 C20.339,37.876 20.953,35.964 21.567,34.054 C19.411,32.456 17.255,30.859 15.099,29.262 C14.385,28.334 14.543,26.881 15.227,26.053 C16.612,24.378 21.898,25.934 24.438,25.284 C24.795,24.200 25.152,23.116 25.509,22.032 C26.006,20.582 26.254,18.583 27.137,17.455 C27.487,17.006 28.010,16.916 28.550,16.642 ZM28.979,19.080 C28.265,21.262 27.551,23.444 26.837,25.626 C26.545,26.453 26.481,27.500 25.594,27.722 C22.753,27.736 19.911,27.751 17.069,27.765 C17.098,27.779 17.126,27.793 17.155,27.808 C18.897,29.091 20.639,30.375 22.381,31.658 C22.955,32.067 23.942,32.480 24.181,33.198 C24.436,33.966 23.792,35.037 23.581,35.637 C22.924,37.676 22.267,39.715 21.610,41.754 C23.352,40.514 25.095,39.273 26.837,38.032 C27.408,37.625 28.038,36.854 28.807,36.706 C29.727,36.530 30.492,37.541 30.992,37.904 C32.791,39.187 34.591,40.471 36.390,41.754 C35.733,39.715 35.076,37.676 34.419,35.637 C34.207,35.029 33.569,33.973 33.820,33.198 C34.051,32.482 35.049,32.064 35.619,31.658 C37.389,30.375 39.160,29.091 40.931,27.808 C40.931,27.779 40.931,27.751 40.931,27.722 C38.803,27.722 36.675,27.722 34.548,27.722 C33.774,27.722 32.510,27.884 32.020,27.551 C31.431,27.151 31.334,26.100 31.078,25.369 C30.378,23.273 29.678,21.176 28.979,19.080 ZM10.001,52.193 C8.002,54.774 6.002,57.355 4.003,59.937 C5.816,59.708 7.630,59.480 9.444,59.252 C10.183,59.119 11.137,58.974 11.629,59.338 C12.593,60.051 13.041,64.762 13.813,66.097 C13.842,66.083 13.870,66.068 13.899,66.054 C15.441,64.044 16.984,62.033 18.526,60.022 C18.990,59.408 19.891,58.710 20.111,57.926 C19.211,57.128 18.311,56.329 17.412,55.530 C15.480,54.070 12.800,52.703 10.001,52.193 ZM47.871,52.193 C46.686,52.592 45.500,52.992 44.315,53.391 C42.490,54.165 41.154,55.175 39.731,56.300 C39.396,56.565 37.848,57.830 37.975,58.097 C40.045,60.764 42.116,63.431 44.187,66.097 C44.201,66.097 44.215,66.097 44.230,66.097 C44.715,64.415 45.201,62.731 45.686,61.049 C45.924,60.279 45.955,59.450 46.671,59.167 C47.175,58.967 48.024,59.197 48.556,59.295 C50.370,59.509 52.184,59.722 53.997,59.937 C53.983,59.894 53.968,59.851 53.954,59.808 C52.455,57.912 50.955,56.015 49.456,54.118 C49.063,53.605 48.499,52.415 47.871,52.193 Z"/>
</svg>