<svg 
 xmlns="http://www.w3.org/2000/svg"
 xmlns:xlink="http://www.w3.org/1999/xlink"
 width="56px" height="70px">
<path fill-rule="evenodd"  fill="rgb(201, 225, 247)"
 d="M26.874,-0.002 C35.082,-0.111 38.907,3.499 41.043,9.497 C41.541,10.896 42.090,12.599 42.100,14.417 C43.928,14.799 44.246,18.259 43.369,20.022 C43.941,20.816 44.045,21.655 44.045,23.103 C44.017,23.830 43.989,24.558 43.961,25.285 C43.566,26.626 42.101,28.034 40.239,27.424 C40.313,31.761 39.109,33.979 37.278,36.281 C36.892,36.767 36.344,37.390 35.756,37.650 C35.756,38.292 35.756,38.934 35.756,39.576 C37.491,39.733 40.054,40.766 41.635,41.330 C44.691,42.420 47.798,43.328 50.094,45.181 C52.440,47.074 53.423,50.874 54.154,54.380 C54.393,56.305 54.633,58.231 54.873,60.157 C55.126,62.096 55.380,64.036 55.634,65.975 C55.785,66.798 56.101,68.022 55.972,68.842 C55.480,69.003 54.244,69.242 53.815,69.056 C53.393,65.904 52.969,62.752 52.547,59.600 C51.663,54.827 51.678,50.139 48.994,47.234 C48.299,46.484 47.257,45.943 46.287,45.481 C46.287,48.076 46.287,50.672 46.287,53.268 C50.057,54.492 49.417,59.675 49.417,64.692 C49.417,66.002 49.692,69.211 48.994,69.741 C48.455,70.150 46.964,69.955 46.076,69.955 C43.581,69.955 41.085,69.955 38.590,69.955 C28.243,69.955 17.893,69.955 7.546,69.955 C6.131,69.647 6.658,66.218 6.657,64.521 C6.657,59.686 5.991,54.313 9.745,53.268 C9.731,50.672 9.717,48.076 9.703,45.481 C3.516,48.454 4.410,55.354 2.978,62.895 C2.780,64.421 2.583,65.947 2.386,67.473 C2.282,68.028 2.341,68.658 2.132,69.099 C1.441,69.013 0.750,68.928 0.060,68.842 C-0.148,68.096 0.219,66.833 0.356,66.104 C0.638,63.950 0.920,61.796 1.202,59.643 C1.413,57.932 1.625,56.220 1.836,54.509 C2.354,51.898 3.000,49.388 4.162,47.406 C6.293,43.770 10.820,42.454 15.159,41.073 C16.724,40.575 18.453,39.775 20.192,39.576 C20.192,38.920 20.192,38.264 20.192,37.608 C17.317,35.926 15.781,32.165 15.793,27.467 C12.818,27.820 11.987,26.151 11.987,23.145 C11.986,21.720 12.072,20.860 12.621,20.065 C12.084,17.758 11.853,15.242 13.974,14.374 C13.966,12.916 14.382,11.514 14.736,10.352 C16.012,6.164 18.177,2.814 21.926,1.153 C22.868,0.735 23.970,0.458 25.055,0.211 C25.662,0.141 26.268,0.069 26.874,-0.002 ZM27.297,2.266 C26.147,2.248 25.270,2.524 24.336,2.694 C24.336,4.348 24.336,6.003 24.336,7.657 C25.208,8.399 25.820,9.250 27.297,9.411 C27.297,7.030 27.297,4.647 27.297,2.266 ZM29.496,2.309 C29.496,4.661 29.496,7.015 29.496,9.368 C30.845,9.324 31.924,8.394 32.499,7.528 C32.499,6.003 32.499,4.476 32.499,2.950 C31.527,2.780 30.668,2.351 29.496,2.309 ZM22.053,3.635 C21.475,4.049 20.896,4.462 20.318,4.876 C19.081,5.876 18.063,7.549 17.400,9.112 C16.868,10.365 16.544,11.771 16.258,13.262 C16.109,14.042 16.310,15.333 15.962,16.000 C15.637,16.623 14.857,16.325 14.566,16.685 C14.300,17.089 14.399,18.425 14.524,18.910 C15.768,18.677 16.293,19.380 17.020,19.680 C18.288,19.680 19.557,19.680 20.826,19.680 C26.888,19.680 32.951,19.680 39.012,19.680 C39.224,19.509 39.435,19.337 39.647,19.166 C40.174,18.894 40.876,18.968 41.508,18.867 C41.508,18.839 41.508,18.810 41.508,18.782 C41.659,18.462 41.640,16.950 41.423,16.642 C40.991,16.258 40.376,16.661 40.028,15.957 C39.971,15.316 39.915,14.674 39.858,14.032 C39.646,12.772 39.456,11.558 39.097,10.438 C38.260,7.825 36.755,5.457 34.656,4.105 C34.642,5.503 34.628,6.901 34.614,8.298 C33.184,12.152 26.694,12.585 23.533,10.053 C23.015,9.638 22.239,8.790 22.095,8.042 C22.081,6.573 22.067,5.104 22.053,3.635 ZM14.736,21.049 C14.526,21.206 14.268,21.325 14.186,21.605 C14.186,22.019 14.186,22.433 14.186,22.846 C14.186,23.780 13.997,25.565 15.074,25.200 C16.156,25.063 16.130,21.412 15.243,21.092 C15.074,21.078 14.905,21.063 14.736,21.049 ZM40.789,21.049 C40.634,21.178 40.479,21.306 40.324,21.434 C40.133,21.782 40.179,24.623 40.366,24.900 C40.517,25.125 40.801,25.231 41.169,25.242 C41.464,25.127 41.758,24.954 41.846,24.643 C41.846,24.187 41.846,23.730 41.846,23.274 C41.846,22.051 42.078,21.013 40.789,21.049 ZM17.992,21.947 C17.992,23.702 17.992,25.456 17.992,27.210 C17.992,28.313 17.920,29.482 18.119,30.420 C19.125,35.163 22.347,37.565 28.143,37.565 C29.334,37.565 30.497,37.591 31.442,37.351 C33.014,36.950 34.201,36.142 35.291,35.254 C38.498,32.642 38.055,27.757 38.040,21.947 C31.358,21.947 24.674,21.947 17.992,21.947 ZM22.391,38.934 C22.366,40.692 23.351,41.166 24.083,42.143 C25.379,43.826 26.677,45.509 27.974,47.192 C28.044,47.135 28.115,47.078 28.185,47.021 C29.595,45.167 31.005,43.313 32.415,41.459 C32.813,40.924 33.979,40.148 33.514,38.977 C30.407,40.406 25.459,39.938 22.391,38.934 ZM16.977,53.311 C24.322,53.311 31.668,53.311 39.012,53.311 C38.998,49.802 38.984,46.293 38.970,42.785 C37.673,42.414 36.376,42.043 35.079,41.673 C32.767,44.681 30.455,47.692 28.143,50.701 C28.072,50.701 28.002,50.701 27.931,50.701 C25.577,47.692 23.222,44.681 20.868,41.673 C19.585,42.043 18.302,42.414 17.020,42.785 C17.005,46.293 16.991,49.802 16.977,53.311 ZM8.857,67.730 C21.628,67.730 34.404,67.730 47.175,67.730 C47.175,65.305 47.175,62.880 47.175,60.456 C47.175,59.315 47.337,57.825 47.006,56.947 C46.798,56.397 46.377,55.827 45.906,55.535 C45.263,55.138 44.315,55.245 44.088,54.423 C44.060,51.114 44.031,47.805 44.003,44.496 C43.087,44.183 42.170,43.869 41.254,43.555 C41.254,46.351 41.254,49.146 41.254,51.941 C41.254,52.827 41.490,54.543 41.085,55.108 C40.516,55.900 36.701,55.578 35.248,55.578 C30.413,55.578 25.577,55.578 20.741,55.578 C19.560,55.578 15.981,55.876 15.285,55.407 C14.609,54.951 14.820,53.404 14.820,52.283 C14.820,49.360 14.820,46.436 14.820,43.512 C13.876,43.855 12.931,44.197 11.987,44.539 C11.987,46.892 11.987,49.246 11.987,51.599 C11.987,52.464 12.206,53.905 11.902,54.594 C11.528,55.442 9.747,55.306 9.111,56.819 C8.729,57.727 8.857,59.239 8.857,60.499 C8.857,62.909 8.857,65.320 8.857,67.730 ZM10.760,56.990 C11.838,56.982 15.340,56.752 16.047,57.076 C16.033,57.718 16.019,58.359 16.004,59.001 C15.051,59.132 11.347,59.282 10.675,58.916 C10.664,58.340 10.566,57.413 10.760,56.990 ZM40.028,56.990 C41.339,56.990 42.650,56.990 43.961,56.990 C44.349,56.990 45.144,56.877 45.314,57.118 C45.314,57.732 45.314,58.345 45.314,58.959 C44.549,59.233 40.976,59.128 40.028,59.001 C40.013,58.973 39.999,58.944 39.985,58.916 C39.886,58.418 39.871,57.419 40.028,56.990 Z"/>
</svg>