<?xml version="1.0" encoding="utf-8"?>
<svg 
 xmlns="http://www.w3.org/2000/svg"
 xmlns:xlink="http://www.w3.org/1999/xlink"
 width="70px" height="70px">
<path fill-rule="evenodd"  fill="rgb(201, 225, 247)"
 d="M33.896,-0.003 C34.279,0.012 34.661,0.026 35.043,0.040 C35.086,0.068 35.128,0.096 35.171,0.125 C35.182,0.834 35.336,2.043 35.086,2.586 C30.285,2.495 26.175,3.574 22.811,5.004 C14.139,8.692 8.080,14.861 4.591,23.716 C3.740,25.876 3.321,28.253 2.849,30.802 C2.736,32.245 2.623,33.688 2.509,35.130 C1.717,35.116 0.924,35.102 0.131,35.088 C0.089,35.060 0.046,35.032 0.004,35.003 C-0.094,29.788 1.147,25.546 2.595,21.849 C6.169,12.719 13.173,6.004 22.259,2.374 C24.540,1.462 27.018,0.917 29.692,0.380 C31.093,0.252 32.495,0.125 33.896,-0.003 ZM33.684,4.495 C43.804,4.324 49.399,7.695 55.005,11.963 C55.019,11.963 55.033,11.963 55.047,11.963 C55.047,10.422 55.047,8.879 55.047,7.338 C55.047,6.810 54.959,6.025 55.132,5.641 C55.633,5.563 57.352,5.412 57.596,5.768 C57.610,7.027 57.624,8.286 57.638,9.544 C57.638,11.123 57.984,15.203 57.129,15.824 C56.639,16.180 55.437,16.036 54.623,16.036 C52.216,16.051 49.809,16.065 47.402,16.079 C47.431,16.079 47.459,16.079 47.488,16.079 C47.926,16.390 48.365,16.701 48.804,17.012 C49.747,17.705 50.832,18.608 51.565,19.515 C54.468,23.111 56.331,26.176 57.426,31.693 C58.223,35.710 57.268,40.336 56.024,43.277 C53.255,49.824 48.602,54.392 41.499,56.601 C37.937,57.708 32.819,57.937 29.055,56.813 C26.844,56.152 24.800,55.294 23.024,54.182 C18.370,51.271 14.923,46.877 13.170,41.071 C11.945,37.012 12.243,31.502 13.552,27.790 C15.979,20.911 20.532,16.363 27.228,13.745 C30.632,12.415 35.974,11.791 40.097,12.896 C42.797,13.621 45.113,14.592 47.190,15.909 C47.179,15.211 47.029,14.024 47.275,13.491 C49.087,13.477 50.900,13.462 52.712,13.448 C52.669,13.391 52.627,13.335 52.584,13.278 C52.103,12.911 51.621,12.543 51.140,12.175 C50.135,11.553 49.130,10.930 48.124,10.308 C45.742,8.914 42.879,8.148 39.800,7.465 C38.837,7.353 37.874,7.239 36.912,7.126 C35.935,7.126 34.958,7.126 33.981,7.126 C33.005,7.196 32.028,7.267 31.051,7.338 C28.778,7.783 26.690,8.260 24.807,9.035 C16.632,12.404 10.950,18.322 8.243,27.153 C7.227,30.470 6.587,35.661 7.479,39.713 C8.909,46.212 11.044,49.595 14.529,53.928 C15.170,54.725 16.060,55.453 16.865,56.092 C20.136,58.684 23.553,60.740 28.205,62.032 C30.028,62.538 31.842,62.448 33.981,62.796 C35.741,63.082 37.960,62.812 39.503,62.499 C41.276,62.139 43.001,61.789 44.557,61.183 C52.881,57.941 58.947,51.885 61.716,43.108 C63.496,37.463 63.081,29.838 61.036,24.819 C60.463,23.414 59.804,21.998 59.040,20.747 C58.677,20.151 57.902,19.429 57.766,18.710 C58.346,18.292 59.091,17.461 59.847,17.310 C61.731,19.992 63.284,23.000 64.349,26.517 C66.147,32.455 65.562,40.030 63.669,45.314 C60.352,54.577 53.405,61.123 43.792,64.111 C40.050,65.274 34.334,65.950 29.734,65.002 C27.067,64.452 24.660,63.726 22.429,62.753 C14.574,59.327 8.456,52.413 5.822,43.744 C4.842,40.517 3.953,35.756 4.676,31.481 C4.966,29.766 5.183,28.100 5.652,26.559 C6.617,23.390 7.927,20.440 9.645,17.988 C13.351,12.698 18.458,8.253 25.232,6.065 C26.906,5.525 28.663,5.132 30.541,4.792 C31.589,4.693 32.637,4.594 33.684,4.495 ZM15.039,33.688 C16.087,33.678 18.685,33.423 19.456,33.773 C19.467,34.482 19.621,35.691 19.371,36.234 C17.927,36.234 16.483,36.234 15.039,36.234 C14.979,39.903 16.700,43.488 18.182,45.738 C18.395,46.062 19.768,48.140 20.008,48.114 C20.971,47.152 21.934,46.191 22.896,45.229 C22.953,45.229 23.009,45.229 23.066,45.229 C23.618,45.795 24.170,46.361 24.722,46.926 C24.722,46.983 24.722,47.039 24.722,47.096 C23.760,48.058 22.797,49.019 21.834,49.981 C23.674,52.274 29.540,54.813 33.684,54.903 C33.673,53.906 33.441,51.129 33.811,50.491 C34.521,50.479 35.732,50.325 36.275,50.575 C36.275,52.018 36.275,53.461 36.275,54.903 C40.223,54.976 46.526,52.118 48.167,49.981 C47.204,49.006 46.241,48.030 45.279,47.054 C45.279,46.983 45.279,46.912 45.279,46.842 C45.822,46.421 46.376,45.326 47.148,45.229 C48.110,46.191 49.073,47.152 50.036,48.114 C52.333,46.275 54.886,40.391 54.963,36.234 C53.914,36.244 51.316,36.498 50.545,36.149 C50.534,35.439 50.380,34.230 50.630,33.688 C52.074,33.688 53.519,33.688 54.963,33.688 C55.022,30.018 53.301,26.433 51.820,24.183 C51.607,23.860 50.234,21.781 49.993,21.807 C49.031,22.769 48.068,23.731 47.105,24.692 C46.489,24.586 45.617,23.493 45.279,23.038 C45.279,22.967 45.279,22.896 45.279,22.825 C46.241,21.864 47.204,20.902 48.167,19.940 C46.325,17.644 40.439,15.094 36.275,15.018 C36.285,16.065 36.540,18.661 36.190,19.431 C35.480,19.443 34.270,19.596 33.727,19.346 C33.727,17.903 33.727,16.461 33.727,15.018 C30.028,14.958 26.389,16.701 24.128,18.200 C23.822,18.403 21.811,19.764 21.834,19.983 C22.797,20.944 23.760,21.906 24.722,22.868 C24.722,22.925 24.722,22.981 24.722,23.038 C24.156,23.589 23.590,24.141 23.024,24.692 C22.967,24.692 22.910,24.692 22.854,24.692 C21.891,23.731 20.928,22.769 19.966,21.807 C17.669,23.646 15.115,29.531 15.039,33.688 ZM26.166,39.289 C27.993,39.289 29.819,39.289 31.645,39.289 C32.346,39.289 33.486,39.132 34.024,39.374 C34.148,39.991 34.187,41.405 33.939,41.877 C31.646,41.877 29.352,41.877 27.058,41.877 C26.193,41.877 24.793,42.058 24.213,41.707 C23.529,41.294 23.260,38.048 23.618,36.828 C23.859,36.008 24.866,35.832 25.614,35.512 C27.568,34.649 29.522,33.787 31.476,32.924 C31.476,32.160 31.476,31.397 31.476,30.633 C29.706,30.633 27.936,30.633 26.166,30.633 C26.178,31.289 26.310,32.387 26.082,32.882 C25.372,32.893 24.161,33.047 23.618,32.797 C23.602,31.369 23.281,28.891 24.085,28.299 C24.563,27.947 25.554,28.044 26.379,28.044 C28.078,28.045 33.164,27.675 33.811,28.553 C34.241,29.137 34.066,30.594 34.066,31.566 C34.066,32.498 34.256,33.990 33.854,34.579 C33.454,35.166 32.377,35.388 31.688,35.682 C29.848,36.474 28.007,37.266 26.166,38.058 C26.166,38.469 26.166,38.878 26.166,39.289 ZM38.526,34.791 C40.295,34.791 42.065,34.791 43.835,34.791 C43.835,33.136 43.835,31.481 43.835,29.826 C43.835,29.277 43.738,28.448 43.920,28.044 C44.630,28.033 45.840,27.879 46.383,28.129 C46.383,31.368 46.383,34.607 46.383,37.846 C46.383,38.838 46.627,41.143 46.298,41.877 C45.588,41.889 44.378,42.042 43.835,41.792 C43.835,40.321 43.835,38.850 43.835,37.379 C42.474,37.393 37.148,37.619 36.487,37.167 C35.563,36.535 35.935,31.903 35.935,30.208 C35.935,29.528 35.820,28.515 36.062,28.044 C36.772,28.033 37.983,27.879 38.526,28.129 C38.526,30.350 38.526,32.571 38.526,34.791 ZM67.492,34.791 C68.285,34.805 69.077,34.819 69.870,34.833 C69.913,34.862 69.955,34.890 69.998,34.918 C70.084,39.800 69.034,43.944 67.662,47.436 C64.142,56.389 57.900,63.074 49.229,66.869 C46.138,68.222 42.990,68.987 39.035,69.670 C38.253,69.805 35.753,70.183 34.958,69.882 C34.916,69.853 34.873,69.825 34.831,69.797 C34.819,69.087 34.666,67.878 34.916,67.336 C39.716,67.427 43.826,66.347 47.190,64.917 C55.862,61.230 61.922,55.060 65.411,46.205 C66.261,44.046 66.681,41.668 67.152,39.119 C67.265,37.677 67.379,36.233 67.492,34.791 Z"/>
</svg>