<?xml version="1.0" encoding="utf-8"?>
<svg 
 xmlns="http://www.w3.org/2000/svg"
 xmlns:xlink="http://www.w3.org/1999/xlink"
 width="69px" height="70px">
<path fill-rule="evenodd"  fill="rgb(201, 225, 247)"
 d="M27.691,0.009 C33.427,-0.108 37.561,1.027 41.389,2.709 C42.226,3.076 44.552,4.032 44.824,4.808 C45.146,5.728 44.143,6.628 43.837,7.208 C44.479,7.220 45.545,7.344 46.027,7.122 C46.208,6.572 48.538,2.756 48.904,2.495 C49.133,2.423 49.362,2.352 49.591,2.280 C50.185,2.180 51.016,3.055 51.394,3.309 C52.585,4.107 53.604,5.006 54.701,5.880 C55.159,6.337 55.617,6.794 56.075,7.251 C59.152,7.237 62.230,7.222 65.307,7.208 C66.222,7.208 67.930,6.971 68.528,7.380 C69.187,7.830 68.957,9.511 68.957,10.593 C68.957,13.635 68.957,16.679 68.957,19.721 C68.957,32.875 68.957,46.034 68.957,59.188 C68.774,59.931 65.506,62.804 64.792,63.516 C63.289,65.016 61.786,66.516 60.283,68.016 C59.733,68.565 59.056,69.612 58.308,69.901 C50.780,69.916 43.249,69.930 35.721,69.944 C32.300,69.944 28.879,69.944 25.458,69.944 C24.513,69.944 22.106,70.154 21.550,69.773 C20.884,69.315 21.121,67.568 21.121,66.473 C21.121,63.316 21.121,60.159 21.121,57.002 C20.362,56.745 19.603,56.488 18.845,56.231 C16.435,55.268 14.394,54.217 12.447,52.846 C6.706,48.804 2.729,43.373 0.767,35.533 C-0.038,32.319 -0.319,27.369 0.466,23.835 C1.054,21.186 1.808,18.853 2.785,16.636 C5.946,9.460 12.055,4.507 19.532,1.595 C21.112,0.979 22.888,0.674 24.685,0.309 C25.687,0.209 26.689,0.109 27.691,0.009 ZM28.764,2.152 C28.321,2.166 27.877,2.180 27.433,2.195 C26.560,2.294 25.687,2.394 24.814,2.495 C22.296,3.021 20.074,3.636 17.986,4.551 C8.422,8.746 -0.783,20.956 2.957,35.533 C3.538,37.800 4.329,40.038 5.404,41.876 C8.595,47.329 12.954,51.511 19.060,54.046 C20.738,54.743 22.570,55.161 24.513,55.588 C28.285,56.418 33.248,55.914 36.408,54.946 C44.546,52.453 50.087,47.650 53.541,40.505 C47.144,37.805 40.744,35.105 34.347,32.405 C32.787,31.748 31.226,31.091 29.666,30.434 C29.051,30.168 28.261,30.049 28.077,29.363 C27.887,28.650 28.417,28.217 28.635,27.863 C29.337,26.720 30.038,25.577 30.740,24.435 C33.459,19.964 36.179,15.492 38.898,11.022 C39.757,9.651 40.616,8.279 41.475,6.908 C41.633,6.663 42.302,5.687 42.162,5.537 C41.465,4.877 40.222,4.559 39.285,4.166 C36.328,2.923 32.953,2.199 28.764,2.152 ZM29.365,6.908 C30.819,6.869 33.867,6.431 33.402,8.279 C33.110,9.441 30.814,9.131 29.365,9.094 C29.365,10.093 29.365,11.093 29.365,12.093 C32.052,12.041 32.844,13.041 32.844,15.693 C32.844,16.483 32.906,17.356 32.672,17.921 C32.360,18.674 31.621,19.282 30.740,19.464 C30.282,19.478 29.823,19.492 29.365,19.507 C29.412,20.786 29.074,22.582 27.648,21.607 C27.034,21.187 27.380,20.312 27.176,19.464 C25.754,19.497 22.798,19.930 23.139,18.221 C23.444,16.690 25.744,17.636 27.218,17.279 C27.204,16.279 27.190,15.279 27.176,14.279 C24.434,14.331 23.740,13.340 23.740,10.636 C23.740,9.788 23.686,8.898 23.955,8.322 C24.306,7.571 25.067,7.073 26.016,6.908 C26.417,6.894 26.818,6.879 27.218,6.865 C27.173,5.744 27.177,4.362 28.421,4.594 C29.400,4.777 29.413,5.702 29.365,6.908 ZM49.891,4.894 C46.628,10.250 43.364,15.607 40.101,20.964 C39.242,22.363 38.383,23.763 37.524,25.163 C37.262,25.591 36.576,26.316 36.580,26.791 C44.451,30.091 52.326,33.391 60.197,36.690 C60.469,35.848 60.741,35.005 61.013,34.162 C61.256,32.863 61.500,31.563 61.743,30.263 C62.251,27.399 61.820,23.773 61.228,21.435 C59.348,14.018 55.586,8.472 49.891,4.894 ZM26.145,9.094 C26.073,9.180 26.002,9.265 25.930,9.351 C25.773,9.882 25.741,11.827 26.102,12.050 C26.474,12.050 26.846,12.050 27.218,12.050 C27.204,11.065 27.190,10.079 27.176,9.094 C26.832,9.094 26.488,9.094 26.145,9.094 ZM23.311,67.801 C34.474,67.801 45.641,67.801 56.805,67.801 C56.805,65.430 56.805,63.059 56.805,60.688 C56.805,59.745 56.652,58.490 57.191,58.074 C57.722,57.664 59.026,57.817 59.940,57.817 C62.230,57.817 64.520,57.817 66.810,57.817 C66.810,41.677 66.810,25.533 66.810,9.394 C63.848,9.394 60.884,9.394 57.921,9.394 C58.682,10.761 59.764,12.024 60.584,13.422 C62.416,16.543 63.170,20.043 63.890,24.349 C64.115,25.692 64.267,27.696 64.019,29.191 C63.876,30.248 63.733,31.305 63.590,32.363 C63.167,34.343 62.748,36.066 62.087,37.719 C61.843,38.330 61.730,39.050 61.056,39.219 C60.309,39.406 59.636,38.819 59.167,38.619 C57.879,38.076 56.590,37.533 55.302,36.991 C50.078,34.791 44.852,32.591 39.628,30.391 C38.459,29.894 34.051,28.505 33.831,27.434 C33.663,26.615 36.052,23.396 36.494,22.678 C39.199,18.250 41.905,13.821 44.610,9.394 C44.114,9.380 42.755,9.215 42.463,9.479 C39.643,14.078 36.823,18.678 34.003,23.278 C33.216,24.563 32.429,25.849 31.641,27.134 C31.373,27.564 30.859,28.136 30.783,28.591 C37.051,31.234 43.322,33.877 49.591,36.519 C51.151,37.176 52.711,37.834 54.271,38.490 C54.918,38.768 55.776,38.900 56.032,39.562 C56.446,40.635 54.410,43.245 54.100,44.147 C55.534,44.121 59.227,43.730 58.179,45.733 C57.691,46.665 55.007,46.290 53.627,46.290 C53.305,46.290 52.779,46.223 52.597,46.375 C51.938,47.161 51.280,47.946 50.621,48.732 C52.310,48.732 54.000,48.732 55.688,48.732 C56.295,48.732 57.156,48.625 57.621,48.818 C57.983,48.968 58.428,49.453 58.265,50.103 C58.021,51.078 56.860,50.918 55.645,50.917 C53.212,50.917 50.779,50.917 48.346,50.917 C47.343,52.167 45.613,53.056 44.223,53.917 C38.633,57.382 31.962,58.826 23.311,57.560 C23.311,60.973 23.311,64.388 23.311,67.801 ZM29.365,14.279 C29.365,15.293 29.365,16.307 29.365,17.322 C29.931,17.341 30.353,17.320 30.654,17.107 C30.639,16.207 30.625,15.307 30.611,14.407 C30.322,14.264 29.832,14.269 29.365,14.279 ZM47.487,15.864 C52.289,15.755 52.518,21.874 48.431,22.635 C45.660,23.151 43.867,20.121 44.781,17.921 C45.304,16.665 46.217,16.405 47.487,15.864 ZM57.363,16.293 C57.956,16.287 58.174,16.416 58.437,16.722 C59.258,17.676 57.817,18.711 57.320,19.207 C54.615,21.892 51.909,24.578 49.204,27.263 C48.644,27.822 46.797,30.326 45.683,29.534 C44.218,28.492 46.872,26.505 47.487,25.892 C49.619,23.778 51.752,21.663 53.885,19.550 C54.971,18.465 55.989,17.065 57.363,16.293 ZM47.616,18.050 C46.170,18.890 46.733,20.897 48.260,20.449 C49.636,20.046 49.361,17.973 47.616,18.050 ZM15.495,22.764 C16.946,22.725 19.990,22.306 19.532,24.135 C19.239,25.302 16.947,24.987 15.495,24.949 C15.495,25.963 15.495,26.977 15.495,27.991 C18.204,27.937 18.974,28.891 18.974,31.549 C18.974,32.338 19.036,33.209 18.802,33.776 C18.300,34.994 17.293,35.354 15.495,35.319 C15.542,36.488 15.530,37.997 14.121,37.633 C13.264,37.412 13.261,36.439 13.306,35.319 C11.841,35.358 9.514,35.694 9.269,34.462 C8.918,32.702 11.848,33.138 13.306,33.177 C13.306,32.163 13.306,31.148 13.306,30.134 C11.503,30.170 10.488,29.784 9.999,28.548 C9.783,28.003 9.870,27.096 9.870,26.363 C9.870,23.703 10.621,22.713 13.306,22.764 C13.258,21.610 13.304,20.150 14.680,20.492 C15.544,20.707 15.541,21.644 15.495,22.764 ZM55.259,23.621 C60.076,23.514 60.282,29.631 56.161,30.391 C53.770,30.833 51.702,28.295 52.425,26.020 C52.899,24.528 53.854,24.216 55.259,23.621 ZM13.306,27.991 C13.306,26.977 13.306,25.963 13.306,24.949 C12.933,24.963 12.561,24.977 12.189,24.992 C12.132,25.063 12.075,25.135 12.017,25.206 C12.000,25.747 11.918,27.794 12.189,27.948 C12.561,27.963 12.933,27.977 13.306,27.991 ZM55.388,25.806 C53.941,26.638 54.477,28.629 56.032,28.206 C57.382,27.838 57.235,25.718 55.388,25.806 ZM15.495,30.134 C15.495,31.148 15.495,32.163 15.495,33.177 C16.063,33.197 16.484,33.177 16.784,32.962 C16.801,32.418 16.883,30.332 16.612,30.177 C16.240,30.163 15.868,30.148 15.495,30.134 ZM29.365,39.819 C30.811,39.784 33.889,39.319 33.402,41.190 C33.052,42.533 30.737,41.675 29.365,42.004 C29.365,43.004 29.365,44.004 29.365,45.004 C31.139,44.968 32.178,45.344 32.672,46.547 C32.905,47.115 32.844,47.985 32.844,48.775 C32.844,51.434 32.063,52.426 29.365,52.375 C29.411,53.510 29.395,54.840 28.206,54.689 C27.155,54.555 27.170,53.597 27.218,52.375 C25.775,52.409 22.775,52.829 23.139,51.089 C23.455,49.574 25.743,50.505 27.218,50.146 C27.218,49.161 27.218,48.175 27.218,47.189 C24.316,47.246 23.740,46.119 23.740,43.247 C23.740,42.323 23.726,41.527 24.084,40.976 C24.441,40.426 25.087,39.964 25.844,39.819 C26.302,39.804 26.760,39.790 27.218,39.776 C27.172,38.629 27.175,37.155 28.550,37.505 C29.423,37.727 29.411,38.685 29.365,39.819 ZM26.231,41.961 C26.159,41.990 26.088,42.019 26.016,42.047 C25.763,42.593 25.796,44.098 25.930,44.790 C26.002,44.861 26.073,44.932 26.145,45.004 C26.503,44.990 26.861,44.975 27.218,44.961 C27.204,43.961 27.190,42.961 27.176,41.961 C26.861,41.961 26.546,41.961 26.231,41.961 ZM29.365,47.189 C29.365,48.189 29.365,49.189 29.365,50.189 C29.821,50.204 30.337,50.214 30.611,50.061 C30.752,49.355 30.796,47.676 30.482,47.189 C30.110,47.189 29.738,47.189 29.365,47.189 ZM36.408,57.988 C41.074,57.988 45.741,57.988 50.407,57.988 C51.841,57.988 54.868,57.493 54.529,59.231 C54.266,60.582 51.673,60.131 50.106,60.131 C45.526,60.131 40.945,60.131 36.365,60.131 C35.039,59.787 35.626,58.471 36.408,57.988 ZM58.995,60.002 C58.995,62.073 58.995,64.145 58.995,66.216 C61.070,64.145 63.146,62.073 65.221,60.002 C63.146,60.002 61.070,60.002 58.995,60.002 ZM36.365,62.617 C41.031,62.617 45.698,62.617 50.364,62.617 C51.786,62.616 54.837,62.113 54.529,63.816 C54.275,65.217 51.709,64.759 50.106,64.759 C45.540,64.759 40.973,64.759 36.408,64.759 C35.122,64.430 35.543,63.131 36.365,62.617 Z"/>
</svg>