<svg 
 xmlns="http://www.w3.org/2000/svg"
 xmlns:xlink="http://www.w3.org/1999/xlink"
 width="70px" height="64px">
<path fill-rule="evenodd"  fill="rgb(201, 225, 247)"
 d="M25.879,0.023 C30.655,0.023 35.433,0.023 40.209,0.023 C41.656,0.023 43.103,0.023 44.550,0.023 C45.060,0.023 45.780,-0.065 46.164,0.100 C46.885,0.409 47.647,2.787 48.008,3.612 C49.570,7.086 51.132,10.560 52.695,14.033 C53.648,13.893 55.290,12.543 56.075,13.609 C56.818,14.617 55.468,16.080 55.038,16.774 C53.604,19.051 52.169,21.328 50.735,23.605 C50.267,24.355 49.766,25.805 48.891,26.114 C48.125,26.384 46.399,25.718 45.741,25.535 C43.180,24.904 40.618,24.274 38.057,23.644 C36.955,23.362 35.222,23.374 34.984,22.216 C34.697,20.819 37.093,20.492 37.750,19.861 C36.610,17.816 35.470,15.770 34.331,13.724 C34.292,13.750 34.254,13.776 34.216,13.801 C32.372,16.310 30.527,18.819 28.683,21.328 C28.249,21.924 27.279,23.668 26.647,23.914 C25.673,24.293 24.062,22.738 23.459,22.293 C21.205,20.595 18.951,18.896 16.697,17.198 C15.897,16.607 14.396,15.922 14.008,14.960 C13.562,13.854 15.909,11.676 16.466,11.023 C18.566,8.501 20.667,5.979 22.767,3.458 C23.664,2.319 24.587,0.748 25.879,0.023 ZM30.873,2.300 C31.795,3.998 32.717,5.696 33.639,7.394 C35.325,10.297 36.769,13.296 38.442,16.156 C38.868,16.885 40.892,19.969 40.554,20.903 C40.389,21.361 39.866,21.407 39.556,21.714 C42.321,22.383 45.088,23.052 47.854,23.721 C49.288,21.405 50.723,19.089 52.157,16.774 C52.157,16.760 52.157,16.748 52.157,16.735 C50.706,16.634 50.329,14.510 49.852,13.416 C48.187,9.711 46.522,6.005 44.857,2.300 C40.196,2.300 35.534,2.300 30.873,2.300 ZM26.686,2.377 C23.395,6.339 20.103,10.303 16.812,14.265 C16.838,14.303 16.863,14.342 16.889,14.381 C19.885,16.606 22.883,18.832 25.879,21.058 C28.312,17.867 30.745,14.676 33.178,11.486 C31.539,8.450 29.900,5.413 28.261,2.377 C27.736,2.377 27.211,2.377 26.686,2.377 ZM46.202,59.770 C46.199,61.195 46.295,62.483 45.280,62.935 C44.887,63.110 44.415,62.912 44.166,62.704 C42.271,59.873 40.375,57.043 38.480,54.212 C38.096,53.633 36.661,52.103 36.866,51.163 C37.044,50.348 38.360,49.122 38.864,48.461 C40.375,46.519 41.886,44.576 43.397,42.633 C43.939,41.907 44.677,40.335 45.741,40.202 C47.348,40.000 47.106,42.309 47.085,43.752 C49.442,43.547 51.798,43.341 54.154,43.135 C52.631,40.356 51.106,37.577 49.583,34.798 C49.275,34.228 47.994,32.535 48.161,31.749 C48.390,30.672 49.976,30.277 50.812,29.781 C53.424,28.301 56.037,26.821 58.649,25.342 C59.281,24.969 61.245,23.601 62.030,24.184 C62.683,24.669 63.379,26.826 63.797,27.658 C65.295,30.758 66.794,33.859 68.292,36.959 C68.631,37.629 70.171,40.108 69.983,40.935 C68.382,44.485 66.781,48.037 65.180,51.587 C64.348,53.440 63.516,55.293 62.683,57.146 C62.371,57.859 62.074,59.168 61.454,59.577 C60.810,60.003 58.254,59.770 57.189,59.770 C53.527,59.770 49.864,59.770 46.202,59.770 ZM18.695,24.339 C20.615,24.344 20.514,25.701 21.038,27.040 C22.088,29.819 23.138,32.598 24.188,35.377 C24.539,36.280 25.345,37.787 24.342,38.465 C23.456,39.063 21.657,37.599 21.000,37.268 C19.963,39.378 18.925,41.488 17.888,43.598 C21.307,43.752 24.727,43.907 28.146,44.061 C29.359,44.177 30.536,43.933 31.027,44.756 C31.426,45.425 31.181,47.155 31.181,48.114 C31.181,50.893 31.181,53.672 31.181,56.451 C31.181,57.862 31.422,59.469 30.335,59.809 C25.854,59.822 21.371,59.834 16.889,59.847 C15.848,59.847 12.965,60.117 12.279,59.731 C11.485,59.286 10.591,57.382 10.051,56.566 C8.309,53.968 6.567,51.369 4.826,48.770 C3.584,46.930 2.341,45.090 1.099,43.251 C0.753,42.734 -0.184,42.014 0.024,41.051 C0.240,40.051 1.765,38.077 2.329,37.153 C4.134,34.168 5.940,31.183 7.746,28.198 C7.733,28.147 7.720,28.095 7.707,28.043 C6.954,27.745 5.103,26.569 5.709,25.419 C5.862,25.131 6.059,24.887 6.401,24.802 C10.498,24.647 14.597,24.493 18.695,24.339 ZM18.003,26.693 C15.468,26.809 12.932,26.925 10.397,27.040 C10.486,27.220 10.576,27.400 10.665,27.580 C10.859,28.360 9.520,29.963 9.206,30.475 C7.682,32.984 6.158,35.493 4.634,38.001 C4.367,38.431 2.589,41.158 2.675,41.321 C5.248,45.167 7.823,49.015 10.397,52.861 C10.422,52.849 10.448,52.836 10.473,52.823 C11.267,51.318 12.061,49.812 12.855,48.307 C14.533,45.014 16.211,41.719 17.888,38.426 C18.373,37.471 19.341,34.685 20.347,34.451 C20.844,34.335 21.171,34.687 21.499,34.798 C20.513,32.097 19.527,29.394 18.541,26.693 C18.362,26.693 18.183,26.693 18.003,26.693 ZM60.724,26.770 C57.446,28.635 54.167,30.501 50.889,32.366 C52.797,35.878 54.705,39.391 56.613,42.904 C60.058,42.659 63.503,42.415 66.948,42.170 C67.165,41.668 67.383,41.166 67.601,40.665 C65.309,36.034 63.016,31.401 60.724,26.770 ZM44.780,44.640 C43.026,46.917 41.271,49.195 39.517,51.472 C41.028,53.749 42.540,56.026 44.051,58.304 C44.076,58.291 44.102,58.278 44.127,58.265 C44.499,57.142 46.670,57.493 48.123,57.493 C52.144,57.493 56.165,57.493 60.186,57.493 C62.107,53.222 64.028,48.950 65.949,44.679 C63.772,44.833 61.594,44.987 59.418,45.142 C56.729,45.348 54.039,45.554 51.350,45.760 C50.425,45.917 46.224,46.451 45.549,46.184 C44.649,45.828 45.045,44.883 44.780,44.640 ZM28.760,57.493 C28.760,53.827 28.760,50.159 28.760,46.493 C24.752,46.313 20.743,46.133 16.735,45.952 C15.519,48.294 14.302,50.636 13.086,52.977 C12.901,53.341 11.871,55.010 12.010,55.254 C12.471,56.001 12.932,56.747 13.393,57.493 C18.515,57.493 23.638,57.493 28.760,57.493 Z"/>
</svg>