<svg 
 xmlns="http://www.w3.org/2000/svg"
 xmlns:xlink="http://www.w3.org/1999/xlink"
 width="70px" height="62px">
<path fill-rule="evenodd"  fill="rgb(201, 225, 247)"
 d="M29.187,0.000 C32.095,0.000 35.003,0.000 37.911,0.000 C40.393,-0.000 42.204,-0.098 42.923,1.656 C43.202,2.335 43.114,3.443 43.114,4.389 C43.114,6.185 43.114,7.982 43.114,9.779 C43.127,10.433 43.140,11.088 43.152,11.742 C48.521,11.742 53.891,11.742 59.260,11.742 C64.373,11.742 67.453,11.302 69.322,14.707 C70.358,16.593 69.896,22.508 69.896,25.486 C69.896,33.596 69.896,41.708 69.896,49.818 C69.897,55.041 70.390,58.870 66.682,60.482 C65.353,61.060 63.289,60.944 61.364,60.944 C58.125,60.944 54.885,60.944 51.646,60.944 C40.080,60.944 28.510,60.944 16.944,60.944 C14.164,60.944 11.383,60.944 8.603,60.944 C7.223,60.944 5.509,61.125 4.318,60.829 C3.191,60.547 2.081,59.965 1.449,59.173 C-0.325,56.950 0.033,54.412 0.033,50.511 C0.033,44.890 0.033,39.268 0.033,33.648 C0.033,29.362 0.033,25.075 0.033,20.790 C0.033,17.817 -0.126,15.555 1.143,13.860 C2.899,11.514 5.417,11.742 9.445,11.742 C13.628,11.742 17.812,11.742 21.995,11.742 C23.601,11.729 25.209,11.717 26.815,11.704 C26.815,9.458 26.815,7.212 26.815,4.966 C26.815,3.871 26.677,2.461 27.007,1.656 C27.435,0.607 28.165,0.475 29.187,0.000 ZM29.417,2.348 C29.329,2.425 29.289,2.429 29.226,2.541 C28.999,2.921 29.149,6.036 29.149,6.776 C29.162,10.715 29.175,14.655 29.187,18.595 C29.251,18.646 29.315,18.698 29.379,18.749 C33.128,18.736 36.878,18.723 40.627,18.710 C40.678,18.646 40.729,18.582 40.780,18.518 C40.780,14.476 40.780,10.433 40.780,6.391 C40.780,5.666 40.923,2.644 40.589,2.425 C40.167,2.172 38.159,2.348 37.490,2.348 C34.799,2.348 32.108,2.348 29.417,2.348 ZM34.314,3.542 C40.921,3.428 41.249,11.715 35.730,12.859 C32.271,13.575 29.400,9.909 30.527,6.699 C30.996,5.361 32.000,4.336 33.281,3.811 C33.626,3.721 33.970,3.632 34.314,3.542 ZM34.544,5.890 C33.658,6.325 33.003,6.571 32.707,7.584 C32.216,9.268 33.745,10.978 35.500,10.510 C38.117,9.814 37.872,5.808 34.544,5.890 ZM43.114,14.091 C43.131,16.052 43.437,18.910 42.579,20.058 C42.241,20.510 41.639,20.910 41.010,21.059 C37.924,21.072 34.837,21.085 31.751,21.098 C30.372,21.098 28.825,21.228 28.001,20.674 C26.444,19.625 26.796,16.699 26.815,14.091 C21.013,14.091 15.209,14.091 9.407,14.091 C6.335,14.091 3.678,13.654 2.673,15.823 C2.263,16.708 2.367,18.180 2.367,19.480 C2.367,21.521 2.367,23.562 2.367,25.602 C2.367,33.288 2.367,40.977 2.367,48.663 C2.367,50.395 2.367,52.128 2.367,53.860 C2.367,54.754 2.281,55.797 2.520,56.478 C2.831,57.366 3.589,58.128 4.471,58.441 C5.640,58.857 7.664,58.596 9.101,58.596 C12.378,58.596 15.656,58.596 18.934,58.596 C30.015,58.596 41.100,58.596 52.182,58.596 C55.408,58.596 58.635,58.596 61.862,58.596 C64.252,58.596 66.011,58.672 66.989,57.287 C67.973,55.891 67.562,50.533 67.562,48.047 C67.562,40.168 67.562,32.287 67.562,24.408 C67.563,21.124 68.207,16.063 66.300,14.668 C64.991,13.710 61.791,14.091 59.604,14.091 C54.108,14.091 48.610,14.091 43.114,14.091 ZM11.741,21.098 C12.910,21.081 13.003,21.687 13.616,22.175 C14.141,22.594 14.788,22.992 15.490,23.215 C16.821,23.637 18.596,23.186 20.158,23.446 C22.823,23.890 24.904,24.513 26.241,26.256 C26.780,26.958 27.257,27.865 27.542,28.797 C27.632,29.234 27.721,29.670 27.810,30.106 C28.040,30.324 28.269,30.542 28.499,30.761 C29.115,31.612 29.441,33.708 28.996,35.111 C28.793,35.752 28.333,36.395 27.848,36.767 C27.657,36.882 27.466,36.997 27.274,37.113 C27.134,37.524 26.994,37.934 26.854,38.345 C26.193,39.865 24.885,41.583 23.334,42.195 C23.334,42.349 23.334,42.503 23.334,42.657 C25.937,43.891 29.318,45.082 30.144,48.085 C30.399,49.011 30.502,51.249 29.991,51.935 C29.082,53.156 26.906,53.270 25.094,53.591 C20.989,54.317 10.925,54.215 8.183,52.590 C7.763,52.341 7.300,51.991 7.111,51.511 C6.816,50.761 7.028,48.380 7.226,47.739 C7.889,45.594 9.528,44.902 11.396,43.966 C12.264,43.530 13.131,43.093 13.998,42.657 C13.996,41.898 12.513,41.301 12.085,40.770 C11.515,40.063 10.901,39.305 10.517,38.422 C10.363,37.986 10.210,37.549 10.057,37.113 C9.866,36.997 9.675,36.882 9.483,36.767 C9.044,36.424 8.635,35.857 8.412,35.304 C7.931,34.110 8.140,31.885 8.680,30.992 C8.881,30.659 9.354,30.416 9.522,30.106 C9.662,29.401 9.802,28.695 9.943,27.989 C10.287,27.168 10.631,26.346 10.976,25.525 C11.098,25.119 10.937,24.660 10.861,24.332 C10.461,22.614 10.396,21.808 11.741,21.098 ZM13.309,24.832 C13.626,25.944 12.884,26.910 12.583,27.604 C12.102,28.713 11.780,30.052 11.703,31.531 C9.969,32.321 9.891,34.804 11.970,35.304 C12.436,38.106 13.994,39.744 16.332,40.694 C16.331,41.706 16.472,43.055 16.141,43.773 C15.648,44.842 12.688,45.922 11.549,46.507 C10.313,47.142 9.369,47.582 9.369,49.471 C9.369,49.842 9.327,50.337 9.445,50.588 C9.981,50.742 10.517,50.896 11.052,51.050 C12.429,51.203 13.807,51.358 15.184,51.511 C15.988,51.524 16.791,51.537 17.595,51.550 C18.309,51.550 19.023,51.550 19.737,51.550 C20.732,51.511 21.727,51.473 22.722,51.435 C24.618,51.135 26.573,51.285 27.963,50.511 C27.964,49.686 28.011,48.818 27.772,48.239 C27.219,46.901 24.493,45.875 23.181,45.198 C21.819,44.496 21.000,44.281 21.000,42.156 C21.012,41.656 21.025,41.155 21.038,40.655 C23.497,40.138 24.807,37.781 25.361,35.304 C26.407,35.056 26.815,34.750 26.815,33.417 C26.790,33.071 26.764,32.724 26.739,32.378 C26.524,31.883 25.991,31.831 25.629,31.492 C25.499,27.867 23.556,26.411 20.349,25.833 C18.971,25.584 17.518,25.997 16.179,25.756 C15.067,25.555 14.224,25.054 13.309,24.832 ZM35.845,26.988 C39.211,26.988 42.579,26.988 45.945,26.988 C47.283,26.988 49.333,26.734 48.930,28.412 C48.660,29.534 47.280,29.336 45.907,29.336 C43.535,29.336 41.163,29.336 38.791,29.336 C37.883,29.336 36.440,29.559 35.692,29.259 C34.421,28.750 35.003,27.490 35.845,26.988 ZM35.960,33.994 C42.897,33.994 49.836,33.994 56.773,33.994 C58.541,33.994 63.404,33.313 62.895,35.458 C62.818,35.779 62.520,36.144 62.244,36.266 C61.875,36.430 61.170,36.343 60.676,36.343 C59.247,36.343 57.819,36.343 56.391,36.343 C49.543,36.343 42.693,36.343 35.845,36.343 C35.061,36.153 34.661,35.023 35.271,34.341 C35.500,34.226 35.730,34.110 35.960,33.994 ZM35.883,41.040 C42.833,41.040 49.785,41.040 56.735,41.040 C58.504,41.040 63.357,40.354 62.895,42.465 C62.816,42.825 62.519,43.183 62.206,43.311 C61.807,43.475 61.084,43.388 60.561,43.388 C59.171,43.388 57.780,43.388 56.391,43.388 C49.568,43.388 42.744,43.388 35.921,43.388 C34.462,43.073 34.835,41.612 35.883,41.040 ZM35.921,46.892 C37.180,46.842 38.137,46.810 38.408,47.778 C38.507,48.130 38.414,48.560 38.255,48.778 C37.870,49.308 36.031,49.495 35.386,49.009 C34.387,48.258 35.182,47.257 35.921,46.892 ZM41.737,46.892 C43.264,46.845 46.192,46.581 45.372,48.547 C45.274,48.781 44.993,49.066 44.759,49.163 C44.338,49.338 41.889,49.340 41.469,49.163 C40.201,48.632 40.850,47.335 41.737,46.892 ZM48.700,46.892 C50.021,46.840 50.973,46.800 51.225,47.854 C51.309,48.206 51.200,48.594 51.034,48.817 C50.254,49.867 46.679,49.200 47.973,47.354 C48.139,47.117 48.440,47.039 48.700,46.892 ZM54.516,46.892 C56.053,46.845 58.953,46.580 58.189,48.509 C58.104,48.721 57.848,49.023 57.653,49.125 C57.310,49.304 54.840,49.367 54.363,49.202 C53.017,48.735 53.602,47.411 54.516,46.892 ZM61.517,46.892 C63.110,46.818 63.338,48.745 62.168,49.163 C60.687,49.691 59.855,47.681 61.517,46.892 Z"/>
</svg>