<svg 
 xmlns="http://www.w3.org/2000/svg"
 xmlns:xlink="http://www.w3.org/1999/xlink"
 width="70px" height="52px">
<path fill-rule="evenodd"  fill="rgb(201, 225, 247)"
 d="M25.950,45.230 C25.701,49.543 20.580,53.186 15.563,51.565 C13.887,51.023 12.594,49.896 11.667,48.588 C11.059,47.731 10.359,46.582 10.292,45.230 C9.910,45.230 9.528,45.230 9.147,45.230 C9.162,46.129 9.198,46.884 8.688,47.253 C8.292,47.539 7.411,47.443 6.741,47.443 C5.490,47.443 1.080,47.665 0.477,47.215 C-0.178,46.725 0.057,44.971 0.057,43.856 C0.057,42.538 -0.229,39.115 0.477,38.590 C0.881,38.290 1.592,38.311 2.310,38.323 C2.310,35.868 2.310,33.413 2.310,30.958 C2.310,30.046 2.074,28.535 2.387,27.790 C2.562,27.372 3.036,27.065 3.342,26.760 C4.551,25.552 5.760,24.343 6.970,23.135 C7.543,21.431 8.115,19.726 8.688,18.021 C9.401,15.871 10.114,13.721 10.827,11.572 C11.132,10.775 11.226,9.519 11.973,9.168 C12.555,8.895 15.462,9.092 16.365,9.092 C19.941,9.092 23.519,9.092 27.096,9.092 C27.096,8.367 27.096,7.641 27.096,6.916 C22.272,6.916 17.446,6.916 12.622,6.916 C11.387,6.916 7.922,7.200 7.237,6.688 C7.097,6.471 6.957,6.255 6.817,6.039 C6.663,5.403 6.799,0.897 6.970,0.620 C7.414,-0.103 8.757,0.086 9.910,0.086 C12.558,0.086 15.206,0.086 17.854,0.086 C26.319,0.086 34.786,0.086 43.251,0.086 C45.669,0.086 48.088,0.086 50.507,0.086 C51.377,0.086 52.861,-0.147 53.562,0.162 C57.699,3.710 61.837,7.260 65.974,10.809 C66.667,11.360 69.731,13.711 69.946,14.358 C69.959,22.015 69.971,29.674 69.984,37.331 C69.984,39.073 69.984,40.817 69.984,42.559 C69.984,43.331 70.090,44.324 69.755,44.772 C69.044,45.723 66.704,44.929 65.363,45.268 C65.186,49.459 59.881,53.284 54.975,51.565 C52.391,50.659 50.023,48.364 49.705,45.230 C49.281,45.220 47.564,45.137 47.375,45.307 C47.210,45.891 47.044,46.476 46.879,47.062 C46.084,48.940 44.616,50.489 42.754,51.297 C37.412,53.620 32.344,49.783 31.679,45.230 C29.770,45.230 27.860,45.230 25.950,45.230 ZM9.147,2.413 C9.147,3.138 9.147,3.863 9.147,4.588 C10.623,4.588 12.100,4.588 13.577,4.588 C13.577,3.863 13.577,3.138 13.577,2.413 C12.100,2.413 10.623,2.413 9.147,2.413 ZM15.906,2.413 C15.906,3.138 15.906,3.863 15.906,4.588 C26.866,4.588 37.829,4.588 48.788,4.588 C49.695,4.786 52.033,7.278 52.875,7.947 C55.828,10.478 58.782,13.010 61.735,15.541 C62.436,16.098 65.122,18.114 65.401,18.785 C65.590,19.238 65.478,20.105 65.478,20.693 C65.478,22.422 65.478,24.153 65.478,25.882 C65.478,31.542 65.478,37.204 65.478,42.864 C66.190,42.864 66.904,42.864 67.616,42.864 C67.616,33.668 67.616,24.469 67.616,15.273 C62.601,10.987 57.584,6.699 52.569,2.413 C40.349,2.413 28.126,2.413 15.906,2.413 ZM29.426,6.916 C29.426,17.384 29.426,27.855 29.426,38.323 C30.966,38.323 32.507,38.323 34.047,38.323 C35.296,36.669 38.827,35.490 41.723,36.377 C43.105,36.800 44.039,37.555 45.046,38.323 C47.388,38.323 49.731,38.323 52.073,38.323 C53.320,36.667 56.853,35.490 59.749,36.377 C61.155,36.807 62.088,37.581 63.110,38.361 C63.110,32.167 63.110,25.971 63.110,19.777 C58.095,15.490 53.078,11.203 48.063,6.916 C41.851,6.916 35.637,6.916 29.426,6.916 ZM4.678,29.355 C6.172,29.330 10.648,29.045 11.209,29.813 C11.738,30.538 11.099,31.959 10.903,32.675 C10.676,33.507 10.435,35.538 9.872,35.957 C9.213,36.448 5.871,36.202 4.678,36.186 C4.678,36.898 4.678,37.611 4.678,38.323 C6.024,38.304 8.377,38.021 8.956,38.819 C9.353,39.367 9.160,41.896 9.147,42.864 C9.528,42.864 9.910,42.864 10.292,42.864 C10.328,41.499 11.061,40.319 11.667,39.468 C12.697,38.023 14.131,36.871 16.059,36.338 C20.929,34.994 25.770,38.819 25.950,42.864 C26.332,42.864 26.714,42.864 27.096,42.864 C27.096,32.383 27.096,21.900 27.096,11.419 C22.501,11.432 17.905,11.445 13.309,11.457 C11.858,15.795 10.407,20.133 8.956,24.470 C7.530,25.895 6.104,27.320 4.678,28.744 C4.678,28.948 4.678,29.152 4.678,29.355 ZM14.455,13.594 C16.861,13.594 19.267,13.594 21.673,13.594 C22.511,13.594 23.944,13.408 24.461,13.785 C25.035,14.204 24.919,15.195 24.919,16.190 C24.919,18.199 24.919,20.209 24.919,22.219 C24.919,23.231 25.054,24.315 24.461,24.738 C23.930,25.116 22.487,24.928 21.635,24.928 C19.255,24.928 16.874,24.928 14.493,24.928 C13.449,24.928 12.005,25.119 11.553,24.508 C11.031,23.805 11.571,22.453 11.782,21.685 C12.431,19.166 13.080,16.647 13.729,14.129 C13.898,13.857 14.182,13.765 14.455,13.594 ZM43.747,13.594 C45.383,13.607 45.446,15.153 46.039,16.190 C47.579,19.229 49.120,22.270 50.660,25.310 C51.047,26.183 52.829,28.679 51.309,29.355 C50.509,29.711 48.855,29.470 47.834,29.470 C45.173,29.470 42.512,29.470 39.852,29.470 C38.633,29.470 36.805,29.713 36.300,28.974 C35.684,28.071 37.119,25.913 37.484,25.157 C38.897,22.372 40.310,19.585 41.723,16.800 C42.361,15.649 42.625,14.268 43.747,13.594 ZM22.590,22.601 C22.590,20.375 22.590,18.148 22.590,15.922 C20.286,15.922 17.981,15.922 15.677,15.922 C15.677,15.947 15.677,15.973 15.677,15.999 C15.117,18.199 14.557,20.400 13.997,22.601 C16.861,22.601 19.726,22.601 22.590,22.601 ZM44.015,17.373 C42.411,20.616 40.806,23.860 39.203,27.104 C42.423,27.104 45.644,27.104 48.865,27.104 C47.248,23.860 45.631,20.616 44.015,17.373 ZM18.962,29.355 C20.004,29.336 23.590,29.127 24.270,29.431 C24.632,29.594 25.083,30.140 24.919,30.805 C24.839,31.130 24.546,31.476 24.270,31.607 C23.997,31.736 19.222,31.781 18.847,31.645 C17.531,31.168 18.113,29.869 18.962,29.355 ZM4.678,31.683 C4.678,32.408 4.678,33.133 4.678,33.858 C5.236,33.867 7.961,33.986 8.192,33.782 C8.370,33.082 8.548,32.383 8.726,31.683 C7.377,31.683 6.028,31.683 4.678,31.683 ZM17.930,38.438 C17.498,38.501 17.065,38.565 16.632,38.628 C14.972,39.128 13.598,40.310 12.966,41.834 C11.499,45.369 13.804,48.520 16.556,49.351 C16.981,49.480 17.676,49.709 18.274,49.619 C20.804,49.237 22.431,48.241 23.277,46.222 C24.971,42.181 21.803,38.417 17.930,38.438 ZM39.317,38.438 C38.846,38.514 38.375,38.590 37.904,38.666 C36.153,39.204 34.873,40.517 34.238,42.177 C32.881,45.724 36.161,50.124 39.699,49.619 C42.246,49.255 43.749,48.221 44.664,46.261 C46.521,42.282 43.143,38.439 39.317,38.438 ZM57.343,38.438 C56.872,38.514 56.401,38.590 55.930,38.666 C54.242,39.193 52.911,40.457 52.302,42.062 C50.935,45.663 54.071,50.141 57.725,49.619 C60.271,49.255 61.897,48.186 62.728,46.146 C64.384,42.081 61.159,38.439 57.343,38.438 ZM17.663,40.613 C22.545,40.515 22.745,46.713 18.580,47.443 C16.195,47.862 14.102,45.386 14.799,43.093 C15.265,41.559 16.222,41.203 17.663,40.613 ZM39.088,40.613 C43.928,40.515 44.129,46.718 40.005,47.443 C37.488,47.886 35.474,45.304 36.262,42.902 C36.723,41.497 37.724,41.153 39.088,40.613 ZM57.076,40.613 C61.959,40.515 62.163,46.685 58.030,47.443 C55.608,47.888 53.508,45.380 54.250,43.017 C54.714,41.538 55.676,41.186 57.076,40.613 ZM2.425,40.689 C2.425,42.164 2.425,43.640 2.425,45.115 C3.889,45.115 5.353,45.115 6.817,45.115 C6.817,43.640 6.817,42.164 6.817,40.689 C5.353,40.689 3.889,40.689 2.425,40.689 ZM29.426,40.689 C29.426,41.414 29.426,42.139 29.426,42.864 C30.177,42.864 30.928,42.864 31.679,42.864 C31.777,42.041 32.047,41.332 32.328,40.689 C31.361,40.689 30.393,40.689 29.426,40.689 ZM49.705,42.864 C49.745,42.066 50.060,41.279 50.354,40.689 C49.145,40.689 47.935,40.689 46.726,40.689 C46.994,41.358 47.248,42.029 47.375,42.864 C48.152,42.864 48.929,42.864 49.705,42.864 ZM18.007,42.940 C16.642,43.521 16.882,45.291 18.198,45.115 C19.533,44.937 19.479,42.950 18.007,42.940 ZM39.394,42.940 C39.047,43.093 38.727,43.197 38.553,43.513 C38.127,44.288 38.864,45.241 39.623,45.115 C40.929,44.900 40.892,42.908 39.394,42.940 ZM57.419,42.940 C57.081,43.089 56.740,43.196 56.579,43.513 C56.211,44.237 56.801,45.222 57.610,45.115 C58.965,44.938 58.921,42.934 57.419,42.940 Z"/>
</svg>