<svg 
 xmlns="http://www.w3.org/2000/svg"
 xmlns:xlink="http://www.w3.org/1999/xlink"
 width="60px" height="60px">
<path fill-rule="evenodd"  fill="rgb(201, 225, 247)"
 d="M17.028,0.033 C23.912,0.033 30.799,0.033 37.682,0.033 C41.794,0.033 44.852,-0.436 46.446,2.185 C47.094,3.249 47.025,4.890 47.025,6.640 C47.025,9.367 47.025,12.096 47.025,14.823 C47.025,25.398 47.025,35.977 47.025,46.552 C47.025,48.831 47.025,51.111 47.025,53.390 C47.025,54.513 47.145,55.876 46.871,56.770 C46.502,57.971 45.575,59.019 44.477,59.498 C43.350,59.989 41.558,59.882 39.922,59.881 C37.541,59.881 35.160,59.881 32.780,59.881 C28.829,59.881 24.878,59.881 20.928,59.881 C18.016,59.882 16.026,60.059 14.403,58.768 C12.557,57.298 12.975,53.654 12.975,50.355 C12.975,43.134 12.975,35.911 12.975,28.690 C12.975,22.493 12.975,16.295 12.975,10.098 C12.975,7.545 12.545,3.842 13.554,2.185 C14.083,1.316 14.965,0.559 16.025,0.225 C16.359,0.162 16.694,0.098 17.028,0.033 ZM14.982,6.026 C24.993,6.026 35.007,6.026 45.018,6.026 C45.037,4.225 44.989,3.043 43.898,2.377 C42.809,1.712 39.488,2.031 37.760,2.031 C32.729,2.031 27.696,2.031 22.665,2.031 C20.868,2.031 17.232,1.685 16.102,2.377 C15.010,3.045 14.964,4.224 14.982,6.026 ZM25.792,3.030 C27.270,2.997 31.461,2.494 31.004,4.259 C30.924,4.565 30.629,4.881 30.347,4.989 C28.778,4.989 27.207,4.989 25.637,4.989 C24.518,4.550 24.985,3.445 25.792,3.030 ZM32.818,3.030 C34.014,2.975 35.780,3.272 34.864,4.605 C34.522,5.103 32.875,5.249 32.316,4.797 C31.541,4.170 32.268,3.307 32.818,3.030 ZM3.864,4.297 C4.698,4.289 5.365,4.985 4.945,5.796 C4.546,6.244 4.147,6.692 3.748,7.140 C2.882,8.351 1.547,10.993 1.933,13.324 C2.235,15.140 2.563,16.547 3.362,17.819 C3.792,18.503 4.588,19.058 4.945,19.740 C5.306,20.430 4.776,21.130 4.173,21.238 C3.082,21.432 1.701,18.850 1.277,18.126 C-1.229,13.842 0.129,6.254 3.864,4.297 ZM55.789,4.297 C57.136,4.310 57.916,6.028 58.452,6.910 C60.670,10.553 60.454,15.644 58.182,19.048 C57.720,19.741 57.031,21.071 56.098,21.238 C55.267,21.386 54.689,20.430 55.055,19.740 C55.415,19.343 55.776,18.946 56.136,18.549 C57.041,17.327 58.460,14.636 58.066,12.249 C57.762,10.405 57.447,9.002 56.638,7.716 C56.227,7.062 55.366,6.404 55.055,5.796 C54.653,5.006 55.283,4.564 55.789,4.297 ZM8.033,6.295 C8.811,6.283 9.528,6.782 9.230,7.639 C8.805,8.177 8.381,8.715 7.956,9.253 C7.410,10.139 7.232,11.143 7.029,12.403 C6.778,13.967 7.809,15.861 8.419,16.667 C8.662,16.986 9.085,17.220 9.230,17.627 C9.481,18.333 8.901,18.881 8.381,18.971 C7.442,19.135 6.485,17.362 6.142,16.782 C4.090,13.316 5.146,8.103 8.033,6.295 ZM51.581,6.564 C52.669,6.577 53.141,7.620 53.588,8.292 C55.419,11.047 55.326,14.938 53.511,17.627 C53.147,18.166 52.648,19.091 51.928,19.240 C51.236,19.384 50.580,18.742 50.731,18.049 C50.876,17.384 51.627,16.935 51.967,16.398 C52.549,15.474 52.757,14.462 52.970,13.132 C53.243,11.437 52.256,9.757 51.581,8.869 C51.310,8.548 51.040,8.228 50.770,7.908 C50.498,7.108 51.126,6.801 51.581,6.564 ZM14.982,8.023 C14.982,20.647 14.982,33.275 14.982,45.899 C24.993,45.899 35.007,45.899 45.018,45.899 C45.018,33.275 45.018,20.647 45.018,8.023 C35.007,8.023 24.993,8.023 14.982,8.023 ZM14.982,47.897 C14.982,50.560 14.982,53.223 14.982,55.887 C15.099,56.457 15.436,57.041 15.832,57.346 C16.999,58.247 20.009,57.884 22.009,57.884 C27.207,57.884 32.407,57.884 37.605,57.884 C39.679,57.884 42.949,58.289 44.168,57.346 C44.563,57.041 44.901,56.457 45.018,55.887 C45.018,53.223 45.018,50.560 45.018,47.897 C35.007,47.897 24.993,47.897 14.982,47.897 ZM29.652,48.895 C35.129,48.797 35.388,56.056 30.425,56.885 C27.514,57.372 25.131,54.099 26.255,51.392 C26.683,50.363 27.555,49.533 28.610,49.126 C28.957,49.049 29.305,48.972 29.652,48.895 ZM29.807,50.893 C28.922,51.256 28.281,51.458 28.031,52.430 C27.683,53.781 28.878,55.158 30.270,54.888 C32.686,54.419 32.538,50.850 29.807,50.893 Z"/>
</svg>