<svg 
 xmlns="http://www.w3.org/2000/svg"
 xmlns:xlink="http://www.w3.org/1999/xlink"
 width="61px" height="60px">
<path fill-rule="evenodd"  fill="rgb(201, 225, 247)"
 d="M29.095,0.003 C38.669,-0.161 44.700,5.177 47.435,11.844 C48.681,14.880 49.286,19.856 48.167,23.571 C47.223,26.707 45.709,28.923 44.160,31.375 C41.733,35.194 39.305,39.014 36.878,42.832 C39.395,42.832 41.913,42.832 44.430,42.832 C45.383,42.832 46.934,42.610 47.667,42.947 C48.353,43.263 49.480,45.097 49.978,45.754 C51.905,48.176 53.832,50.598 55.758,53.020 C57.004,54.558 58.250,56.096 59.495,57.634 C59.846,58.097 60.305,58.848 59.804,59.518 C59.304,60.184 57.472,59.941 56.336,59.940 C53.061,59.940 49.785,59.940 46.511,59.940 C35.197,59.940 23.880,59.940 12.566,59.940 C9.638,59.940 6.709,59.940 3.781,59.940 C2.770,59.941 1.009,60.171 0.390,59.710 C-0.213,59.261 -0.035,58.337 0.352,57.826 C1.687,56.173 3.023,54.519 4.359,52.866 C6.246,50.496 8.135,48.125 10.023,45.754 C10.520,45.098 11.649,43.262 12.334,42.947 C13.069,42.611 14.617,42.832 15.571,42.832 C18.088,42.832 20.606,42.832 23.123,42.832 C23.110,42.794 23.097,42.755 23.084,42.716 C21.620,40.423 20.156,38.128 18.692,35.835 C16.235,31.938 13.386,28.546 11.911,23.686 C11.345,21.823 10.893,18.928 11.333,16.535 C11.553,15.336 11.725,14.188 12.065,13.113 C12.687,11.143 13.634,9.340 14.723,7.807 C16.921,4.719 20.203,2.152 24.202,0.887 C25.215,0.567 26.287,0.375 27.400,0.157 C27.965,0.105 28.530,0.054 29.095,0.003 ZM29.211,2.348 C28.774,2.387 28.337,2.425 27.901,2.463 C27.040,2.643 26.179,2.823 25.319,3.002 C22.192,3.964 19.360,5.751 17.536,8.038 C14.509,11.835 12.124,18.165 14.569,24.416 C15.894,27.804 18.117,30.528 19.963,33.451 C23.302,38.692 26.642,43.935 29.981,49.176 C30.020,49.150 30.058,49.124 30.097,49.099 C31.253,47.292 32.409,45.484 33.565,43.678 C36.107,39.667 38.651,35.655 41.194,31.644 C42.828,29.050 44.727,26.704 45.740,23.494 C46.879,19.884 46.340,15.204 45.047,12.229 C42.588,6.574 37.387,2.322 29.211,2.348 ZM29.095,7.039 C35.353,6.944 38.963,9.927 40.808,14.228 C41.877,16.718 41.978,20.606 40.885,23.186 C39.176,27.223 36.018,29.574 31.060,30.414 C29.092,30.747 27.024,30.149 25.704,29.607 C20.968,27.658 16.234,21.677 18.962,14.689 C20.177,11.577 22.446,9.144 25.512,7.884 C26.249,7.582 27.066,7.375 27.901,7.192 C28.299,7.141 28.697,7.090 29.095,7.039 ZM29.211,9.384 C28.851,9.435 28.491,9.487 28.132,9.537 C27.515,9.730 26.899,9.922 26.282,10.114 C23.883,11.146 22.128,13.072 21.158,15.535 C18.981,21.060 22.818,25.903 26.552,27.415 C27.636,27.854 29.302,28.341 30.906,28.069 C34.590,27.443 37.233,25.652 38.535,22.686 C41.064,16.927 37.636,11.650 33.333,9.961 C32.168,9.503 30.864,9.376 29.211,9.384 ZM36.762,30.452 C38.496,30.368 38.651,32.408 37.379,32.759 C35.866,33.177 35.286,31.190 36.762,30.452 ZM34.142,34.258 C35.043,34.238 35.822,34.938 35.452,35.873 C34.143,38.026 32.832,40.179 31.522,42.332 C31.157,42.927 30.691,44.229 29.519,43.716 C28.391,43.223 29.001,41.937 29.442,41.217 C30.752,39.052 32.062,36.885 33.372,34.720 C33.560,34.470 33.849,34.411 34.142,34.258 ZM13.452,45.177 C12.116,46.856 10.780,48.535 9.445,50.214 C11.808,50.214 14.171,50.214 16.534,50.214 C17.857,48.548 19.180,46.882 20.503,45.216 C20.503,45.203 20.503,45.190 20.503,45.177 C18.153,45.177 15.802,45.177 13.452,45.177 ZM23.547,45.177 C22.211,46.856 20.875,48.535 19.540,50.214 C22.301,50.214 25.063,50.214 27.824,50.214 C27.824,50.201 27.824,50.188 27.824,50.175 C27.798,50.150 27.772,50.124 27.746,50.098 C26.706,48.458 25.666,46.818 24.626,45.177 C24.266,45.177 23.906,45.177 23.547,45.177 ZM35.375,45.177 C34.310,46.843 33.243,48.509 32.177,50.175 C32.177,50.188 32.177,50.201 32.177,50.214 C34.939,50.214 37.700,50.214 40.461,50.214 C40.410,50.162 40.359,50.111 40.307,50.060 C39.010,48.432 37.713,46.805 36.416,45.177 C36.069,45.177 35.722,45.177 35.375,45.177 ZM39.498,45.177 C40.834,46.856 42.170,48.535 43.505,50.214 C45.855,50.214 48.206,50.214 50.556,50.214 C50.505,50.162 50.454,50.111 50.402,50.060 C49.105,48.432 47.808,46.805 46.511,45.177 C44.173,45.177 41.835,45.177 39.498,45.177 ZM7.557,52.559 C6.234,54.238 4.911,55.917 3.588,57.595 C5.257,57.595 6.928,57.595 8.597,57.595 C9.232,57.595 10.267,57.737 10.755,57.518 C12.052,55.865 13.349,54.212 14.646,52.559 C12.283,52.559 9.920,52.559 7.557,52.559 ZM17.652,52.559 C16.329,54.238 15.006,55.917 13.683,57.595 C24.560,57.595 35.441,57.595 46.318,57.595 C46.292,57.570 46.267,57.544 46.241,57.518 C44.931,55.865 43.621,54.212 42.311,52.559 C34.092,52.559 25.871,52.559 17.652,52.559 ZM45.355,52.559 C46.678,54.238 48.001,55.917 49.323,57.595 C51.686,57.595 54.050,57.595 56.413,57.595 C56.374,57.557 56.336,57.518 56.297,57.480 C55.013,55.840 53.728,54.199 52.444,52.559 C50.081,52.559 47.718,52.559 45.355,52.559 Z"/>
</svg>