<svg 
 xmlns="http://www.w3.org/2000/svg"
 xmlns:xlink="http://www.w3.org/1999/xlink"
 width="60px" height="60px">
<path fill-rule="evenodd"  fill="rgb(201, 225, 247)"
 d="M29.720,0.003 C31.764,-0.025 33.918,2.252 35.218,3.235 C35.526,3.492 35.833,3.749 36.141,4.005 C37.076,4.005 38.012,4.005 38.948,4.005 C41.831,4.018 44.715,4.031 47.599,4.044 C48.307,4.213 48.988,4.652 49.367,5.160 C50.182,6.248 49.944,8.578 49.944,10.470 C49.944,11.881 49.944,13.292 49.944,14.703 C52.353,16.588 54.763,18.475 57.173,20.360 C57.818,20.848 59.580,21.890 59.864,22.592 C60.050,23.049 59.941,23.890 59.941,24.478 C59.941,26.183 59.941,27.890 59.941,29.596 C59.941,35.137 59.941,40.679 59.941,46.220 C59.941,49.375 59.941,52.531 59.941,55.686 C59.941,56.714 60.023,58.805 59.634,59.150 C59.452,59.311 59.018,59.480 58.672,59.342 C58.362,59.464 58.048,59.739 57.673,59.842 C56.938,60.046 55.844,59.920 54.981,59.920 C51.777,59.920 48.573,59.920 45.369,59.920 C35.168,59.920 24.964,59.920 14.763,59.920 C11.969,59.920 9.175,59.920 6.381,59.920 C5.124,59.920 3.453,60.144 2.344,59.842 C1.997,59.749 1.699,59.480 1.421,59.381 C1.146,59.283 0.954,59.448 0.690,59.342 C-0.090,59.029 0.075,57.196 0.075,55.994 C0.075,52.839 0.075,49.683 0.075,46.528 C0.075,40.718 0.075,34.906 0.075,29.095 C0.075,27.848 -0.171,23.103 0.229,22.438 C0.666,21.712 1.822,21.140 2.498,20.629 C5.022,18.641 7.547,16.653 10.072,14.665 C10.072,13.254 10.072,11.842 10.072,10.432 C10.072,8.546 9.838,6.243 10.649,5.160 C11.029,4.652 11.709,4.211 12.417,4.044 C15.288,4.031 18.160,4.018 21.030,4.005 C21.979,4.005 22.927,4.005 23.875,4.005 C24.414,3.569 24.952,3.133 25.490,2.697 C26.477,1.940 27.464,1.183 28.451,0.426 C28.828,0.197 29.273,0.196 29.720,0.003 ZM29.835,2.004 C28.910,2.514 27.834,3.241 27.144,4.005 C29.053,4.005 30.963,4.005 32.873,4.005 C32.860,3.980 32.847,3.954 32.834,3.928 C31.816,3.455 31.188,2.047 29.835,2.004 ZM12.840,6.006 C12.588,6.161 12.338,6.216 12.187,6.468 C11.866,7.003 12.071,9.279 12.072,10.124 C12.072,13.830 12.072,17.538 12.072,21.245 C12.072,22.369 12.309,25.283 11.725,25.748 C10.630,26.620 10.072,25.461 10.072,24.285 C10.059,21.951 10.047,19.616 10.034,17.281 C9.995,17.320 9.957,17.359 9.918,17.397 C7.637,19.167 5.355,20.938 3.074,22.707 C3.100,22.746 3.126,22.784 3.151,22.823 C7.611,26.286 12.072,29.750 16.532,33.213 C17.621,34.047 18.711,34.881 19.800,35.714 C20.038,35.998 20.124,36.637 19.877,36.984 C19.620,37.345 18.937,37.562 18.454,37.254 C17.365,36.407 16.275,35.560 15.186,34.714 C10.816,31.315 6.445,27.915 2.075,24.516 C2.075,35.123 2.075,45.734 2.075,56.341 C8.495,51.364 14.917,46.386 21.338,41.410 C23.119,40.025 24.901,38.639 26.682,37.254 C27.546,36.601 28.275,35.692 29.528,35.445 C30.895,35.176 31.644,35.963 32.296,36.445 C33.962,37.741 35.628,39.037 37.294,40.332 C44.176,45.668 51.060,51.005 57.942,56.341 C57.942,45.734 57.942,35.123 57.942,24.516 C53.572,27.915 49.200,31.315 44.830,34.714 C43.741,35.560 42.652,36.407 41.562,37.254 C41.123,37.542 40.420,37.438 40.140,37.061 C39.874,36.703 39.923,36.081 40.178,35.753 C41.331,34.868 42.485,33.982 43.639,33.098 C48.073,29.635 52.508,26.171 56.942,22.707 C54.623,20.899 52.302,19.090 49.983,17.281 C49.970,17.281 49.957,17.281 49.944,17.281 C49.944,19.513 49.944,21.745 49.944,23.978 C49.944,25.046 49.887,26.361 48.637,25.940 C47.522,25.565 47.945,22.664 47.945,21.207 C47.945,17.603 47.945,13.997 47.945,10.393 C47.945,9.427 48.159,6.890 47.753,6.353 C47.386,5.867 46.287,6.006 45.446,6.006 C43.331,6.006 41.216,6.006 39.101,6.006 C30.349,6.006 21.593,6.006 12.840,6.006 ZM19.954,10.970 C25.362,10.970 30.771,10.970 36.179,10.970 C37.639,10.970 41.343,10.454 40.985,12.163 C40.723,13.421 37.420,12.972 35.872,12.972 C30.502,12.972 25.131,12.972 19.761,12.972 C19.173,12.821 18.773,11.956 19.223,11.355 C19.392,11.130 19.680,11.099 19.954,10.970 ZM19.838,16.973 C25.285,16.973 30.733,16.973 36.179,16.973 C37.633,16.973 41.355,16.448 40.985,18.166 C40.705,19.471 37.423,18.975 35.872,18.975 C30.515,18.975 25.157,18.975 19.800,18.975 C18.562,18.659 19.015,17.422 19.838,16.973 ZM30.758,22.977 C33.385,22.977 36.013,22.977 38.640,22.977 C39.729,22.977 41.300,22.844 40.985,24.170 C40.916,24.462 40.663,24.791 40.409,24.901 C39.880,25.131 38.815,24.978 38.140,24.978 C36.423,24.978 34.705,24.978 32.988,24.978 C32.219,24.965 31.450,24.952 30.681,24.939 C29.544,24.528 30.016,23.433 30.758,22.977 ZM29.758,37.446 C27.621,38.807 25.760,40.550 23.760,42.064 C19.685,45.232 15.608,48.401 11.533,51.569 C8.816,53.685 6.099,55.802 3.382,57.919 C21.131,57.906 38.885,57.893 56.634,57.880 C56.634,57.867 56.634,57.854 56.634,57.842 C50.137,52.814 43.638,47.785 37.141,42.757 C35.475,41.461 33.808,40.165 32.142,38.870 C31.469,38.361 30.895,37.440 29.758,37.446 Z"/>
</svg>