<svg 
 xmlns="http://www.w3.org/2000/svg"
 xmlns:xlink="http://www.w3.org/1999/xlink"
 width="60px" height="60px">
<path fill-rule="evenodd"  fill="rgb(201, 225, 247)"
 d="M29.018,-0.002 C43.362,-0.237 53.778,8.563 57.702,18.715 C59.303,22.857 60.766,29.173 59.548,34.929 C59.050,37.286 58.489,39.413 57.702,41.438 C54.451,49.810 47.127,56.188 38.169,58.885 C35.939,59.556 33.594,59.605 30.940,60.001 C30.018,59.976 29.095,59.950 28.172,59.925 C27.134,59.822 26.095,59.719 25.057,59.616 C22.298,59.054 19.887,58.295 17.636,57.305 C9.655,53.796 3.932,47.267 1.256,38.434 C0.191,34.918 -0.453,29.653 0.372,25.301 C0.742,23.349 1.143,21.461 1.794,19.755 C5.036,11.269 11.222,4.782 19.866,1.731 C21.723,1.076 23.692,0.665 25.826,0.268 C26.890,0.178 27.954,0.088 29.018,-0.002 ZM29.056,2.155 C28.031,2.245 27.005,2.335 25.980,2.424 C24.205,2.762 22.458,3.061 20.905,3.657 C12.478,6.890 6.810,12.531 3.640,21.026 C3.070,22.553 2.772,24.257 2.448,25.995 C1.721,29.901 2.354,34.592 3.294,37.702 C5.827,46.090 11.194,52.150 18.790,55.457 C20.744,56.308 22.876,56.975 25.250,57.459 C26.249,57.562 27.249,57.665 28.249,57.768 C29.133,57.793 30.018,57.819 30.902,57.845 C33.575,57.441 35.709,57.382 37.977,56.689 C46.355,54.129 52.560,48.286 55.741,40.514 C58.481,33.823 58.341,25.291 55.434,18.908 C51.115,9.426 42.768,2.236 29.056,2.155 ZM29.825,6.853 C31.540,6.822 31.445,9.743 30.210,10.012 C28.982,10.279 28.462,8.357 29.018,7.393 C29.193,7.089 29.489,7.005 29.825,6.853 ZM14.291,13.285 C15.546,13.245 17.082,15.226 15.752,16.020 C14.597,16.710 12.233,14.304 14.291,13.285 ZM45.283,13.285 C47.795,13.214 45.913,16.677 44.360,16.097 C42.587,15.434 44.509,13.667 45.283,13.285 ZM29.864,14.826 C31.332,14.881 31.056,16.303 31.056,17.791 C31.069,20.525 31.081,23.260 31.094,25.995 C33.868,26.468 34.883,30.273 33.094,32.542 C31.180,34.968 26.605,34.000 26.095,30.963 C24.058,30.963 22.019,30.963 19.982,30.963 C18.916,30.963 17.699,30.919 17.944,29.692 C18.016,29.329 18.318,28.959 18.636,28.845 C21.122,28.831 23.609,28.819 26.095,28.806 C26.266,27.296 27.649,26.429 28.902,25.956 C28.902,23.376 28.902,20.795 28.902,18.215 C28.902,16.391 28.548,15.466 29.864,14.826 ZM29.748,27.959 C29.026,28.275 28.445,28.446 28.172,29.191 C27.701,30.476 28.750,32.007 30.095,31.810 C32.552,31.450 32.462,27.892 29.748,27.959 ZM7.870,28.806 C9.042,28.755 10.118,28.738 10.138,29.846 C10.144,30.196 10.041,30.479 9.869,30.655 C8.625,31.923 5.422,29.996 7.870,28.806 ZM50.666,28.806 C51.939,28.749 52.702,28.746 52.935,29.769 C52.996,30.039 52.886,30.387 52.742,30.577 C52.430,30.990 50.859,31.191 50.281,30.809 C49.312,30.166 49.933,29.181 50.666,28.806 ZM15.099,43.595 C17.523,43.684 15.550,47.017 14.060,46.406 C12.278,45.676 14.293,43.952 15.099,43.595 ZM44.668,43.595 C45.865,43.630 47.462,45.766 45.898,46.406 C44.824,46.845 42.397,44.597 44.668,43.595 ZM29.710,49.757 C31.640,49.677 31.500,52.713 30.018,52.915 C28.915,53.066 28.494,51.124 29.056,50.219 C29.206,49.978 29.457,49.900 29.710,49.757 Z"/>
</svg>